<svg height="512pt" viewBox="-28 0 512 512" width="512pt" xmlns="http://www.w3.org/2000/svg"><path d="m71.25 397.5c-14.976562 0-26.25-21.992188-26.25-36.25v-213c0-14.476562 11.773438-26.25 26.25-26.25s26.25 11.777344 26.25 26.25v212.996094c0 14.261718-11.273438 36.253906-26.25 36.253906zm0 0" fill="#6697cc"/><path d="m71.25 122c-1.273438 0-2.523438.097656-3.75.273438v225.226562c0 11.046875-8.953125 19.996094-20 19.996094h-1.871094c2.550782 13.648437 12.707032 30 25.621094 30 14.976562 0 26.25-21.988282 26.25-36.25v-212.996094c0-14.472656-11.773438-26.25-26.25-26.25zm0 0" fill="#4b7cb1"/><path d="m417.5 7.5h-260c-16.570312 0-30 13.429688-30 30v437c0 16.570312 13.429688 30 30 30h260c16.570312 0 30-13.429688 30-30v-437c0-16.570312-13.429688-30-30-30zm0 0" fill="#fff9eb"/><path d="m446.441406 29.597656c-.179687-.65625-.378906-1.304687-.601562-1.941406-.117188-.339844-.242188-.675781-.371094-1.007812-.453125-1.167969-.972656-2.296876-1.558594-3.386719-.070312-.132813-.148437-.257813-.21875-.390625-.308594-.546875-.632812-1.082032-.972656-1.609375-.179688-.277344-.359375-.554688-.550781-.824219-2.945313-4.253906-6.960938-7.714844-11.664063-9.980469-.039062-.019531-.082031-.035156-.125-.054687-.742187-.355469-1.503906-.675782-2.277344-.96875-.246093-.089844-.492187-.179688-.738281-.265625-.519531-.179688-1.042969-.347657-1.574219-.496094-.558593-.164063-1.125-.308594-1.699218-.4375-1.636719-.367187-3.320313-.609375-5.046875-.695313-.511719-.027343-1.023438-.039062-1.542969-.039062v437c0 16.566406-13.429688 30-30 30h-260c0 16.570312 13.433594 30 30 30h260c16.632812 0 30-13.511719 30-30v-437c0-2.734375-.371094-5.382812-1.058594-7.902344zm0 0" fill="#d3cdbf"/><path d="m218 226.5h-30c-8.285156 0-15-6.714844-15-15v-30c0-8.285156 6.714844-15 15-15h30c8.285156 0 15 6.714844 15 15v30c0 8.285156-6.714844 15-15 15zm0 0" fill="#8b9ba9"/><path d="m218 106.5h-30c-8.285156 0-15-6.714844-15-15v-30c0-8.28125 6.714844-15 15-15h30c8.285156 0 15 6.71875 15 15v30c0 8.285156-6.714844 15-15 15zm0 0" fill="#8b9ba9"/><path d="m218 346.5h-30c-8.285156 0-15-6.714844-15-15v-30c0-8.285156 6.714844-15 15-15h30c8.285156 0 15 6.714844 15 15v30c0 8.285156-6.714844 15-15 15zm0 0" fill="#8b9ba9"/><path d="m218 466.5h-30c-8.285156 0-15-6.71875-15-15v-30c0-8.285156 6.714844-15 15-15h30c8.285156 0 15 6.714844 15 15v30c0 8.285156-6.714844 15-15 15zm0 0" fill="#8b9ba9"/><g fill="#020201"><path d="m78.75 115.601562v-15.851562c4.144531 0 7.5-3.359375 7.5-7.5s-3.355469-7.5-7.5-7.5h-7.5c-35.152344 0-63.75 28.597656-63.75 63.75v65.496094c-4.144531 0-7.5 3.359375-7.5 7.5 0 4.144531 3.355469 7.5 7.5 7.5h7.5c4.144531 0 7.5-3.355469 7.5-7.5v-72.996094c0-24.332031 17.917969-44.554688 41.25-48.171875v15.273437c-15.011719 3.421876-26.25 16.867188-26.25 32.898438v212.996094c0 15.171875 10.210938 37.09375 26.25 42.503906v8.25c0 4.140625 3.355469 7.5 7.5 7.5s7.5-3.359375 7.5-7.5v-8.25c16.039062-5.410156 26.25-27.332031 26.25-42.503906v-212.996094c0-16.03125-11.238281-29.476562-26.25-32.898438zm11.25 245.898438c0 11.875-9.695312 28.75-18.75 28.75s-18.75-16.875-18.75-28.75v-213c0-10.339844 8.410156-18.75 18.75-18.75s18.75 8.410156 18.75 18.75zm0 0"/><path d="m444.019531 10.980469c-7.089843-7.082031-16.5-10.980469-26.519531-10.980469h-260c-10.019531 0-19.429688 3.898438-26.511719 10.980469-7.089843 7.089843-10.988281 16.5-10.988281 26.519531v437c0 4.140625 3.371094 7.5 7.5 7.5 4.140625 0 7.5-3.359375 7.5-7.5v-437c.019531-12.378906 10.109375-22.480469 22.5-22.5h260c12.378906.019531 22.480469 10.121094 22.5 22.5v437c-.019531 12.378906-10.121094 22.480469-22.5 22.5h-260c-4.328125 0-8.539062-1.238281-12.160156-3.558594-1.210938-.792968-2.621094-1.203125-4.0625-1.203125-2.558594 0-4.917969 1.292969-6.308594 3.441407-2.238281 3.480468-1.230469 8.128906 2.25 10.371093 6.039062 3.890625 13.050781 5.949219 20.269531 5.949219h260.011719c10.019531 0 19.429688-3.898438 26.519531-10.980469 7.082031-7.089843 10.980469-16.5 10.980469-26.519531v-437c0-10.019531-3.898438-19.429688-10.980469-26.519531zm0 0"/><path d="m173 79c-4.144531 0-7.5 3.359375-7.5 7.5v20c0 3.035156 1.828125 5.769531 4.628906 6.929688.929688.382812 1.902344.570312 2.867188.570312 1.953125 0 3.871094-.761719 5.308594-2.195312l60-60c2.929687-2.929688 2.929687-7.679688 0-10.609376-2.929688-2.925781-7.679688-2.925781-10.609376 0l-47.195312 47.199219v-1.894531c0-4.140625-3.355469-7.5-7.5-7.5zm0 0"/><path d="m165.5 346.5c0 3.035156 1.828125 5.769531 4.628906 6.929688.929688.382812 1.902344.570312 2.867188.570312 1.953125 0 3.871094-.761719 5.308594-2.195312l60-60c2.929687-2.929688 2.929687-7.679688 0-10.609376-2.929688-2.925781-7.679688-2.925781-10.609376 0l-47.195312 47.199219v-1.894531c0-4.140625-3.355469-7.5-7.5-7.5s-7.5 3.359375-7.5 7.5zm0 0"/><path d="m263 54h140c4.144531 0 7.5-3.359375 7.5-7.5s-3.355469-7.5-7.5-7.5h-140c-4.144531 0-7.5 3.359375-7.5 7.5s3.355469 7.5 7.5 7.5zm0 0"/><path d="m263 84h140c4.144531 0 7.5-3.359375 7.5-7.5s-3.355469-7.5-7.5-7.5h-140c-4.144531 0-7.5 3.359375-7.5 7.5s3.355469 7.5 7.5 7.5zm0 0"/><path d="m263 114h89c4.144531 0 7.5-3.359375 7.5-7.5s-3.355469-7.5-7.5-7.5h-89c-4.144531 0-7.5 3.359375-7.5 7.5s3.355469 7.5 7.5 7.5zm0 0"/><path d="m165.5 226.5c0 4.140625 3.355469 7.5 7.5 7.5h60c4.144531 0 7.5-3.359375 7.5-7.5v-60c0-4.140625-3.355469-7.5-7.5-7.5h-60c-4.144531 0-7.5 3.359375-7.5 7.5zm48.105469-30 11.894531-11.894531v23.789062zm1.289062 22.5h-23.789062l11.894531-11.894531zm-11.894531-33.105469-11.894531-11.894531h23.789062zm-10.605469 10.605469-11.894531 11.894531v-23.789062zm0 0"/><path d="m263 174h140c4.144531 0 7.5-3.359375 7.5-7.5s-3.355469-7.5-7.5-7.5h-140c-4.144531 0-7.5 3.359375-7.5 7.5s3.355469 7.5 7.5 7.5zm0 0"/><path d="m263 204h120c4.144531 0 7.5-3.359375 7.5-7.5s-3.355469-7.5-7.5-7.5h-120c-4.144531 0-7.5 3.359375-7.5 7.5s3.355469 7.5 7.5 7.5zm0 0"/><path d="m263 294h140c4.144531 0 7.5-3.359375 7.5-7.5s-3.355469-7.5-7.5-7.5h-140c-4.144531 0-7.5 3.359375-7.5 7.5s3.355469 7.5 7.5 7.5zm0 0"/><path d="m263 324h140c4.144531 0 7.5-3.359375 7.5-7.5s-3.355469-7.5-7.5-7.5h-140c-4.144531 0-7.5 3.359375-7.5 7.5s3.355469 7.5 7.5 7.5zm0 0"/><path d="m263 354h59c4.144531 0 7.5-3.359375 7.5-7.5s-3.355469-7.5-7.5-7.5h-59c-4.144531 0-7.5 3.359375-7.5 7.5s3.355469 7.5 7.5 7.5zm0 0"/><path d="m165.5 466.5c0 4.140625 3.355469 7.5 7.5 7.5h60c4.144531 0 7.5-3.359375 7.5-7.5v-60c0-4.140625-3.355469-7.5-7.5-7.5h-60c-4.144531 0-7.5 3.359375-7.5 7.5zm15-52.5h45v45h-45zm0 0"/><path d="m263 414h140c4.144531 0 7.5-3.359375 7.5-7.5s-3.355469-7.5-7.5-7.5h-140c-4.144531 0-7.5 3.359375-7.5 7.5s3.355469 7.5 7.5 7.5zm0 0"/><path d="m263 444h140c4.144531 0 7.5-3.359375 7.5-7.5s-3.355469-7.5-7.5-7.5h-140c-4.144531 0-7.5 3.359375-7.5 7.5s3.355469 7.5 7.5 7.5zm0 0"/><path d="m263 474h111c4.144531 0 7.5-3.359375 7.5-7.5s-3.355469-7.5-7.5-7.5h-111c-4.144531 0-7.5 3.359375-7.5 7.5s3.355469 7.5 7.5 7.5zm0 0"/></g></svg>