<svg height="480pt" viewBox="0 0 480 480" width="480pt" xmlns="http://www.w3.org/2000/svg"><path d="m176 184c0 35.347656 28.652344 64 64 64s64-28.652344 64-64-28.652344-64-64-64c-35.328125.039062-63.960938 28.671875-64 64zm112 0c0 26.507812-21.492188 48-48 48s-48-21.492188-48-48 21.492188-48 48-48c26.5.027344 47.972656 21.5 48 48zm0 0"/><path d="m464 0h-144c-8.835938 0-16 7.164062-16 16v80c0 8.835938 7.164062 16 16 16h1.089844l-16 28c-1.785156 3.132812-1.257813 7.070312 1.292968 9.617188 2.546876 2.550781 6.484376 3.078124 9.617188 1.292968l66.71875-38.910156h81.28125c8.835938 0 16-7.164062 16-16v-80c0-8.835938-7.164062-16-16-16zm0 96h-83.441406c-1.40625.003906-2.785156.378906-4 1.089844l-42.742188 24.933594 8.007813-14.023438c1.429687-2.476562 1.429687-5.53125-.003907-8.007812-1.433593-2.476563-4.078124-3.996094-6.941406-3.992188h-14.878906v-80h144zm0 0"/><path d="m148 182.910156c3.132812 1.816406 7.09375 1.300782 9.660156-1.253906 2.5625-2.558594 3.089844-6.519531 1.285156-9.65625l-16-28h10.816407c3.449219-.019531 6.238281-2.820312 6.238281-6.273438v-75.832031c-.019531 1.050781.171875 2.089844.558594 3.066407 1.230468 3.03125 4.167968 5.019531 7.441406 5.039062 1.042969-.019531 2.074219-.238281 3.039062-.640625 14.222657-5.761719 29.113282-9.710937 44.320313-11.757813 8.171875-1.058593 16.402344-1.589843 24.640625-1.601562h6.160156c2.085938.066406 4.109375-.710938 5.617188-2.15625 1.503906-1.445312 2.363281-3.4375 2.382812-5.523438.101563-2.113281-.679687-4.171874-2.160156-5.679687-1.417969-1.566406-3.410156-2.488281-5.519531-2.5625-10.160157-.398437-22.082031.242187-33.039063-.078125h-.242187c-16.386719 3.664062-32.484375 8.53125-48.160157 14.558594-1.996093.773437-3.589843 2.335937-4.398437 4.320312-.398437.953125-.617187 1.96875-.640625 3v-23.605468c0-3.464844-2.808594-6.273438-6.273438-6.273438h-147.453124c-3.464844 0-6.273438 2.808594-6.273438 6.273438v99.453124c0 3.464844 2.808594 6.273438 6.273438 6.273438h75.007812zm-132-134.910156h128v80h-14.878906c-2.863282-.003906-5.507813 1.515625-6.941406 3.992188-1.433594 2.476562-1.433594 5.53125-.003907 8.007812l8.039063 14.046875-42.742188-24.933594c-1.214844-.710937-2.59375-1.085937-4-1.089843h-67.472656zm0 0"/><path d="m272 256h-64c-39.746094.046875-71.953125 32.253906-72 72v136c0 8.835938 7.164062 16 16 16h176c8.835938 0 16-7.164062 16-16v-136c-.046875-39.746094-32.253906-71.953125-72-72zm56 208h-176v-136c.035156-30.914062 25.085938-55.964844 56-56h64c30.914062.035156 55.964844 25.085938 56 56zm0 0"/><path d="m256 160h16v16h-16zm0 0"/><path d="m208 160h16v16h-16zm0 0"/><path d="m99.039062 358.238281c-6.582031-7.808593-12.496093-16.160156-17.679687-24.957031-2.304687-3.726562-7.121094-4.992188-10.960937-2.882812-3.789063 2.257812-5.070313 7.132812-2.878907 10.960937 14.199219 24.007813 33.210938 44.816406 55.839844 61.121094 3.601563 2.5625 8.597656 1.71875 11.160156-1.878907 2.5625-3.601562 1.722657-8.597656-1.878906-11.160156-12.445313-8.972656-23.734375-19.453125-33.601563-31.203125zm0 0"/><path d="m57.28125 177.28125c-4.238281-1.277344-8.71875 1.066406-10.082031 5.277344-3.292969 10.609375-5.703125 21.472656-7.199219 32.480468v.5625c-1.191406 8.746094-1.78125 17.570313-1.761719 26.398438-.011719 7.671875.417969 15.335938 1.28125 22.960938.488281 4.039062 3.929688 7.070312 8 7.039062h.878907c4.386718-.53125 7.523437-4.492188 7.042968-8.878906-.800781-7.011719-1.203125-14.0625-1.203125-21.121094 0-8.296875.558594-16.582031 1.683594-24.800781 1.363281-10.136719 3.558594-20.140625 6.558594-29.917969 1.308593-4.195312-1.015625-8.664062-5.199219-10zm0 0"/><path d="m408.078125 164.078125c4.230469 9.320313 7.65625 18.980469 10.242187 28.882813.945313 3.503906 4.128907 5.933593 7.757813 5.917968.675781 0 1.347656-.082031 2-.238281 4.261719-1.132813 6.800781-5.5 5.683594-9.761719-2.820313-10.746094-6.539063-21.238281-11.121094-31.359375-6.902344-15.183593-15.660156-29.453125-26.082031-42.480469-2.820313-3.355468-7.777344-3.917968-11.277344-1.277343-1.652344 1.328125-2.71875 3.253906-2.960938 5.359375-.226562 2.066406.378907 4.136718 1.679688 5.757812v.160156c9.65625 11.933594 17.75 25.054688 24.078125 39.039063zm0 0"/><path d="m430.878906 262.320312c-2.089844-.34375-4.234375.167969-5.945312 1.414063-1.714844 1.246094-2.855469 3.128906-3.171875 5.226563-3.996094 25.335937-13.292969 49.542968-27.28125 71.039062-2.410157 3.710938-1.351563 8.671875 2.359375 11.078125 3.710937 2.410156 8.671875 1.351563 11.082031-2.359375 6.039063-9.328125 11.28125-19.148438 15.679687-29.359375 6.671876-15.308594 11.351563-31.414063 13.917969-47.917969.671875-4.351562-2.292969-8.425781-6.640625-9.121094zm0 0"/><path d="m304 440h16v16h-16zm0 0"/><path d="m280 440h16v16h-16zm0 0"/><path d="m304 416h16v16h-16zm0 0"/><path d="m303.566406 309.398438c-5.613281-12.164063-17.375-20.335938-30.734375-21.359376-12.179687-.898437-24.152343 3.515626-32.832031 12.105469-8.660156-8.605469-20.628906-13.019531-32.800781-12.105469-13.359375 1.023438-25.117188 9.195313-30.734375 21.359376-7.519532 21.898437 19.800781 59.257812 59.65625 81.601562 2.429687 1.363281 5.394531 1.363281 7.824218 0 39.824219-22.34375 67.144532-59.703125 59.621094-81.601562zm-63.566406 65.378906c-35.65625-21.371094-51.679688-50.714844-48.433594-60.152344 3.628906-6.179688 10.082032-10.160156 17.234375-10.625.71875-.078125 1.441407-.113281 2.167969-.113281 8.953125.847656 17.121094 5.484375 22.4375 12.738281 1.515625 2.136719 3.976562 3.394531 6.59375 3.375 2.597656 0 5.035156-1.261719 6.535156-3.382812 5.691406-7.953126 14.886719-12.65625 24.664063-12.617188 7.167969.457031 13.636719 4.449219 17.265625 10.648438 3.214844 9.414062-12.808594 38.757812-48.464844 60.128906zm0 0"/><path d="m24 56h32v16h-32zm0 0"/><path d="m64 56h48v16h-48zm0 0"/><path d="m120 56h16v16h-16zm0 0"/><path d="m24 80h88v16h-88zm0 0"/><path d="m120 80h16v16h-16zm0 0"/><path d="m80 104h56v16h-56zm0 0"/><path d="m24 104h48v16h-48zm0 0"/><path d="m328 24h72v16h-72zm0 0"/><path d="m408 24h48v16h-48zm0 0"/><path d="m328 48h128v16h-128zm0 0"/><path d="m328 72h48v16h-48zm0 0"/><path d="m384 72h32v16h-32zm0 0"/><path d="m424 72h32v16h-32zm0 0"/><path d="m440 240c0 4.417969-3.582031 8-8 8s-8-3.582031-8-8 3.582031-8 8-8 8 3.582031 8 8zm0 0"/><path d="m376 384c0 4.417969-3.582031 8-8 8s-8-3.582031-8-8 3.582031-8 8-8 8 3.582031 8 8zm0 0"/><path d="m64 296c0 4.417969-3.582031 8-8 8s-8-3.582031-8-8 3.582031-8 8-8 8 3.582031 8 8zm0 0"/><path d="m296 48c0 4.417969-3.582031 8-8 8s-8-3.582031-8-8 3.582031-8 8-8 8 3.582031 8 8zm0 0"/></svg>