<svg height="448pt" viewBox="0 0 448 448" width="448pt" xmlns="http://www.w3.org/2000/svg"><path d="m176 168c0 26.507812 21.492188 48 48 48s48-21.492188 48-48-21.492188-48-48-48c-26.5.027344-47.972656 21.5-48 48zm32-8h-16v-16h16zm32-16h16v16h-16zm0 0"/><path d="m304 0v80h14.878906c2.863282-.003906 5.507813 1.515625 6.941406 3.992188 1.433594 2.476562 1.433594 5.53125.003907 8.007812l-8.039063 14.046875 42.742188-24.933594c1.214844-.710937 2.59375-1.085937 4-1.089843h83.472656v-80.023438zm8 8h72v16h-72zm48 64h-48v-16h48zm40 0h-32v-16h32zm40 0h-32v-16h32zm0-24h-128v-16h128zm0-24h-48v-16h48zm0 0"/><path d="m0 112h67.441406c1.40625.003906 2.785156.378906 4 1.089844l42.742188 24.933594-8.007813-14.023438c-1.429687-2.476562-1.429687-5.53125.003907-8.007812 1.433593-2.476563 4.078124-3.996094 6.941406-3.992188h14.878906v-80h-128zm120-8h-56v-16h56zm-16-64h16v16h-16zm0 24h16v16h-16zm-56-24h48v16h-48zm-40 0h32v16h-32zm0 24h88v16h-88zm0 24h48v16h-48zm0 0"/><path d="m256 256h-64c-30.914062.035156-55.964844 25.085938-56 56v136h176v-136c-.035156-30.914062-25.085938-55.964844-56-56zm-28.089844 118.984375c-2.429687 1.363281-5.390625 1.363281-7.820312 0-39.859375-22.328125-67.203125-59.6875-59.65625-81.601563 5.613281-12.164062 17.375-20.335937 30.734375-21.359374 12.183593-.921876 24.167969 3.503906 32.832031 12.121093 8.675781-8.582031 20.632812-12.992187 32.800781-12.105469 13.359375 1.023438 25.117188 9.195313 30.734375 21.359376 7.554688 21.898437-19.765625 59.257812-59.625 81.585937zm52.089844 65.015625h-16v-16h16zm24 0h-16v-16h16zm0-24h-16v-16h16zm0 0"/><path d="m255.199219 288c-9.769531-.019531-18.945313 4.691406-24.625 12.640625-1.511719 2.125-3.964844 3.378906-6.574219 3.359375-2.605469 0-5.046875-1.269531-6.542969-3.398438-5.3125-7.246093-13.460937-11.878906-22.402343-12.738281-.753907.003907-1.503907.050781-2.253907.136719-7.167969.457031-13.636719 4.449219-17.265625 10.648438-3.246094 9.441406 12.800782 38.785156 48.433594 60.152343 35.65625-21.367187 51.679688-50.710937 48.429688-60.152343-3.613282-6.179688-10.054688-10.167969-17.199219-10.648438zm0 0"/><path d="m83.039062 342.238281c-6.582031-7.808593-12.496093-16.160156-17.679687-24.957031-2.304687-3.726562-7.121094-4.992188-10.960937-2.882812-3.789063 2.257812-5.070313 7.132812-2.878907 10.960937 14.199219 24.007813 33.210938 44.816406 55.839844 61.121094 3.601563 2.5625 8.597656 1.71875 11.160156-1.878907 2.5625-3.601562 1.722657-8.597656-1.878906-11.160156-12.445313-8.972656-23.734375-19.453125-33.601563-31.203125zm0 0"/><path d="m39.441406 247.121094c-.800781-7.011719-1.203125-14.0625-1.203125-21.121094 0-8.296875.558594-16.582031 1.683594-24.800781 1.363281-10.136719 3.558594-20.140625 6.558594-29.917969 1.308593-4.195312-1.015625-8.664062-5.199219-10-4.238281-1.277344-8.71875 1.066406-10.082031 5.277344-3.292969 10.609375-5.703125 21.472656-7.199219 32.480468v.5625c-1.191406 8.746094-1.78125 17.570313-1.761719 26.398438-.011719 7.671875.417969 15.335938 1.28125 22.960938.488281 4.039062 3.929688 7.070312 8 7.039062h.878907c4.386718-.53125 7.523437-4.492188 7.042968-8.878906zm0 0"/><path d="m392.078125 148.078125c4.230469 9.320313 7.65625 18.980469 10.242187 28.882813.945313 3.503906 4.128907 5.933593 7.757813 5.917968.675781 0 1.347656-.082031 2-.238281 4.261719-1.132813 6.800781-5.5 5.683594-9.761719-2.820313-10.746094-6.539063-21.238281-11.121094-31.359375-6.902344-15.183593-15.660156-29.453125-26.082031-42.480469-2.820313-3.355468-7.777344-3.917968-11.277344-1.277343-1.652344 1.328125-2.71875 3.253906-2.960938 5.359375-.226562 2.066406.378907 4.136718 1.679688 5.757812v.160156c9.65625 11.933594 17.75 25.054688 24.078125 39.039063zm0 0"/><path d="m414.878906 246.320312c-2.089844-.34375-4.234375.167969-5.945312 1.414063-1.714844 1.246094-2.855469 3.128906-3.171875 5.226563-3.996094 25.335937-13.292969 49.542968-27.28125 71.039062-2.410157 3.710938-1.351563 8.671875 2.359375 11.078125 3.710937 2.410156 8.671875 1.351563 11.082031-2.359375 6.039063-9.328125 11.28125-19.148438 15.679687-29.359375 6.671876-15.308594 11.351563-31.414063 13.917969-47.917969.671875-4.351562-2.292969-8.425781-6.640625-9.121094zm0 0"/><path d="m424 224c0 4.417969-3.582031 8-8 8s-8-3.582031-8-8 3.582031-8 8-8 8 3.582031 8 8zm0 0"/><path d="m360 368c0 4.417969-3.582031 8-8 8s-8-3.582031-8-8 3.582031-8 8-8 8 3.582031 8 8zm0 0"/><path d="m48 280c0 4.417969-3.582031 8-8 8s-8-3.582031-8-8 3.582031-8 8-8 8 3.582031 8 8zm0 0"/><path d="m275.28125 47.28125c.734375.160156 1.484375.242188 2.238281.238281 3.980469 0 7.355469-2.925781 7.921875-6.867187.5625-3.941406-1.859375-7.699219-5.679687-8.8125-4.265625-1.238282-8.722657 1.214844-9.960938 5.480468-1.238281 4.261719 1.214844 8.722657 5.480469 9.960938zm0 0"/><path d="m152 54c1.042969-.019531 2.074219-.238281 3.039062-.640625 14.222657-5.761719 29.113282-9.710937 44.320313-11.757813 8.171875-1.058593 16.402344-1.589843 24.640625-1.601562 1.839844 0 3.839844 0 5.921875.078125h.238281c2.089844.035156 4.109375-.761719 5.609375-2.21875s2.359375-3.449219 2.390625-5.539063c.101563-2.113281-.679687-4.171874-2.160156-5.679687-1.417969-1.566406-3.410156-2.488281-5.519531-2.5625-11.042969-.335937-22.089844.226563-33.039063 1.683594h-.242187c-16.523438 2.242187-32.703125 6.542969-48.160157 12.796875-1.996093.773437-3.589843 2.335937-4.398437 4.320312-.828125 1.9375-.855469 4.121094-.082031 6.082032 1.230468 3.03125 4.167968 5.019531 7.441406 5.039062zm0 0"/></svg>