<svg height="511pt" viewBox="1 -68 511.999 511" width="511pt" xmlns="http://www.w3.org/2000/svg">
    <path d="m475.09375 131.96875h-186.566406v-38.996094c0-4.140625-3.359375-7.5-7.5-7.5-4.144532 0-7.5 3.359375-7.5 7.5v68.445313c0 12.015625-9.777344 21.792969-21.792969 21.792969h-135.285156c-4.921875 0-9.550781 1.914062-13.027344 5.394531l-30.207031 30.207031v-17.175781c0-10.160157-8.265625-18.429688-18.429688-18.429688h-17.992187c-12.015625 0-21.792969-9.773437-21.792969-21.792969v-124.121093c0-12.015625 9.777344-21.792969 21.792969-21.792969h214.941406c12.015625 0 21.792969 9.777344 21.792969 21.792969v20.679687c0 4.144532 3.355468 7.5 7.5 7.5 4.140625 0 7.5-3.355468 7.5-7.5v-20.679687c0-20.289063-16.507813-36.792969-36.792969-36.792969h-214.941406c-20.289063 0-36.792969 16.503906-36.792969 36.792969v124.125c0 20.285156 16.503906 36.792969 36.792969 36.792969h17.992187c1.890625 0 3.429688 1.535156 3.429688 3.425781v35.28125c0 6.660156 8.085937 10.023437 12.804687 5.304687 46.648438-46.648437 43.402344-44.011718 45.429688-44.011718h105.96875v95.265624c0 20.351563 16.558593 36.90625 36.90625 36.90625h59.460937c4.140625 0 7.5-3.355468 7.5-7.5 0-4.144531-3.359375-7.5-7.5-7.5h-59.460937c-12.078125 0-21.90625-9.828124-21.90625-21.90625v-95.265624h14.316406c20.285156 0 36.792969-16.507813 36.792969-36.792969v-14.449219h186.566406c12.078125 0 21.90625 9.828125 21.90625 21.90625v124.601562c0 12.078126-9.828125 21.90625-21.90625 21.90625h-17.878906c-10.164063 0-18.429688 8.265626-18.429688 18.429688v17.171875l-30.207031-30.203125c-3.476563-3.480469-8.105469-5.398438-13.027344-5.398438h-41.765625c-4.144531 0-7.5 3.359376-7.5 7.5 0 4.144532 3.355469 7.5 7.5 7.5 45.199219 0 42.753906-.429687 44.1875 1.003907l43.007813 43.011719c4.699219 4.695312 12.804687 1.363281 12.804687-5.304688v-35.28125c0-1.890625 1.535156-3.429688 3.425782-3.429688h17.882812c20.347656 0 36.90625-16.554687 36.90625-36.90625v-124.601562c0-20.351562-16.554688-36.90625-36.90625-36.90625zm0 0" />
    <path d="m183.175781 58.714844h-18.117187c-10.042969 0-18.210938 8.167968-18.210938 18.210937s8.167969 18.210938 18.210938 18.210938h43.886718c1.769532 0 3.210938 1.441406 3.210938 3.214843v1.074219c0 4.144531 3.359375 7.5 7.5 7.5 4.144531 0 7.5-3.355469 7.5-7.5 0-12.335937-9.039062-19.289062-18.210938-19.289062h-43.886718c-1.769532 0-3.210938-1.4375-3.210938-3.210938 0-1.769531 1.441406-3.210937 3.210938-3.210937h18.117187c9.851563 0 17.867188-8.015625 17.867188-17.871094 0-9.851562-8.015625-17.867188-17.867188-17.867188h-9.390625c-4.140625 0-7.5 3.359376-7.5 7.5 0 4.144532 3.359375 7.5 7.5 7.5h9.390625c1.582031 0 2.867188 1.289063 2.867188 2.867188 0 1.582031-1.285157 2.871094-2.867188 2.871094zm0 0" />
    <path d="m168.066406 136.730469c-4.140625 0-7.5 3.359375-7.5 7.5 0 4.144531 3.359375 7.5 7.5 7.5 41.875 0 39.9375.316406 42.273438-.800781h17.496094c4.683593 0 8.492187-3.808594 8.492187-8.492188v-23.757812c0-4.683594-3.808594-8.492188-8.492187-8.492188h-17.496094c-2.539063-1.214844 8.503906-.800781-149-.800781-5.039063 0-9.140625 4.097656-9.140625 9.140625v24.066406c0 5.039062 4.101562 9.136719 9.140625 9.136719h71.726562c4.144532 0 7.5-3.355469 7.5-7.5 0-4.140625-3.355468-7.5-7.5-7.5h-19.355468v-12.34375h86.273437v12.34375zm-69.355468 0h-31.511719v-12.34375h31.511719zm122.617187-.800781h-6.339844v-10.742188h6.339844zm0 0" />
    <path d="m435.65625 231.175781c0-37.742187-30.707031-68.449219-68.445312-68.449219-37.742188 0-68.449219 30.707032-68.449219 68.449219 0 37.742188 30.707031 68.445313 68.449219 68.445313 37.738281 0 68.445312-30.703125 68.445312-68.445313zm-121.894531 0c0-29.472656 23.976562-53.449219 53.449219-53.449219 29.46875 0 53.445312 23.980469 53.445312 53.449219s-23.976562 53.445313-53.445312 53.445313c-29.472657 0-53.449219-23.976563-53.449219-53.445313zm0 0" />
    <path d="m384.941406 193.394531c-5.582031-2.621093-11.546875-3.953125-17.730468-3.953125-30.476563 0-50.769532 31.835938-37.78125 59.464844 2.203124 4.691406 8.414062 5.789062 12.089843 2.113281l45.535157-45.535156c3.675781-3.675781 2.578124-9.886719-2.113282-12.089844zm-44.460937 37.453125c.171875-14.480468 11.921875-26.226562 26.402343-26.402344zm0 0" />
    <path d="m408.941406 231.175781c0-6.1875-1.328125-12.152343-3.953125-17.730469-2.214843-4.710937-8.429687-5.773437-12.089843-2.113281l-45.535157 45.53125c-3.675781 3.675781-2.582031 9.886719 2.113281 12.09375 27.671876 13.003907 59.464844-7.34375 59.464844-37.78125zm-15 .328125c-.175781 14.480469-11.921875 26.226563-26.40625 26.402344zm0 0" />
</svg>