<?xml version="1.0" encoding="iso-8859-1"?>
<!-- Generator: Adobe Illustrator 19.0.0, SVG Export Plug-In . SVG Version: 6.00 Build 0)  -->
<svg version="1.1" id="Capa_1" xmlns="http://www.w3.org/2000/svg" xmlns:xlink="http://www.w3.org/1999/xlink" x="0px" y="0px"
	 viewBox="0 0 512 512" style="enable-background:new 0 0 512 512;" xml:space="preserve">
<g>
	<g>
		<path d="M360.534,40H102.266c-5.523,0-10,4.478-10,10v411c0,5.522,4.477,10,10,10h258.268c5.523,0,10-4.478,10-10V50
			C370.534,44.478,366.057,40,360.534,40z M350.534,451H112.266V60h238.268V451z"/>
	</g>
</g>
<g>
	<g>
		<path d="M331.16,365.05c-0.13-0.64-0.32-1.27-0.57-1.88c-0.25-0.601-0.56-1.18-0.92-1.72c-0.36-0.551-0.78-1.061-1.24-1.521
			c-2.32-2.32-5.78-3.39-9.03-2.74c-0.64,0.13-1.27,0.33-1.87,0.58c-0.6,0.25-1.18,0.55-1.72,0.92c-0.55,0.36-1.06,0.78-1.52,1.24
			c-0.46,0.46-0.88,0.97-1.25,1.521c-0.36,0.54-0.67,1.119-0.92,1.72c-0.25,0.61-0.44,1.24-0.57,1.88s-0.19,1.3-0.19,1.95
			c0,0.649,0.06,1.31,0.19,1.95c0.13,0.64,0.32,1.27,0.57,1.869c0.25,0.61,0.56,1.19,0.92,1.73c0.37,0.55,0.79,1.06,1.25,1.52
			c1.86,1.86,4.43,2.931,7.07,2.931c2.63,0,5.21-1.07,7.07-2.931c0.46-0.46,0.88-0.97,1.24-1.52c0.36-0.54,0.67-1.12,0.92-1.73
			c0.25-0.6,0.44-1.229,0.57-1.869c0.13-0.641,0.2-1.301,0.2-1.95C331.36,366.35,331.29,365.69,331.16,365.05z"/>
	</g>
</g>
<g>
	<g>
		<path d="M286.856,357H141.443c-5.523,0-10,4.478-10,10c0,5.522,4.477,10,10,10h145.413c5.523,0,10-4.478,10-10
			C296.856,361.478,292.379,357,286.856,357z"/>
	</g>
</g>
<g>
	<g>
		<path d="M293.9,168.275h-28.5v-28.5c0-5.523-4.477-10-10-10h-48c-5.523,0-10,4.477-10,10v28.5h-28.5c-5.523,0-10,4.477-10,10v48
			c0,5.523,4.477,10,10,10h28.5v28.5c0,5.523,4.477,10,10,10h48c5.523,0,10-4.477,10-10v-28.5h28.5c5.523,0,10-4.478,10-10v-48
			C303.9,172.752,299.423,168.275,293.9,168.275z M283.9,216.275h-28.5c-5.523,0-10,4.477-10,10v28.5h-28v-28.5
			c0-5.523-4.477-10-10-10h-28.5v-28h28.5c5.523,0,10-4.478,10-10v-28.5h28v28.5c0,5.522,4.477,10,10,10h28.5V216.275z"/>
	</g>
</g>
<g>
	<g>
		<path d="M285.817,318.788H176.983c-5.523,0-10,4.478-10,10c0,5.522,4.477,10,10,10h108.833c5.523,0,10-4.478,10-10
			C295.817,323.266,291.34,318.788,285.817,318.788z"/>
	</g>
</g>
<g>
	<g>
		<path d="M459.734,26L459.734,26c-0.001-14.337-11.665-26-26.001-26h-33.2H62.267c-5.523,0-10,4.477-10,10v492
			c0,5.522,4.477,10,10,10h338.267c5.523,0,10-4.478,10-10V374.667h23.2c14.336,0,26-11.663,26-26V292c0-6.031-2.07-11.585-5.529-16
			c3.459-4.415,5.529-9.969,5.529-16v-56.667c0-6.031-2.07-11.584-5.529-16c3.459-4.415,5.529-9.969,5.529-16v-56.666
			c0-6.031-2.07-11.585-5.529-16c3.459-4.415,5.529-9.969,5.529-16V26z M390.534,492H72.267V20h318.267V492z M439.733,348.667
			c0,3.309-2.691,6-6,6h-23.2V286h23.2c3.309,0,6,2.691,6,6V348.667z M439.733,260c0,3.309-2.691,6-6,6h-23.2v-68.667h23.2
			c3.309,0,6,2.691,6,6V260z M439.733,171.333c0,3.309-2.691,6-6,6h-23.2v-68.666h23.2c3.309,0,6,2.691,6,6V171.333z
			 M439.733,82.667c0,3.309-2.691,6-6,6h-23.2V20h23.2c3.309,0,6,2.691,6,6V82.667z"/>
	</g>
</g>
<g>
</g>
<g>
</g>
<g>
</g>
<g>
</g>
<g>
</g>
<g>
</g>
<g>
</g>
<g>
</g>
<g>
</g>
<g>
</g>
<g>
</g>
<g>
</g>
<g>
</g>
<g>
</g>
<g>
</g>
</svg>
