<svg id="Layer_1" enable-background="new 0 0 512 512" height="512" viewBox="0 0 512 512" width="512" xmlns="http://www.w3.org/2000/svg"><g><g><path d="m256 8.215c-137.243 0-248.5 110.937-248.5 247.784 0 56.629 19.053 108.82 51.114 150.55 1.115 1.451 1.504 3.331 1.029 5.098l-14.754 54.905c-1.169 4.352 2.81 8.337 7.164 7.174l57.059-15.245c1.669-.446 3.443-.122 4.861.865 40.257 28.008 89.217 44.438 142.027 44.438 137.243 0 248.5-110.937 248.5-247.785s-111.257-247.784-248.5-247.784z" fill="#fff6db"/><g><path d="m256 8.215c-5.038 0-10.036.167-15 .462 130.256 7.735 233.5 115.498 233.5 247.322 0 131.865-103.307 239.654-233.62 247.33 5.002.299 10.043.455 15.12.455 137.243 0 248.5-110.937 248.5-247.785s-111.257-247.784-248.5-247.784z" fill="#ffeebd"/></g><path d="m398.79 206.575h-93.223v-92.955h-99.134v92.955h-93.223v98.849h93.223v92.955h99.134v-92.955h93.223z" fill="#ff5e57"/><g fill="#f7372f"><path d="m275.567 113.62h30v92.955h-30z"/><path d="m368.79 206.575h30v98.849h-30z"/><path d="m275.567 305.424h30v92.955h-30z"/></g></g><g fill="#060606"><path d="m256 511.285c-52.42 0-102.782-15.681-145.699-45.359l-56.312 15.047c-4.665 1.244-9.487-.051-12.896-3.467-3.411-3.416-4.699-8.238-3.447-12.899l14.542-54.113c-34.146-44.72-52.188-98.124-52.188-154.494 0-68.896 27.118-133.48 76.357-181.854 2.955-2.9 7.704-2.86 10.606.095 2.903 2.955 2.861 7.703-.094 10.606-46.346 45.529-71.869 106.313-71.869 171.153 0 53.299 17.138 103.778 49.561 145.98 2.526 3.288 3.395 7.629 2.326 11.612l-14.015 52.151 54.304-14.51c3.801-1.012 7.837-.301 11.08 1.954 40.523 28.194 88.154 43.097 137.745 43.097 64.377 0 124.9-24.997 170.42-70.386 45.514-45.382 70.579-105.72 70.579-169.898s-25.065-124.517-70.58-169.9c-45.519-45.388-106.043-70.385-170.42-70.385-50.433 0-98.726 15.366-139.66 44.438-3.378 2.396-8.059 1.604-10.458-1.772s-1.605-8.06 1.772-10.458c43.486-30.883 94.784-47.208 148.346-47.208 68.376 0 132.661 26.552 181.012 74.764 48.357 48.217 74.988 112.327 74.988 180.521s-26.631 132.304-74.988 180.521c-48.351 48.212-112.636 74.764-181.012 74.764z"/><path d="m305.567 405.878h-99.135c-4.142 0-7.5-3.357-7.5-7.5v-85.454h-85.723c-4.142 0-7.5-3.357-7.5-7.5v-98.85c0-4.143 3.358-7.5 7.5-7.5h85.723v-85.454c0-4.143 3.358-7.5 7.5-7.5h99.135c4.142 0 7.5 3.357 7.5 7.5v85.454h85.723c4.142 0 7.5 3.357 7.5 7.5v98.85c0 4.143-3.358 7.5-7.5 7.5h-85.723v20.104c0 4.143-3.358 7.5-7.5 7.5s-7.5-3.357-7.5-7.5v-27.604c0-4.143 3.358-7.5 7.5-7.5h85.723v-83.85h-85.723c-4.142 0-7.5-3.357-7.5-7.5v-85.454h-84.135v85.454c0 4.143-3.358 7.5-7.5 7.5h-85.723v83.85h85.723c4.142 0 7.5 3.357 7.5 7.5v85.454h84.135v-17.895c0-4.143 3.358-7.5 7.5-7.5s7.5 3.357 7.5 7.5v25.395c0 4.143-3.358 7.5-7.5 7.5z"/></g></g></svg>