<?xml version="1.0" encoding="iso-8859-1"?>
<!-- Generator: Adobe Illustrator 15.0.2, SVG Export Plug-In . SVG Version: 6.00 Build 0)  -->
<!DOCTYPE svg PUBLIC "-//W3C//DTD SVG 1.1//EN" "http://www.w3.org/Graphics/SVG/1.1/DTD/svg11.dtd">
<svg version="1.1" id="Layer_1" xmlns="http://www.w3.org/2000/svg" xmlns:xlink="http://www.w3.org/1999/xlink" x="0px" y="0px"
     width="181px" height="41px" viewBox="0 0 181 41" style="enable-background:new 0 0 181 41;" xml:space="preserve">
    <path style="fill:#fff;" d="M1,40v-7.658l2-0.205V9.931l-2-0.2V2.07c5.156-0.459,11.606-0.664,16.045-0.664
        C27.512,1.406,36,3.295,36,14.271v0.458c0,11.134-8.354,13.07-17.44,13.07c-1.277,0-2.56,0-3.56-0.051v4.389l2,0.205V40H1z
         M25,14.271c0-3.675-2.191-4.389-6.583-4.389c-1.123,0-2.417,0-3.417,0.049v9.294c1,0,2.294,0.05,3.469,0.05
        c4.34,0,6.531-1.022,6.531-4.546V14.271z"/>
    <polygon style="fill:#fff;" points="80,2 80,9.729 78,9.931 78,32.137 80,32.342 80,40 64,40 64,32.342 66,32.137 66,25 54,25
        54,32.137 56,32.342 56,40 40,40 40,32.342 42,32.137 42,9.931 40,9.729 40,2 56,2 56,9.729 54,9.931 54,16 66,16 66,9.931
        64,9.729 64,2 "/>
    <polygon style="fill:#fff;" points="86,40 86,32.342 88,32.137 88,9.931 86,9.727 86,2 102,2 102,9.727 100,9.931 100,32.137
        102,32.342 102,40 "/>
    <path style="fill:#fff;" d="M143.513,9.931L135.818,40H117.08l-7.671-30.069L107,9.675V2h16v7.626l-1.607,0.152l3.713,16.985
        c0.461,2.146,0.959,5.236,1.268,7.236h0.102c0.359-3,0.764-5.09,1.227-7.236l3.877-16.864L130,9.626V2h16v7.675L143.513,9.931z"/>
    <polygon style="fill:#fff;" points="150,40 150,32.371 152,32.116 152,9.909 150,9.656 150,2 180,2 180,12 172.869,12 172.41,10
        164,10 164,17 172,17 172,25 164,25 164,32 172.41,32 172.869,30 180,30 180,40 "/>
</svg>
