<svg xmlns="http://www.w3.org/2000/svg" xmlns:xlink="http://www.w3.org/1999/xlink" version="1.1" id="Layer_1" x="0" y="0" width="181" height="41" viewBox="0 0 181 41" xml:space="preserve" enable-background="new 0 0 181 41"><path d="M1 40v-7.66l2-0.2V9.93l-2-0.2V2.07c5.16-0.46 11.61-0.66 16.05-0.66C27.51 1.41 36 3.3 36 14.27v0.46c0 11.13-8.35 13.07-17.44 13.07 -1.28 0-2.56 0-3.56-0.05v4.39l2 0.21V40H1zM25 14.27c0-3.67-2.19-4.39-6.58-4.39 -1.12 0-2.42 0-3.42 0.05v9.29c1 0 2.29 0.05 3.47 0.05 4.34 0 6.53-1.02 6.53-4.55V14.27z"/></svg>