<?xml version="1.0" encoding="iso-8859-1"?>
<!-- Generator: Adobe Illustrator 15.0.2, SVG Export Plug-In . SVG Version: 6.00 Build 0)  -->
<!DOCTYPE svg PUBLIC "-//W3C//DTD SVG 1.1//EN" "http://www.w3.org/Graphics/SVG/1.1/DTD/svg11.dtd">
<svg version="1.1" id="Layer_1" xmlns="http://www.w3.org/2000/svg" xmlns:xlink="http://www.w3.org/1999/xlink" x="0px" y="0px"
	 width="181px" height="41px" viewBox="0 0 181 41" style="enable-background:new 0 0 181 41;" xml:space="preserve">
<path style="fill:#fff;" d="M1,40v-7.658l2-0.205V9.931l-2-0.2V2.07c5.156-0.459,11.606-0.664,16.045-0.664
	C27.512,1.406,36,3.295,36,14.271v0.458c0,11.134-8.354,13.07-17.44,13.07c-1.277,0-2.56,0-3.56-0.051v4.389l2,0.205V40H1z
	 M25,14.271c0-3.675-2.191-4.389-6.583-4.389c-1.123,0-2.417,0-3.417,0.049v9.294c1,0,2.294,0.05,3.469,0.05
	c4.34,0,6.531-1.022,6.531-4.546V14.271z"/>

</svg>
