<?xml version="1.0" encoding="iso-8859-1"?>
<!DOCTYPE svg PUBLIC "-//W3C//DTD SVG 1.1//EN" "http://www.w3.org/Graphics/SVG/1.1/DTD/svg11.dtd">
<svg version="1.1" id="Layer_1" xmlns="http://www.w3.org/2000/svg" xmlns:xlink="http://www.w3.org/1999/xlink" x="0px" y="0px" width="181px" height="41px" viewBox="0 0 181 41"  xml:space="preserve">
<path style="fill:#fff" d="M1,40v-7.658l2.246-0.205V9.931L1,9.73V2.07c5.156-0.459,11.641-0.664,16.079-0.664
    c10.466,0,18.989,1.889,18.989,12.864v0.458c0,11.134-8.522,13.07-17.609,13.07c-1.277,0-2.197,0-3.728-0.051v4.389l2.758,0.205V40
    H1z M24.533,14.271c0-3.675-2.092-4.389-6.484-4.389c-1.124,0-2.398,0-3.318,0.049v9.294c0.97,0,2.195,0.05,3.37,0.05
    c4.34,0,6.433-1.022,6.433-4.546V14.271z"/>
<polygon style="fill:#fff" points="80.451,2.07 80.451,9.729 78.256,9.931 78.256,32.137 80.451,32.342 80.451,39.998
    64.014,39.998 64.014,32.342 66.261,32.137 66.261,24.89 54.314,24.89 54.314,32.137 56.561,32.342 56.561,39.998 40.073,39.998
    40.073,32.342 42.319,32.137 42.319,9.931 40.073,9.729 40.073,2.07 56.561,2.07 56.561,9.729 54.314,9.931 54.314,16.262
    66.261,16.262 66.261,9.931 64.014,9.729 64.014,2.07 "/>
<polygon style="fill:#fff" points="86.062,40 86.062,32.342 88.309,32.137 88.309,9.931 86.062,9.727 86.062,2.071
    102.553,2.071 102.553,9.727 100.305,9.931 100.305,32.137 102.553,32.342 102.553,40 "/>
<path style="fill:#fff" d="M143.475,9.931L135.818,40H117.08l-7.658-30.069l-2.396-0.256V2.07h16.334v7.556l-1.787,0.152
    l3.623,16.743c0.461,2.146,0.869,5.001,1.178,6.995h0.102c0.359-2.042,0.764-4.849,1.227-6.995l3.672-16.743l-1.783-0.152V2.07
    h16.334v7.604L143.475,9.931z"/>
<polygon style="fill:#fff" points="150,39.979 150,32.371 152.143,32.116 152.143,9.909 150,9.656 150,2.051 179.709,2.051
    179.709,12.158 172.869,12.158 172.41,10.216 164.141,10.216 164.141,16.804 172.473,16.804 172.473,24.51 164.141,24.51
    164.141,31.812 172.41,31.812 172.869,29.77 179.709,29.77 179.709,39.979 "/>
</svg>
