<?xml version="1.0" encoding="utf-8"?>
<!-- Generator: Adobe Illustrator 24.0.1, SVG Export Plug-In . SVG Version: 6.00 Build 0)  -->
<svg version="1.1" id="Layer_1" xmlns="http://www.w3.org/2000/svg" xmlns:xlink="http://www.w3.org/1999/xlink" x="0px" y="0px"
	 viewBox="0 0 1110 823" style="enable-background:new 0 0 1110 823;" xml:space="preserve">
<style type="text/css">
	.st0{fill:#A6CE38;}
	.st1{fill:#659A39;}
	.st2{fill:#378C3B;}
	.st3{font-family:'SamsungSharpSans-Bold';}
	.st4{font-size:71.8045px;}
	.st5{font-family:'ProductSans-Regular';}
	.st6{font-size:55.3709px;}
</style>
<g>
	<path class="st0" d="M554.7,169.1c3.1-4.8,7.1-8.9,10.9-13.2c8.4,3.7,16.8,7.5,25.2,11.2c-13,6.3-23.3,17.4-30.4,29.8
		c-5.8,10.2-9.3,21.6-11.3,33.1c13.5-6.2,27.5-11.5,41.7-15.8c-5.6,6.6-4.9,16.1-1.6,23.6c-2.5,4.2-6.1,8.6-11.3,9.2
		c-5.5-0.2-11.1-0.5-16.4,1.3c-7.9,2.7-15.5,6.3-23.2,9.5c-8.7,3.9-17.7,7.4-26.1,11.9c-4.4,2.4-8.9,5-12.4,8.8
		c-1,1.1-1.7,2.4-1.7,3.9c-0.1,5.9,1.9,11.6,3.8,17.1c4.1,12.8,10,24.9,16.3,36.7c3.5,6.8,7.2,14.2,6.3,22.1
		c-1.6,6.8-5,13.2-6.1,20.1c-0.4,3.5-0.3,7.1-2,10.3c-3.8,7.3-7.9,14.5-11.4,21.9c-3.4,7.2-4.9,15.1-7.2,22.7
		c-1.4,4.6-4.2,9.4-9.2,10.6c-5.8,1.3-11.7,1.6-17.3,3.8c-10.9,3.9-21.6,8.5-32.2,13.2c-3.3,1.3-5.9,3.9-9.2,5.3
		c-7.3,1.7-13.8-3.1-20.9-3.5c-3.1-0.2-6.1,1.4-7.6,4c-2.6,4.4-3.5,9.7-3.7,14.7c-15.5-26.5-29-54.3-37.5-83.9
		c-6.3-21.7-10.2-44.3-9.9-67c0.2-31.7,8.7-64.1,28.2-89.6c10.9-13.8,24.9-26.1,42-31.1c17.7-5.2,36.5-4.4,54.5-1.3
		c21.7,4,42.7,10.9,62.8,19.9C537.3,207.6,542.5,186.2,554.7,169.1z"/>
	<path class="st0" d="M531.6,291.1c6-5.3,14.4-6.4,22.1-7.2c-0.2,6.3-1.4,12.8,0.5,19c3.8,9.8,1.8,20.4,1,30.5
		c-3.6,3-6.7,6.6-10.6,9.1c-1.4,0.9-3,0.4-4.5,0.3c-0.8-4.6-4.2-8.2-4.9-12.8c-2-9.6-3.2-19.4-5.5-29
		C528.8,297.7,528.8,293.6,531.6,291.1z"/>
</g>
<g>
	<path class="st1" d="M422.4,67c5.9,9.3,13.7,17.6,23.6,22.5c19.3,9.2,39.4,18,55,33c12.5,11.8,20.7,28,22.4,45.2
		c0.7,5.4,0.5,10.9,0.4,16.4c-15.3-5.6-27.8-16.6-39.6-27.5c-7.5-7.5-15-15-22.1-23c4.1,8.5,9.6,16.1,15.3,23.6
		c8.5,10.5,19.1,19,29.1,28c8,7.2,16.1,14.2,24.3,21.2c-16.4-3.9-32.7-8.6-48.1-15.5c-14-6.3-27.8-14.2-37.7-26.3
		c-12.3-14.6-18.8-33.3-21.7-51.9C421.1,97.5,420.8,82.1,422.4,67z"/>
</g>
<g>
	<path class="st2" d="M615.6,208.6c21-3.7,43.7-4.1,63.5,4.9c14.4,7,26.2,18.5,35.4,31.4c17.3,24.6,24.9,54.8,25.3,84.6
		c0.5,42.5-12.4,84-31,121.7c-13.2,26.5-28.7,52.1-47.9,74.7c-2.4-2.7-5.9-5.3-5.6-9.3c-0.2-14,3.6-27.7,6.5-41.3
		c2.6-10.3,6.8-20.8,4.5-31.6c-1.1-6.6-4.2-12.9-8.9-17.7c-12-13-23.6-26.3-36.2-38.8c-8.2-7.8-16.7-15.6-27-20.6
		c4.2-11,8.2-22.3,15-32.1c4.2-5.8,6.8-12.9,6.6-20.1c5.2,5.3,10.5,10.6,16.7,14.8c6.4,4.4,15.6,3.1,21.3-2c3.4-3,5.1-7.3,6-11.6
		c1.9-6.9,2.1-14.1,4.3-20.9c1.1-4.1,6.2-5.1,7.5-9.1c1.1-3.5-3.2-4.6-5.1-6.4c-3.3-3.1-8-3.5-12.2-4.5c-3.4-1.1-5.2,2.5-7.1,4.4
		c-1.2,0.5-3.3,0.5-3.2,2.4c-0.5,7.5,3.1,15.1,0.3,22.4c-8-2.1-10.2-11.2-13.8-17.6c-3.4-6.7-7.1-13.3-11.7-19.2
		c-2.1-2.7-5.6-3.5-8.6-4.7c1-2.1,1.4-5.1,4.2-5.5c4.6-1.4,8.9,1.1,13.2,2.4c3.3,0.6,4-3.2,4.1-5.6c0.6-1,1.2-1.9,1.8-2.9
		c-0.3-0.5-0.9-1.5-1.2-2c0.9-0.6,1.8-1.2,2.7-1.8c-0.3-0.9-0.8-2.6-1.1-3.5c1.1-1,2.3-2,3.4-2.9c-2-2.7-4.2-5.3-6.2-7.9
		c0.4-2,1.3-4,0.6-6c-0.8-2.3-2.2-4.2-2.9-6.5c-0.7-2.6-0.3-5.4-1.2-7.9C623.7,210.2,619.6,209.6,615.6,208.6z"/>
	<path class="st2" d="M548.8,422.4c3.7-6.1,6.5-12.6,9-19.2c15.6,8.9,31,18.1,46.8,26.8c9.9,5.5,19.8,11.2,30.1,15.9
		c2.3,0.8,3.9,3.1,3.5,5.6c-1.6,2.9-4,5.4-4.4,8.8c-1.9,12.7-2,25.6-0.4,38.3c0.8,6.4,2.3,13.3-1.1,19.2c-2,4.4-6.1,7.2-8.7,11.2
		c-2.7,4.5,0.1,10.3,4.5,12.5c4.2,2,8.9,2.6,13.4,4c-11.1,9.4-23.9,17.4-38.3,20.3c-7.4,1.5-15.2,1.6-22.3-1.1
		c-5.1-1.8-8.3-6.4-12.8-9.2c-7.7-5.6-17.3-9.5-27-8.3c-9.5,1-17.7,6.5-24.6,12.8c-2.5,2.4-5.6,4.3-9.1,4.9
		c-13.9,3.2-28.2-1.6-40.3-8.2c-23.3-13.2-41-34-56.4-55.5c4.4-5.2,10.1-9.4,16.6-11.4c17.7-5.8,35.3-11.8,53.3-16.6
		c7.9-2.2,16.3-2.3,24-5.1c6-2.1,11.4-5.8,15.5-10.6C529.8,445.9,541.1,435.5,548.8,422.4z"/>
</g>
<text transform="matrix(0.9734 0 0 1 243.3207 663.9136)" class="st2 st3 st4">Nutrition La Sante’</text>
<text transform="matrix(0.9896 0 0 1 287.9497 741.443)" class="st0 st5 st6">You Are What You Eat.</text>
</svg>
