<svg xmlns="http://www.w3.org/2000/svg" width="381.237" height="466.629" viewBox="0 0 381.237 466.629">
  <g id="nutrition-logo-2" transform="translate(-389.597 -31.2)">
    <g id="Group_346" data-name="Group 346">
      <path id="Path_897" data-name="Path 897" d="M479.4,31.2a14.376,14.376,0,0,1,4.4,4.1,55.392,55.392,0,0,0,20,16.6c10.4,5.1,21.2,9.4,31.1,15.5,11.5,7.1,22.9,15.1,30.5,26.6,7.4,11.1,13.2,23.9,13.5,37.5.3,4.5-2.2,8.8-1.1,13.2.7,2-.8,3.8-1.5,5.5-4.6-3.8-4.7-10.1-6-15.4-1-3.9-1.3-7.9-3-11.6a39.078,39.078,0,0,0-4.4,2.6c-2.9-2.8-3.5-7-4.7-10.6a33.572,33.572,0,0,0-4.4-8.9c-2.5-3.9-3.7-8.6-7.2-11.8-.4,4.5,2.5,8.1,3.1,12.4a26.851,26.851,0,0,1-10.4-12.2c-1,0-2.9.1-3.9.1,2.2,4.8,8,7.2,8.4,12.9a27.1,27.1,0,0,1-11.2-10.8l-3.9-1.2c.2,1.6.4,3.3.6,4.9,4.2,2.5,8.5,5.4,10.5,10.1-4.5-1.6-8.1-5-11.4-8.4-.7.1-2.2.3-3,.4,1,6,7.3,7.7,11.7,10.8,3,2,4.3,5.5,4.5,9a15.679,15.679,0,0,1-9.5,1.6c-1.2,1.3-2.4,2.7-3.6,4,3.1-.3,6.3-.6,9.3.2,3.8,1.1,7.7.2,11.5-.2,2.5,3.9,5.3,7.7,6.7,12.2-4.6-.4-9.5-3.7-13.8-.5a14.811,14.811,0,0,1,8.3,3.3c2.7,2.4,7.4,2.3,9,6,1.5,3.1,1.5,6.6,1.9,9.9-15-5.1-30.1-10.8-43.3-19.8a82.221,82.221,0,0,1-29.8-35.7c-6.2-14.2-8-29.7-9.8-44.9C477.9,49.5,476.7,40.1,479.4,31.2Z" fill="#659b41"/>
      <path id="Path_898" data-name="Path 898" d="M598.5,98.4c2.3-2.8,4.5-5.8,7.6-7.7,8.4,1.2,15.4,6.9,23.6,9.1-4.6,4.2-10,7.3-14.5,11.6-7.8,7-13.5,16-17.7,25.6-3.7,8.4-5.4,17.4-8.4,26a14.428,14.428,0,0,0,4-.9c7-3.7,14.6-6.1,22.1-8.6,9.6-3,19.3-6.2,29.3-7.7,10.9-1.7,21.8-3.7,32.9-3.8,14.7.5,29.5,4.2,42.2,11.7a98.018,98.018,0,0,1,30.9,32.5c7.3,12.7,14,26.1,16.9,40.6,3.2,14.7,3.4,29.8,3.4,44.8a185.569,185.569,0,0,1-4.1,40.7c-1,8.1-4,15.8-6.3,23.6-4.5,15.6-11.2,30.4-17.6,45.2-6.6,13.9-14.6,27-22.3,40.3-2.4,4.4-7.8,5.9-12.5,5-7.8-1.4-16.1-3.7-21.6-9.6-5-5.3-6.3-13-6-20,.2-6.4,1.4-12.6,2.4-18.9.5-3,1-6.5,3.7-8.4,4.9-3.8,10.3-6.7,15.4-10.2-3.2-10.3-7.7-20.1-12.1-29.9-1.3-2.7-2.4-5.6-4.5-7.8-2.5-2-5.8-2.4-8.8-2.7-15.7-.9-31.1,3.9-46.8,3.1.6-4.1,2.2-8,3-12.1,2.3-10.8,2.4-21.9,1.6-32.8-.7-9.2-3-18.8-9.4-25.9-3.7-4.3-8.5-7.3-13.2-10.3-2.6-1.7-5.2-4-5.6-7.2-.7-5.5-.2-11.7,3.6-16,2.3-2.6,5.3-4.8,6.5-8.2-2.1-1.1-4.9-1.8-6-4.2a59.282,59.282,0,0,0-2.9-6.9c.2-1,.5-2,.7-3-4-.7-9.7-.1-11.1-4.9-1-3-4.8-3.7-5.4-6.8-1.9-5.3-3.3-10.7-5.5-15.9-2.6-4.2-5.7-8.1-7.4-12.8-.8-3.8,1.4-7.6.6-11.4l-.2-.6c-.8-1.1.6-1.8,1.2-2.4C582.9,125.4,588.8,110.5,598.5,98.4Z" fill="#368d43"/>
      <path id="Path_899" data-name="Path 899" d="M632.6,359.1c8.4-1.9,16.9-3.8,25.5-2.9,1.8,8.3,3.6,16.6,5.5,24.8,2.2,15.1,1.5,30.6-.4,45.7-.5,3.4,2.1,6,3.8,8.7,7.4-.1,14.9-1.1,22.3-1,7.1,0,14.2-.1,21.3,0-3.1,7.9-9,14.3-14.2,20.8a190.194,190.194,0,0,1-20.9,21.2c-10.3,10.5-24.1,17.4-38.4,20.4-10.1,2.1-21.8,1.4-29.6-6-9.5-9.4-23.8-14.3-37-11-6.1,1.3-10.7,5.8-15.7,9.2-3.9,2.6-7.4,6.5-12.3,7.2a57.973,57.973,0,0,1-37.1-7.1c-6.1-3.5-12.4-6.7-17.5-11.6-5.7-5.1-11.8-9.9-17.1-15.6-6.3-6.6-11.3-14.2-17.3-21-2.2-2.5-4.6-4.9-5.9-8.1a87.544,87.544,0,0,0-2.7-8.7c1.5,1.3,3,2.6,4.5,4,3.7-1.2,7.6-1,11.4-1.2,3.2-.6,4.2-4.2,5.4-6.8a38.278,38.278,0,0,1-9.5-2c-.9-5.5-2.4-11.5.6-16.6,10.6-1.3,21.3-.5,31.9-.9a34.962,34.962,0,0,0,6.3-1.2c11.7-2.8,24.1-.1,35.7-3.5,5-1.3,9.4-4.2,13.9-6.7,10.1-5.8,20.2-11.6,30.4-17.3,2.1-1.2,3.8-2.9,5.9-4.2a16.655,16.655,0,0,1,5-.4c10.5.1,21.3.5,31.5-2.3C623.3,363.6,627.5,360.2,632.6,359.1Z" fill="#368d43"/>
    </g>
    <g id="Group_347" data-name="Group 347">
      <path id="Path_900" data-name="Path 900" d="M443.7,154.7c18.5-10.8,41-11,61.7-8.3,19.2,2.4,37.9,8,55.9,15.1,3.5,1.8,3.8,6.2,4.7,9.5,1,5.7,5,10.1,7.1,15.5-6.4,4.3-12.2,10.2-14,17.9-2.7,12-.1,24.3-1.3,36.4-.4,3.8-1.9,7.3-2.8,11,2.1-.5,3-2.2,3.7-4.1,1.1,0,2.2,0,3.3.1.2,9.9-.5,19.8,1.2,29.6.6,2.8,1.1,5.9,3.4,7.9a3.7,3.7,0,0,0,5,.2c4.6-4.4.3-12.6,6-16.3.5,4.3-.2,10.4,4.8,12.4-.9-2.4-3-4.5-3.3-7.1,1-2.5,3.4-3.8,5.6-5,2.2,8.9,7.3,17.1,7.4,26.5.6,8.3-4.7,15.7-11.2,20.3-2.9,1.2-6.2.7-9.1,2-3.7,1.3-6.2,4.6-9.6,6.4-1.3.8-2.9,1.3-4,2.5-3,4.6-3.6,10.1-4.5,15.3-2.3,3.9-6.5,6-10.1,8.5-6,3.5-11.3,8.2-17.6,11.4q-10.8,5.7-21.9,10.8a23.142,23.142,0,0,1-9,2.4c-7.5.1-15,1.2-22.5,1.9-5.9.7-12.1,1-17.3,4-6,3.3-12.8,4.6-19.2,7.1-3,2.3-1.6,6.7-1.1,9.8a170.649,170.649,0,0,0,10.1,26c1.1,2.8,1.8,5.8,2.7,8.7-7.8-11.2-14.3-23.2-21.1-34.9-2.2-4-4.8-7.9-6.6-12.1-3-6.9-6.7-13.5-9.4-20.5-7.6-19.9-15.2-40-18.4-61.2a223.78,223.78,0,0,1-2.5-44.8c.6-12.8,2.2-25.6,6-37.9a139.231,139.231,0,0,1,20.6-42C423.6,169.6,432.6,160.5,443.7,154.7Z" fill="#a5ce3a"/>
    </g>
  </g>
</svg>
