<?xml version="1.0" encoding="utf-8"?>
<!-- Generator: Adobe Illustrator 24.0.1, SVG Export Plug-In . SVG Version: 6.00 Build 0)  -->
<svg version="1.1" id="Layer_1" xmlns="http://www.w3.org/2000/svg" xmlns:xlink="http://www.w3.org/1999/xlink" x="0px" y="0px"
	 viewBox="0 0 1110.2 822.2" style="enable-background:new 0 0 1110.2 822.2;" xml:space="preserve">
<style type="text/css">
	.st0{fill:#659B41;}
	.st1{fill:#368D43;}
	.st2{fill:#A5CE3A;}
	.st3{fill:#378D43;}
	.st4{font-family:'SamsungSharpSans-Bold';}
	.st5{font-size:71.8045px;}
	.st6{font-family:'ProductSans-Regular';}
	.st7{font-size:55.3709px;}
</style>
<g>
	<path class="st0" d="M479.4,31.2c1.8,1,3.2,2.5,4.4,4.1c5.3,7,12.1,12.8,20,16.6c10.4,5.1,21.2,9.4,31.1,15.5
		c11.5,7.1,22.9,15.1,30.5,26.6c7.4,11.1,13.2,23.9,13.5,37.5c0.3,4.5-2.2,8.8-1.1,13.2c0.7,2-0.8,3.8-1.5,5.5
		c-4.6-3.8-4.7-10.1-6-15.4c-1-3.9-1.3-7.9-3-11.6c-1.5,0.8-3,1.6-4.4,2.6c-2.9-2.8-3.5-7-4.7-10.6c-0.9-3.2-2.6-6.1-4.4-8.9
		c-2.5-3.9-3.7-8.6-7.2-11.8c-0.4,4.5,2.5,8.1,3.1,12.4c-4.5-3-8.4-7.1-10.4-12.2c-1,0-2.9,0.1-3.9,0.1c2.2,4.8,8,7.2,8.4,12.9
		c-4.6-2.5-8.7-6.1-11.2-10.8c-1.3-0.4-2.6-0.8-3.9-1.2c0.2,1.6,0.4,3.3,0.6,4.9c4.2,2.5,8.5,5.4,10.5,10.1c-4.5-1.6-8.1-5-11.4-8.4
		c-0.7,0.1-2.2,0.3-3,0.4c1,6,7.3,7.7,11.7,10.8c3,2,4.3,5.5,4.5,9c-3,1.4-6.2,2.2-9.5,1.6c-1.2,1.3-2.4,2.7-3.6,4
		c3.1-0.3,6.3-0.6,9.3,0.2c3.8,1.1,7.7,0.2,11.5-0.2c2.5,3.9,5.3,7.7,6.7,12.2c-4.6-0.4-9.5-3.7-13.8-0.5c3,0.3,6,1.3,8.3,3.3
		c2.7,2.4,7.4,2.3,9,6c1.5,3.1,1.5,6.6,1.9,9.9c-15-5.1-30.1-10.8-43.3-19.8c-13-8.8-23.7-21.2-29.8-35.7c-6.2-14.2-8-29.7-9.8-44.9
		C477.9,49.5,476.7,40.1,479.4,31.2z"/>
	<path class="st1" d="M598.5,98.4c2.3-2.8,4.5-5.8,7.6-7.7c8.4,1.2,15.4,6.9,23.6,9.1c-4.6,4.2-10,7.3-14.5,11.6
		c-7.8,7-13.5,16-17.7,25.6c-3.7,8.4-5.4,17.4-8.4,26c1.3-0.2,2.7-0.3,4-0.9c7-3.7,14.6-6.1,22.1-8.6c9.6-3,19.3-6.2,29.3-7.7
		c10.9-1.7,21.8-3.7,32.9-3.8c14.7,0.5,29.5,4.2,42.2,11.7c12.6,8.3,23.3,19.4,30.9,32.5c7.3,12.7,14,26.1,16.9,40.6
		c3.2,14.7,3.4,29.8,3.4,44.8c0.3,13.7-1.4,27.3-4.1,40.7c-1,8.1-4,15.8-6.3,23.6c-4.5,15.6-11.2,30.4-17.6,45.2
		c-6.6,13.9-14.6,27-22.3,40.3c-2.4,4.4-7.8,5.9-12.5,5c-7.8-1.4-16.1-3.7-21.6-9.6c-5-5.3-6.3-13-6-20c0.2-6.4,1.4-12.6,2.4-18.9
		c0.5-3,1-6.5,3.7-8.4c4.9-3.8,10.3-6.7,15.4-10.2c-3.2-10.3-7.7-20.1-12.1-29.9c-1.3-2.7-2.4-5.6-4.5-7.8c-2.5-2-5.8-2.4-8.8-2.7
		c-15.7-0.9-31.1,3.9-46.8,3.1c0.6-4.1,2.2-8,3-12.1c2.3-10.8,2.4-21.9,1.6-32.8c-0.7-9.2-3-18.8-9.4-25.9
		c-3.7-4.3-8.5-7.3-13.2-10.3c-2.6-1.7-5.2-4-5.6-7.2c-0.7-5.5-0.2-11.7,3.6-16c2.3-2.6,5.3-4.8,6.5-8.2c-2.1-1.1-4.9-1.8-6-4.2
		c-0.9-2.3-1.7-4.7-2.9-6.9c0.2-1,0.5-2,0.7-3c-4-0.7-9.7-0.1-11.1-4.9c-1-3-4.8-3.7-5.4-6.8c-1.9-5.3-3.3-10.7-5.5-15.9
		c-2.6-4.2-5.7-8.1-7.4-12.8c-0.8-3.8,1.4-7.6,0.6-11.4l-0.2-0.6c-0.8-1.1,0.6-1.8,1.2-2.4C582.9,125.4,588.8,110.5,598.5,98.4z"/>
	<path class="st1" d="M632.6,359.1c8.4-1.9,16.9-3.8,25.5-2.9c1.8,8.3,3.6,16.6,5.5,24.8c2.2,15.1,1.5,30.6-0.4,45.7
		c-0.5,3.4,2.1,6,3.8,8.7c7.4-0.1,14.9-1.1,22.3-1c7.1,0,14.2-0.1,21.3,0c-3.1,7.9-9,14.3-14.2,20.8c-6.3,7.7-13.5,14.6-20.9,21.2
		c-10.3,10.5-24.1,17.4-38.4,20.4c-10.1,2.1-21.8,1.4-29.6-6c-9.5-9.4-23.8-14.3-37-11c-6.1,1.3-10.7,5.8-15.7,9.2
		c-3.9,2.6-7.4,6.5-12.3,7.2c-12.7,2-25.9-0.8-37.1-7.1c-6.1-3.5-12.4-6.7-17.5-11.6c-5.7-5.1-11.8-9.9-17.1-15.6
		c-6.3-6.6-11.3-14.2-17.3-21c-2.2-2.5-4.6-4.9-5.9-8.1c-0.8-2.9-1.6-5.9-2.7-8.7c1.5,1.3,3,2.6,4.5,4c3.7-1.2,7.6-1,11.4-1.2
		c3.2-0.6,4.2-4.2,5.4-6.8c-3.2-0.4-6.5-0.8-9.5-2c-0.9-5.5-2.4-11.5,0.6-16.6c10.6-1.3,21.3-0.5,31.9-0.9c2.1-0.1,4.2-0.7,6.3-1.2
		c11.7-2.8,24.1-0.1,35.7-3.5c5-1.3,9.4-4.2,13.9-6.7c10.1-5.8,20.2-11.6,30.4-17.3c2.1-1.2,3.8-2.9,5.9-4.2c1.6-0.5,3.3-0.4,5-0.4
		c10.5,0.1,21.3,0.5,31.5-2.3C623.3,363.6,627.5,360.2,632.6,359.1z"/>
</g>
<g>
	<path class="st2" d="M443.7,154.7c18.5-10.8,41-11,61.7-8.3c19.2,2.4,37.9,8,55.9,15.1c3.5,1.8,3.8,6.2,4.7,9.5
		c1,5.7,5,10.1,7.1,15.5c-6.4,4.3-12.2,10.2-14,17.9c-2.7,12-0.1,24.3-1.3,36.4c-0.4,3.8-1.9,7.3-2.8,11c2.1-0.5,3-2.2,3.7-4.1
		c1.1,0,2.2,0,3.3,0.1c0.2,9.9-0.5,19.8,1.2,29.6c0.6,2.8,1.1,5.9,3.4,7.9c1.3,1.2,3.6,1.6,5,0.2c4.6-4.4,0.3-12.6,6-16.3
		c0.5,4.3-0.2,10.4,4.8,12.4c-0.9-2.4-3-4.5-3.3-7.1c1-2.5,3.4-3.8,5.6-5c2.2,8.9,7.3,17.1,7.4,26.5c0.6,8.3-4.7,15.7-11.2,20.3
		c-2.9,1.2-6.2,0.7-9.1,2c-3.7,1.3-6.2,4.6-9.6,6.4c-1.3,0.8-2.9,1.3-4,2.5c-3,4.6-3.6,10.1-4.5,15.3c-2.3,3.9-6.5,6-10.1,8.5
		c-6,3.5-11.3,8.2-17.6,11.4c-7.2,3.8-14.5,7.4-21.9,10.8c-2.8,1.3-5.8,2.3-9,2.4c-7.5,0.1-15,1.2-22.5,1.9c-5.9,0.7-12.1,1-17.3,4
		c-6,3.3-12.8,4.6-19.2,7.1c-3,2.3-1.6,6.7-1.1,9.8c2.6,9,6.1,17.6,10.1,26c1.1,2.8,1.8,5.8,2.7,8.7c-7.8-11.2-14.3-23.2-21.1-34.9
		c-2.2-4-4.8-7.9-6.6-12.1c-3-6.9-6.7-13.5-9.4-20.5c-7.6-19.9-15.2-40-18.4-61.2c-2.4-14.8-3.1-29.8-2.5-44.8
		c0.6-12.8,2.2-25.6,6-37.9c4.6-15,11.3-29.4,20.6-42C423.6,169.6,432.6,160.5,443.7,154.7z"/>
</g>
<text transform="matrix(0.9734 0 0 1 286.7556 615.8165)" class="st3 st4 st5">Nutrition La Sante’</text>
<text transform="matrix(0.9896 0 0 1 331.3842 693.346)" class="st2 st6 st7">You Are What You Eat.</text>
</svg>
