<svg xmlns="http://www.w3.org/2000/svg" xmlns:xlink="http://www.w3.org/1999/xlink" version="1.1" id="Layer_1" x="0" y="0" width="102" height="102" viewBox="0 0 102 102" xml:space="preserve" enable-background="new 0 0 102 102">
 <defs>
    <style type="text/css">
        <![CDATA[
           path{
             fill: #242a30;
             //fill: #fff;
           }
        ]]>
    </style>
  </defs>
  <path d="M72.584 86.958H29c-0.553 0-1-0.447-1-1l0.042-41H16.958c-0.426 0-0.806-0.27-0.945-0.673l-6.096-17.5c-0.089-0.259-0.068-0.543 0.058-0.787 0.125-0.244 0.346-0.424 0.609-0.501l30.214-8.771c0.267-0.077 0.557-0.04 0.797 0.105 0.239 0.145 0.406 0.383 0.462 0.658 0.853 4.238 4.614 7.313 8.943 7.313s8.091-3.076 8.943-7.313c0.056-0.274 0.223-0.513 0.462-0.658 0.24-0.146 0.531-0.183 0.797-0.105l30.214 8.771c0.264 0.077 0.484 0.257 0.609 0.501 0.126 0.243 0.146 0.528 0.058 0.787l-6 17.334c-0.14 0.403-0.52 0.673-0.945 0.673L74 45v41C74 86.553 73.137 86.958 72.584 86.958zM30 85h42V44c0-0.552 0.447-1 1-1h11.312l5.536-15.875 -28.21-8.19c-1.412 4.618-5.726 7.868-10.639 7.868s-9.227-3.25-10.639-7.868l-28.21 8.19 5.552 15.953L29.172 43C29.725 43 30 43.448 30 44V85z" fill="#242A30"/>
</svg>
