<svg xmlns="http://www.w3.org/2000/svg" xmlns:xlink="http://www.w3.org/1999/xlink" version="1.1" id="Layer_1" x="0" y="0" width="102" height="102" viewBox="0 0 102 102" xml:space="preserve" enable-background="new 0 0 102 102">
 <defs>
    <style type="text/css">
        <![CDATA[
           path, line{
             fill: #242a30;
           }
        ]]>
    </style>
  </defs>
<path fill="#242A30" d="M70.979,15c-4.643,0-8.342,0.177-11.918,0.348c-2.692,0.128-5.478,0.26-8.611,0.314
    c-3.16-0.055-5.944-0.187-8.638-0.314C38.235,15.177,34.536,15,29.892,15C11.41,15,4,20.671,4,34.612v1.377
    c0,14.119,7.986,20.432,26.186,20.432c3.759,0,8.217-0.101,13.25-0.295l0.758-0.029L44,85.301h-6v2h24.973v-1.994L57,85.301v-29
    l0.436-0.176c5.033,0.195,9.49,0.295,13.25,0.295c18.198,0,26.299-6.296,26.299-20.415v-1.377C96.984,20.688,89.461,15,70.979,15z
     M44.193,53.918l-0.702,0.027c-5.128,0.196-9.473,0.196-13.306,0.196C13.612,54.143,6.67,48.701,6.67,35.989v-1.377
    c0-12.556,6.418-17.432,23.222-17.432c4.587,0,8.767,0.274,11.817,0.475c0.643,0.042,2.484,0.156,2.484,0.156V53.918z M54,85.301h-7
    l-0.234-67.533h7.339L54,85.301z M94.33,36.005c0,12.713-7.072,18.138-23.646,18.138c-3.832,0-7.865,0.012-12.994-0.186L57,53.931
    v-36.14c2.033-0.126,1.711-0.107,2.162-0.136c3.052-0.2,7.23-0.475,11.816-0.475c16.805,0,23.352,4.893,23.352,17.448V36.005z"/>
</svg>