<svg xmlns="http://www.w3.org/2000/svg" xmlns:xlink="http://www.w3.org/1999/xlink" version="1.1" id="Layer_1" x="0px" y="0px" width="83px" height="83px" viewBox="0 0 83 83" enable-background="new 0 0 83 83" xml:space="preserve">
        <path style="fill:#fff" d="M54.739 41.465l23.645-23.569c3.721-3.732 4.476-9.027 1.685-11.827l-3.37-3.379c-2.791-2.799-8.069-2.043-11.791 1.69L41.352 28.009 17.844 4.38c-3.721-3.734-9-4.489-11.791-1.69L2.685 6.069c-2.791 2.8-2.036 8.095 1.685 11.827l23.508 23.629L5.507 63.965c-3.722 3.732-5.865 10.04-3.075 12.84l3.369 3.378c2.791 2.8 8.069 2.042 11.791-1.689l23.63-23.555 23.56 23.682c3.721 3.733 9 4.489 11.791 1.689l3.368-3.377c2.792-2.801 2.038-8.095-1.683-11.828L54.739 41.465z"/>
</svg>