<?xml version="1.0" encoding="utf-8"?>
<!-- Generator: Adobe Illustrator 15.0.2, SVG Export Plug-In . SVG Version: 6.00 Build 0)  -->
<!DOCTYPE svg PUBLIC "-//W3C//DTD SVG 1.1//EN" "http://www.w3.org/Graphics/SVG/1.1/DTD/svg11.dtd">
<svg version="1.1" id="beleza" xmlns="http://www.w3.org/2000/svg" xmlns:xlink="http://www.w3.org/1999/xlink" x="0px" y="0px"
	 width="80px" height="80px" viewBox="0 0 80 80" enable-background="new 0 0 80 80" xml:space="preserve">
<path fill="#FFFFFF" d="M72,33.701c0-1.117-0.907-2.023-2.025-2.023c-0.871,0-1.606,0.551-1.893,1.322h-1.365
	C66.342,18.598,54.509,7,40,7S13.658,18.598,13.284,33h-1.365c-0.286-0.77-1.022-1.322-1.893-1.322C8.907,31.678,8,32.584,8,33.701
	c0,0.857,0.536,1.586,1.29,1.88C10.32,51.289,23.134,63.755,39,64.262V72h-7v2h16v-2h-7v-7.738
	c15.866-0.507,28.68-12.973,29.71-28.681C71.464,35.287,72,34.559,72,33.701z M40,8.618c13.854,0,25.113,11.247,25.113,25.083
	c0,13.836-11.26,25.083-25.113,25.083c-13.853,0-25.114-11.246-25.114-25.083C14.886,19.864,26.147,8.618,40,8.618z M40,62.668
	c-15.46,0-28.08-11.906-29.091-27.155c0.255-0.124,0.476-0.299,0.657-0.513h1.733C13.979,49.125,25.692,60.402,40,60.402
	c14.309,0,26.021-11.277,26.701-25.402h1.732c0.182,0.214,0.403,0.389,0.658,0.513C68.08,50.762,55.46,62.668,40,62.668z"/>
</svg>
