<svg xmlns="http://www.w3.org/2000/svg" xmlns:xlink="http://www.w3.org/1999/xlink" version="1.1" id="Layer_1" x="0" y="0" width="102" height="102" viewBox="0 0 102 102" xml:space="preserve" enable-background="new 0 0 102 102">
 <defs>
    <style type="text/css">
        <![CDATA[
           path{
             fill: #242a30;
           }
        ]]>
    </style>
  </defs>
  <path d="M51.645 89.861c-15.231 0-27.625-12.393-27.625-27.625 0-13.984 10.266-25.606 24.022-27.39 0.223-4.725 2.146-9.111 5.474-12.434 3.776-3.78 8.937-5.769 14.313-5.492 0.513 0.025 0.923 0.435 0.948 0.948 0.271 5.341-1.731 10.56-5.491 14.316 -1.354 1.355-2.886 2.476-4.568 3.349C70.641 38.692 79.27 49.632 79.27 62.236 79.27 77.471 66.876 89.861 51.645 89.861zM66.801 18.897c-4.498 0.019-8.713 1.769-11.873 4.931 -3.158 3.154-4.901 7.386-4.909 11.916 -0.001 0.514-0.392 0.943-0.902 0.993 -13.168 1.29-23.098 12.252-23.098 25.5 0 14.129 11.495 25.625 25.625 25.625 14.129 0 25.625-11.496 25.625-25.625 0-12.742-9.512-23.653-22.121-25.379 -0.465-0.063-0.822-0.441-0.86-0.908 -0.039-0.467 0.252-0.897 0.698-1.038 2.646-0.823 4.961-2.216 6.886-4.14C65.014 27.631 66.782 23.347 66.801 18.897z" fill="#242A30"/>
  <path d="M90.855 90.82L90.855 90.82c-2.021-0.002-3.892-0.756-5.125-2.069 -1.172-1.246-1.729-2.918-1.607-4.836L86.122 51.8c-1.813-2.293-2.94-4.342-3.351-6.095 -1.36-5.821-0.229-16.863 0.263-18.584 1.961-6.907 7.178-11.182 10.886-11.182 1.973 0 4.08 1.292 4.08 4.919v63.121c0 2.103-0.791 3.881-2.289 5.144C94.411 90.216 92.688 90.82 90.855 90.82zM93.92 17.938c-2.533 0-7.184 3.464-8.962 9.729 -0.41 1.446-1.522 12.088-0.237 17.583 0.357 1.534 1.437 3.417 3.201 5.597l0.245 0.303 -2.048 32.89c-0.085 1.371 0.273 2.496 1.068 3.342 0.857 0.914 2.194 1.438 3.668 1.438l0 0c1.34 0 2.641-0.448 3.564-1.229 1.034-0.868 1.58-2.118 1.58-3.612V20.858C96 18.92 95.3 17.938 93.92 17.938z" fill="#242A30"/>
  <path d="M13.681 90.044c-0.061 0-0.12-0.006-0.177-0.017 -0.063 0.013-0.129 0.019-0.195 0.017 -1.985-0.032-3.815-0.801-5.02-2.104 -1.147-1.242-1.691-2.899-1.573-4.799L8.69 51.43c-3.812-1.336-6.209-4.987-5.905-9.154 0.238-3.255 1.705-24.63 1.705-24.63 0.036-0.524 0.472-0.932 0.998-0.932H8.45c0.552 0 1 0.448 1 1v1.115c0 0.136 0.278 0.387 0.733 0.387s0.733-0.25 0.733-0.387v-1.115c0-0.552 0.448-1 1-1h3.176c0.552 0 1 0.448 1 1v1.115c0 0.136 0.278 0.387 0.733 0.387 0.455 0 0.733-0.25 0.733-0.387v-1.115c0-0.552 0.448-1 1-1h2.959c0.526 0 0.964 0.407 1 0.932 0 0 1.467 21.375 1.704 24.629 0.304 4.167-2.093 7.818-5.905 9.154l1.974 31.709c0.118 1.897-0.426 3.557-1.573 4.799 -1.205 1.306-3.034 2.071-5.02 2.104C13.693 90.044 13.687 90.044 13.681 90.044zM6.421 18.714c-0.285 4.147-1.433 20.859-1.64 23.707 -0.257 3.521 1.834 6.46 5.203 7.311 0.466 0.118 0.783 0.552 0.753 1.032L8.713 83.266c-0.084 1.356 0.267 2.476 1.046 3.317 0.836 0.903 2.142 1.438 3.584 1.461 0.055 0.002 0.108 0.009 0.161 0.017 0.052-0.008 0.106-0.015 0.161-0.017 1.442-0.022 2.749-0.558 3.584-1.461 0.779-0.845 1.13-1.961 1.046-3.317l-2.023-32.5c-0.03-0.479 0.287-0.914 0.753-1.032 3.369-0.851 5.459-3.79 5.203-7.311 -0.208-2.847-1.355-19.559-1.64-23.707H19.56v0.115c0 1.316-1.226 2.387-2.733 2.387 -1.507 0-2.733-1.071-2.733-2.387v-0.115h-1.176v0.115c0 1.316-1.226 2.387-2.733 2.387s-2.733-1.071-2.733-2.387v-0.115L6.421 18.714 6.421 18.714z" fill="#242A30"/>
</svg>