<svg version="1.1" id="pool" xmlns="http://www.w3.org/2000/svg" xmlns:xlink="http://www.w3.org/1999/xlink" x="0px" y="0px" width="140" height="102" viewBox="0 0 140 102" xml:space="preserve" enable-background="new 0 0 140 102">
 <defs>
    <style type="text/css">
        <![CDATA[
           path{
             fill: #242a30;
             //fill: #fff;
           }
        ]]>
    </style>
  </defs>
<path d="M133.61,79.17c-0.19-0.18-0.43-0.28-0.69-0.28s-0.51,0.1-0.69,0.28c-1.85,1.85-4.31,2.87-6.93,2.87
    s-5.08-1.02-6.93-2.87c-3.07-3.06-7.16-4.75-11.51-4.75c-4.2,0-7.83,0.71-10.86,3.58V29c0-5.49,4.11-9.89,9.6-9.89
    c5.48,0,9.94,4.46,9.94,9.95c0,0.53,0.44,0.97,0.98,0.97c0.53,0,0.97-0.44,0.97-0.97c0-6.57-5.33-11.91-11.89-11.91
    C99.03,17.15,94,22.43,94,29v11H52V29c0-5.49,4.14-9.89,9.62-9.89s9.95,4.46,9.95,9.95c0,0.53,0.43,0.97,0.97,0.97
    c0.54,0,0.98-0.44,0.98-0.97c0-6.57-5.34-11.91-11.9-11.91S50,22.43,50,29v53c-1.97-0.36-4.03-1.42-5.43-2.83
    c-3.08-3.07-7.17-4.76-11.53-4.76c-4.34,0-8.43,1.69-11.5,4.74l-0.02,0.02c-1.85,1.85-4.31,2.87-6.93,2.87s-5.08-1.02-6.93-2.87
    c-0.18-0.18-0.43-0.28-0.69-0.28s-0.5,0.1-0.69,0.28C6.1,79.36,6,79.6,6,79.86c0,0.27,0.1,0.51,0.28,0.69
    c2.22,2.22,5.17,3.44,8.31,3.44c3.13,0,6.07-1.21,8.27-3.4c0.02-0.01,0.03-0.03,0.04-0.04c2.71-2.7,6.31-4.18,10.14-4.18
    c3.84,0,7.44,1.48,10.15,4.18c1.97,1.98,4.47,3.15,7.24,3.4C50.51,83.97,50.6,84,50.7,84c0.04,0,0.08-0.02,0.12-0.03
    c0.01,0,0.02,0,0.04,0c0.05,0,0.11,0,0.17,0.01c0.15,0.01,0.3,0.02,0.46,0.02c3.14,0,6.09-1.22,8.32-3.45
    c2.71-2.71,6.31-4.2,10.13-4.2c3.83,0,7.44,1.5,10.14,4.2c0.01,0.01,0.03,0.03,0.04,0.04c2.21,2.2,5.15,3.41,8.28,3.41
    c3.13,0,6.07-1.22,8.29-3.43l0.02-0.02c2.7-2.7,6.3-4.19,10.14-4.19c3.83,0,7.43,1.49,10.14,4.19c2.22,2.22,5.17,3.45,8.31,3.45
    s6.09-1.23,8.31-3.45c0.18-0.18,0.28-0.42,0.28-0.68C133.89,79.6,133.79,79.36,133.61,79.17z M58.44,79.15l-0.02,0.02
    c-1.8,1.8-3.86,2.78-6.42,2.83V64h42v16c-1.58,1.02-3.72,2.04-5.6,2.04c-2.62,0-5.08-1.02-6.94-2.87c0-0.01-0.01-0.01-0.02-0.02
    c-3.07-3.06-7.15-4.75-11.5-4.75C65.6,74.4,61.51,76.09,58.44,79.15z M94,42v20H52V42H94z"/>
</svg>
