<svg xmlns="http://www.w3.org/2000/svg" xmlns:xlink="http://www.w3.org/1999/xlink" version="1.1" id="icon-massagens" x="0" y="0" width="80" height="80" viewBox="0 0 80 80" enable-background="new 0 0 80 80" xml:space="preserve">
  <path fill="none" stroke="#FFFFFF" stroke-width="2" stroke-miterlimit="10" d="M56.703 45.318l-5.433-11.112L40.3 42.613c-0.98 0.541-2.205 0.852-3.136-0.239 -0.834-0.977-0.05-2.423 0.618-3.32 2.273-3.06 10.865-13.872 10.865-13.872l-0.739-0.609c-2.719 0.247-5.703-1.183-7.591-3.931 -2.608-3.798-2.13-8.657 1.068-10.853 3.198-2.196 7.905-0.898 10.514 2.898 1.862 2.712 2.142 5.961 0.99 8.4l0.766 0.654c0 0 5.17-1.729 7.125 2.168 2.707 5.4 7.529 14.652 10.697 21.411"/>
  <path fill="none" stroke="#FFFFFF" stroke-width="2" stroke-miterlimit="10" d="M71.477 63.522H38.01c-0.536 0-1.062 0.148-1.516 0.434l-7.792 5.156c-1.136 0.708-2.449 1.085-3.789 1.085h-13.83c-1.416 0-2.562-1.147-2.562-2.562 0-1.28 0.947-2.365 2.215-2.539 0 0 8.083-1.106 9.92-1.356 1.838-0.252 3.032-1.093 3.999-1.92 1.117-0.955 4.605-5.814 4.605-5.814l-0.264-0.219c-2.207 0.829-4.964 0.629-7.423-0.768 -4.004-2.28-5.695-6.858-3.776-10.232 1.918-3.372 6.72-4.259 10.724-1.982 3.396 1.932 5.119 5.519 4.396 8.621l0.684 0.564c2.832-2.206 6.39-3.303 10.004-3.04l27.87 1.576"/>
</svg>
