<svg xmlns="http://www.w3.org/2000/svg" xmlns:xlink="http://www.w3.org/1999/xlink" version="1.1" id="spa" x="0" y="0" width="127.029" height="80" viewBox="-444.015 297.5 127.029 80" enable-background="new -444.015 297.5 127.029 80" xml:space="preserve">
  <path fill="#FFFFFF" d="M-332.197 359.617c-0.145-0.138-0.326-0.214-0.524-0.214 -0.196 0-0.386 0.076-0.523 0.214 -1.403 1.405-3.27 2.181-5.257 2.181 -1.988 0-3.854-0.775-5.259-2.181 -2.329-2.326-5.432-3.608-8.732-3.608 -3.186 0-5.94 0.538-8.239 2.719v-37.226c0-4.17 3.118-7.514 7.284-7.514 4.157 0 7.541 3.389 7.541 7.56 0 0.403 0.333 0.737 0.742 0.737 0.403 0 0.738-0.334 0.738-0.737 0-4.991-4.045-9.048-9.021-9.048 -4.985 0-8.801 4.011-8.801 9.002v8.355h-31.865v-8.355c0-4.17 3.141-7.514 7.298-7.514 4.158 0 7.549 3.389 7.549 7.56 0 0.403 0.326 0.737 0.737 0.737 0.408 0 0.743-0.334 0.743-0.737 0-4.991-4.052-9.048-9.029-9.048 -4.977 0-8.816 4.011-8.816 9.002v40.264c-1.494-0.273-3.058-1.077-4.119-2.148 -2.336-2.333-5.439-3.616-8.747-3.616 -3.293 0-6.396 1.283-8.726 3.6l-0.015 0.017c-1.404 1.405-3.271 2.181-5.258 2.181s-3.854-0.775-5.259-2.181c-0.136-0.138-0.325-0.214-0.523-0.214 -0.196 0-0.379 0.076-0.523 0.214 -0.136 0.144-0.212 0.326-0.212 0.523 0 0.205 0.076 0.388 0.212 0.524 1.685 1.687 3.923 2.613 6.306 2.613 2.375 0 4.605-0.92 6.273-2.583 0.016-0.007 0.023-0.023 0.03-0.03 2.057-2.052 4.787-3.176 7.694-3.176 2.913 0 5.645 1.124 7.7 3.176 1.495 1.504 3.392 2.393 5.493 2.583 0.061 0.015 0.128 0.038 0.205 0.038 0.03 0 0.06-0.015 0.091-0.023 0.007 0 0.016 0 0.03 0 0.038 0 0.083 0 0.129 0.009 0.114 0.007 0.228 0.015 0.349 0.015 2.384 0 4.621-0.928 6.312-2.621 2.057-2.06 4.788-3.189 7.686-3.189 2.905 0 5.645 1.138 7.693 3.189 0.008 0.007 0.022 0.023 0.03 0.03 1.676 1.672 3.906 2.591 6.281 2.591 2.376 0 4.605-0.928 6.29-2.606l0.016-0.015c2.049-2.052 4.78-3.183 7.693-3.183 2.905 0 5.637 1.131 7.692 3.183 1.685 1.687 3.923 2.621 6.306 2.621 2.382 0 4.62-0.935 6.305-2.621 0.137-0.137 0.211-0.319 0.211-0.517C-331.986 359.943-332.061 359.761-332.197 359.617zM-389.229 359.601l-0.015 0.017c-1.366 1.367-2.93 2.112-4.871 2.148v-13.674h31.865v12.155c-1.2 0.775-2.822 1.551-4.25 1.551 -1.987 0-3.854-0.775-5.265-2.181 0-0.008-0.008-0.008-0.015-0.017 -2.329-2.323-5.425-3.607-8.726-3.607C-383.797 355.993-386.899 357.277-389.229 359.601zM-362.249 331.379v15.193h-31.865v-15.193H-362.249z"/>
</svg>