<svg version="1.1" id="modality" xmlns="http://www.w3.org/2000/svg" xmlns:xlink="http://www.w3.org/1999/xlink" x="0px" y="0px" width="102" height="102" viewBox="0 0 102 102" xml:space="preserve" enable-background="new 0 0 102 102">
 <defs>
    <style type="text/css">
        <![CDATA[
           path{
             fill: #242a30;
             //fill: #fff;
           }
        ]]>
    </style>
  </defs>
    <path  d="M32.876,91.151c-0.402,0-0.803-0.097-1.194-0.287C24.554,87.288,8,74.488,8,32.9
        C8,21.511,17.875,13,26.705,13c1.456,0,2.883,0.227,4.242,0.676c5.675,1.895,8.228,9.015,7.341,14.526
        c-0.948,5.841-5.486,9.158-11.313,8.185c0.45,4.317,3.908,8.934,7.26,13.409c1.465,1.96,2.823,3.78,3.951,5.568
        c2.139-5.413,6.267-10.662,19.898-11.218c1.063-8.201,7.383-16.719,19.161-16.719c6.159,0,11.638,2.885,15.031,7.914
        c3.847,5.694,4.333,13.267,1.334,20.777c-2.815,5.656-7.643,8.675-11.179,9.659c-1.562,7.181-9.759,19.641-18.201,22.449
        c-4.572,1.527-10.434,1.527-16.102,1.527c-5.238,0-10.655,0-14.403,1.247C33.503,91.093,33.199,91.151,32.876,91.151z
         M26.705,14.804c-7.978,0-16.901,7.739-16.901,18.096c0,40.584,15.859,52.926,22.677,56.347c0.227,0.113,0.474,0.122,0.619,0.063
        c4.08-1.36,9.646-1.36,15.028-1.36c5.524,0,11.236,0,15.532-1.436c7.827-2.603,15.951-14.947,17.107-21.625l0.103-0.594l0.587-0.134
        c3.437-0.771,8.02-3.787,10.508-8.78c2.744-6.878,2.323-13.841-1.184-19.032c-3.052-4.525-7.985-7.12-13.535-7.12
        c-11.084,0-16.753,7.97-17.452,15.87l-0.071,0.801l-0.804,0.021c-14.67,0.393-17.766,6.064-19.68,11.838l-0.655,1.976l-0.993-1.83
        c-1.21-2.226-2.915-4.509-4.72-6.926c-3.902-5.208-7.856-10.487-7.746-15.738l0.024-1.138l1.103,0.284
        c0.942,0.243,1.863,0.366,2.735,0.366c4.016-0.002,6.828-2.558,7.522-6.841c0.771-4.782-1.354-10.933-6.128-12.527
        C29.205,15.001,27.969,14.804,26.705,14.804z"/>
</svg>
