<svg xmlns="http://www.w3.org/2000/svg" xmlns:xlink="http://www.w3.org/1999/xlink" version="1.1" id="Layer_1" x="0" y="0" width="102" height="102" viewBox="0 0 102 102" xml:space="preserve" enable-background="new 0 0 102 102">
 <defs>
    <style type="text/css">
        <![CDATA[
           path{
             fill: #242a30;
           }
        ]]>
    </style>
  </defs>
  <path d="M51 20.525V15h6.275c2.543 0 4.613-1.956 4.613-4.5S59.818 6 57.275 6H43.398c-2.544 0-4.614 1.955-4.614 4.5s2.07 4.5 4.614 4.5H49v5.525C29 21.059 12.875 37.546 12.875 57.75 12.875 78.291 29.648 95 50.188 95c20.541 0 37.156-16.709 37.156-37.25C87.346 37.546 71 21.059 51 20.525zM40.784 10.5c0-1.441 1.173-2.5 2.614-2.5h13.877c1.44 0 2.613 1.058 2.613 2.5S58.716 13 57.275 13H43.398C41.957 13 40.784 11.941 40.784 10.5zM50.251 93C30.813 93 15 77.188 15 57.75 15 38.313 30.813 22.5 50.251 22.5c19.437 0 35.251 15.813 35.251 35.25C85.502 77.188 69.688 93 50.251 93z" fill="#242A30"/>
  <path d="M31.395 37.954c-0.391-0.391-1.023-0.391-1.414 0s-0.391 1.023 0 1.414L49.45 58.836c0.195 0.195 0.451 0.293 0.707 0.293 0.256 0 0.512-0.098 0.707-0.293 0.391-0.391 0.391-1.023 0-1.414L31.395 37.954z" fill="#242A30"/>
  <path d="M15.654 33.466c0.262 0 0.523-0.103 0.72-0.306l8.628-8.948c0.383-0.398 0.372-1.031-0.025-1.414 -0.398-0.382-1.03-0.372-1.414 0.025l-8.628 8.948c-0.383 0.398-0.372 1.031 0.025 1.414C15.154 33.373 15.404 33.466 15.654 33.466z" fill="#242A30"/>
</svg>