<svg xmlns="http://www.w3.org/2000/svg" xmlns:xlink="http://www.w3.org/1999/xlink" version="1.1" width="159" height="146" viewBox="0 0 159 146" xml:space="preserve">
    <g>
        <path style="fill:#9D8679;" d="M142.549,145C155.652,145,159,134.166,159,128.435V52.201c0-1.486-1.209-2.69-2.694-2.69
            S154,50.515,154,52v76c0,0.467-0.819,12-11.875,12H80v5H142.549z"/>
        <path style="fill:#9D8679;" d="M142.549,48c1.485,0,2.694-1.217,2.694-2.722c0-1.483-1.633-2.278-3.118-2.278H80v5H142.549z"/>
        <path style="fill:#9D8679;" d="M156.305,41.041c1.485,0,2.695-1.205,2.695-2.692v-6.935C159,18.318,147.863,15,142.125,15h-11
            c-0.411-5-2.058-14-9.383-14c-7.318,0-9.205,9-9.617,14h-9c-0.416-5-1.806-14-9.128-14c-7.318,0-9.46,9-9.872,14H80v5h7.125
            c1.485,0,2.625-0.953,2.625-2.438c0.02-3.898,1.275-11.181,4.247-11.181c2.976,0,4.231,7.282,4.247,11.161
            c0,1.486,1.391,2.457,2.881,2.457h14c1.488,0,2.37-0.953,2.386-2.438c0-3.898,1.257-11.181,4.229-11.181
            c2.978,0,4.385,6.738,4.385,10.618c0,1.486,1.515,3,3,3h13C142.59,20,154,19.955,154,31v7
            C154,39.488,154.819,41.041,156.305,41.041z"/>
    </g>
    <g>
        <path style="fill:#9D8679;" d="M6,129V52c0-1.485-0.819-2.489-2.306-2.489C2.206,49.511,1,50.715,1,52.201v76.234C1,141.549,11.966,145,17.699,145H80v-5
            H18.125C17.664,140,6,140.047,6,129z"/>
        <path style="fill:#9D8679;" d="M76.125,15c-0.412-5-2.554-14-9.875-14c-7.322,0-8.711,9-9.125,14h-9c-0.412-5-2.299-14-9.62-14c-7.322,0-8.968,9-9.38,14
            h-11C12.391,15,1,18.318,1,31.414v6.935c0,1.487,1.206,2.692,2.694,2.692C5.181,41.041,6,39.488,6,38v-7
            c0-10.765,10.986-11,12.125-11h14c1.488,0,2.133-0.953,2.133-2.438c0.017-3.898,1.273-11.181,4.247-11.181
            c2.975,0,4.231,7.282,4.248,11.161c0,1.486,0.882,2.457,2.372,2.457h14c1.487,0,2.879-0.953,2.897-2.438
            c0-3.898,1.256-11.181,4.229-11.181c2.974,0,4.23,7.282,4.23,11.161c0,1.486,1.156,2.457,2.644,2.457H80v-5H76.125z"/>
        <path style="fill:#9D8679;" d="M14.989,45.278c0,1.505,1.222,2.722,2.71,2.722H80v-5H18.125C16.638,43,14.989,43.795,14.989,45.278z"/>
    </g>
</svg>