<?xml version="1.0" encoding="utf-8"?>
<!-- Generator: Adobe Illustrator 15.0.2, SVG Export Plug-In . SVG Version: 6.00 Build 0)  -->
<!DOCTYPE svg PUBLIC "-//W3C//DTD SVG 1.1//EN" "http://www.w3.org/Graphics/SVG/1.1/DTD/svg11.dtd">
<svg version="1.1" id="spa" xmlns="http://www.w3.org/2000/svg" xmlns:xlink="http://www.w3.org/1999/xlink" x="0px" y="0px"
	 width="80px" height="80px" viewBox="0 0 80 80" enable-background="new 0 0 80 80" xml:space="preserve">
<path fill="#FFFFFF" d="M63.801,66H15.064c-4.818,0-7.756-1.193-8.733-3.549c-1.201-2.896,1.147-6.334,2.558-7.747
	c3.018-3.024,12.887-8.142,30.739-8.142c17.405,0,25.104,3.453,30.341,6.832c2.504,1.614,4.686,4.963,3.795,7.984
	C73.145,63.486,70.911,66,63.801,66z M39.627,48.562c-17.197,0-26.523,4.748-29.323,7.554c-1.211,1.215-2.86,3.8-2.126,5.567
	C8.807,63.199,11.188,64,15.064,64h48.737c4.583,0,7.439-1.131,8.045-3.186c0.594-2.015-1.041-4.5-2.962-5.74
	C65.607,52.961,58.79,48.562,39.627,48.562z M58.602,44H20.887c-3.829,0-6.173-0.734-6.967-2.648
	c-0.976-2.353,0.9-4.994,2.028-6.125c2.358-2.365,10.057-6.308,23.947-6.308c13.527,0,19.522,2.72,23.603,5.352
	c2.007,1.295,3.751,3.769,3.031,6.213C66.025,42.189,64.243,44,58.602,44z M39.895,30.978c-16.576,0-22.295,5.544-22.531,5.78
	c-0.963,0.965-2.094,2.627-1.597,3.826c0.442,1.064,2.26,1.416,5.12,1.416h37.714c3.387,0,5.578-0.604,6.008-2.066
	c0.379-1.283-0.606-3.044-2.196-4.07C58.384,33.265,52.868,30.978,39.895,30.978z M53.178,26h-26.5c-2.822,0-4.562-0.502-5.17-1.969
	c-0.744-1.793,0.585-3.683,1.489-4.589c0.466-0.467,4.9-4.501,17.037-4.501c9.582,0,13.842,1.945,16.745,3.818
	c1.539,0.992,2.807,2.752,2.254,4.629C58.65,24.682,57.326,26,53.178,26z M40.033,17c-9.221,0-14.25,2.599-15.621,3.974
	c-0.719,0.721-1.315,1.669-1.058,2.29C23.609,23.876,24.851,24,26.678,24h26.5c2.206,0,3.678-0.283,3.938-1.163
	c0.23-0.785-0.406-1.834-1.42-2.489C52.902,18.547,49.072,17,40.033,17z"/>
</svg>
