<svg version="1.1" id="low-cost" xmlns="http://www.w3.org/2000/svg" xmlns:xlink="http://www.w3.org/1999/xlink" x="0" y="0" width="80" height="80" viewBox="0 0 80 80" xml:space="preserve" enable-background="new 0 0 80 80">
    <defs>
        <style type="text/css">
            <![CDATA[
               path{
                 fill: #ffffff;
               }
            ]]>
        </style>
    </defs>
    <path d="M40,70.625C23.113,70.625,9.375,56.887,9.375,40S23.113,9.375,40,9.375S70.625,23.113,70.625,40S56.887,70.625,40,70.625z
         M40,11.375c-15.783,0-28.625,12.841-28.625,28.625c0,15.783,12.842,28.625,28.625,28.625S68.625,55.783,68.625,40
        C68.625,24.216,55.783,11.375,40,11.375z"/>
    <path d="M32.801,40.677c-3.12,0-4.225-2.137-4.225-4.921v-1.319c0-2.809,1.104-4.921,4.225-4.921c3.097,0,4.201,1.992,4.201,4.921
        v1.319C37.002,38.66,35.897,40.677,32.801,40.677z M35.081,34.437c0-2.473-0.72-3.289-2.28-3.289s-2.304,0.937-2.304,3.289v1.319
        c0,2.473,0.743,3.289,2.304,3.289s2.28-0.816,2.28-3.289V34.437z M35.346,47.613h-2.16l11.377-17.834h2.16L35.346,47.613z
         M47.178,47.854c-2.712,0-4.224-1.681-4.224-4.896v-1.368c0-3.217,1.512-4.872,4.224-4.872c2.713,0,4.225,1.655,4.225,4.872v1.368
        C51.402,46.173,49.891,47.854,47.178,47.854z M49.482,41.589c0-2.593-1.008-3.24-2.305-3.24c-1.295,0-2.304,0.647-2.304,3.24v1.368
        c0,2.592,1.009,3.264,2.304,3.264c1.297,0,2.305-0.672,2.305-3.264V41.589z"/>
</svg>
