<svg version="1.1" id="box-crossfit" xmlns="http://www.w3.org/2000/svg" xmlns:xlink="http://www.w3.org/1999/xlink" x="0" y="0" width="80" height="80" viewBox="0 0 80 80" xml:space="preserve" enable-background="new 0 0 80 80">
	<defs>
    <style type="text/css">
        <![CDATA[
           path{
             fill: #ffffff;
           }
        ]]>
    </style>
  </defs>
  <path d="M39.5 72C25.4 72 14 60.6 14 46.5c0-6.1 2.2-12 6.2-16.6C20.1 29 20 28.2 20 27.5 20 16.7 28.7 8 39.5 8S59 16.7 59 27.5c0 0.7-0.1 1.5-0.2 2.4 4 4.6 6.2 10.5 6.2 16.6C65 60.6 53.6 72 39.5 72zM39.5 10C29.9 10 22 17.9 22 27.5c0 0.8 0.1 1.6 0.2 2.6l0.1 0.5L22 30.9c-3.8 4.3-6 9.9-6 15.6C16 59.5 26.5 70 39.5 70S63 59.5 63 46.5c0-5.8-2.1-11.3-6-15.6l-0.3-0.3 0.1-0.5c0.1-1 0.2-1.8 0.2-2.6C57 17.9 49.1 10 39.5 10z" fill="#231F20"/>
  <path d="M49.2 27.7c-1 0-2.2-0.3-3.5-0.7 -1.8-0.5-3.9-1-6.2-1s-4.3 0.6-6.2 1c-1.4 0.4-2.5 0.7-3.5 0.7 -0.9 0-1.6-0.3-2.1-0.8 -0.5-0.5-0.7-1.3-0.7-2.4 0-5.2 5.6-9.5 12.5-9.5S52 19.3 52 24.5C52 27.2 50.5 27.7 49.2 27.7zM39.5 24c2.5 0 4.8 0.6 6.7 1.1 1.2 0.3 2.3 0.6 3 0.6 0.5 0 0.8 0 0.8-1.2 0-4.1-4.7-7.5-10.5-7.5S29 20.4 29 24.5c0 0.8 0.2 1 0.2 1.1 0.1 0.1 0.3 0.1 0.6 0.1 0.7 0 1.8-0.3 3-0.6C34.7 24.6 37 24 39.5 24z" fill="#231F20"/>
  <path d="M20.9 52.3c-0.6-1.9-0.9-3.8-0.9-5.8 0-3.5 1-7 2.8-10l1.7 1c-1.6 2.7-2.5 5.8-2.5 9 0 1.8 0.3 3.5 0.8 5.2L20.9 52.3z" fill="#231F20"/>
</svg>
