<svg xmlns="http://www.w3.org/2000/svg" xmlns:xlink="http://www.w3.org/1999/xlink" version="1.1" id="Layer_1" x="0px" y="0px" width="112px" height="84px" viewBox="0 0 112 84" enable-background="new 0 0 112 84" xml:space="preserve">
        <path style="fill:#fff" d="M108.602 6.503l-3.658-3.668c-3.029-3.039-8.76-2.218-12.8 1.835L39.852 57.139 19.285 36.327c-4.04-4.054-9.771-4.874-12.799-1.835L2.829 38.16C-0.201 41.199 0.618 46.948 4.658 51l24.676 24.976c0.221 0.516 0.521 0.985 0.92 1.384l3.657 3.668c1.336 1.339 3.197 1.927 5.205 1.82 2.431 0.429 4.751-0.096 6.333-1.684l3.658-3.668c0.577-0.579 1.012-1.256 1.314-2l56.353-56.154C110.813 15.291 111.632 9.542 108.602 6.503z"/>
</svg>