<?xml version="1.0" encoding="iso-8859-1"?>
<!-- Generator: Adobe Illustrator 15.0.2, SVG Export Plug-In . SVG Version: 6.00 Build 0)  -->
<!DOCTYPE svg PUBLIC "-//W3C//DTD SVG 1.1//EN" "http://www.w3.org/Graphics/SVG/1.1/DTD/svg11.dtd">
<svg version="1.1" xmlns="http://www.w3.org/2000/svg" xmlns:xlink="http://www.w3.org/1999/xlink" x="0px" y="0px" width="140px"
	 height="140px" viewBox="0 0 140 140" style="enable-background:new 0 0 140 140;" xml:space="preserve">
<g id="Layer_2">
	<g>
		<path style="fill:#fff;" d="M89.49,49.543l0.125-0.125c1.939-1.921,1.669-5.335-0.611-7.66c-2.278-2.315-5.705-2.633-7.646-0.713l-0.34,0.326
			c-0.126,0.091-0.277,0.18-0.408,0.285c-1.643,1.255-4.266,5.524-4.999,7.193c-0.379,0.888-0.165,1.81,0.508,2.658
			c0.504,0.668,1.884,1.488,2.543,1.689c1.149,0.36,5.365,0.67,8.337-2.226l2.511,2.551c0.477,0.479,1.139,0.763,1.885,0.743
			c0.742-0.013,1.423-0.327,1.927-0.817L89.49,49.543z"/>
		<g>
			<path style="fill:#fff;" d="M79.038,77.213c0.014-1.19,1.774-8.516,1.933-11.998c0.016-0.383-0.03-0.797-0.104-1.257
				c-1.503,4.174-4.481,7.967-6.814,10.655c-0.02,1.198-0.027,2.089,0.022,2.337c0.073,0.422,0.734,3.23,1.432,6.26l4.71,4.449
				C79.75,83.924,79.038,78.03,79.038,77.213z"/>
			<path style="fill:#fff;" d="M79.694,90.937C76.316,87.882,65.562,77.59,65.562,77.59c-0.55-0.523-0.584-1.396-0.048-1.937
				c0.52-0.554,1.378-0.582,1.924-0.068l0.845,0.803c1.685-1.697,4.279-4.281,5.929-6.278c1.65-1.991,6.448-7.161,5.312-9.899
				c-0.521-1.247-3.441-6.079-3.441-6.079l0,0c-1.427-2.456-2.892-4.783-4.088-6.293c0,0-6.421-9.838-6.781-10.434
				c-0.346-0.602-0.51-2.314,0.869-2.909c2.343-1.033,8.505-4.273,10.956-5.56c0.742-0.333,1.492-0.625,2.219-0.555
				c0.838,0.09,1.477,0.012,2.601-0.327c0.839-0.254,1.797-0.521,2.82-0.934c0.644-0.271,2.53-1.437,2.66-2.061
				c0.132-0.624-0.88-1.44-1.627-1.803c-0.753-0.353-2.528-0.124-3.513,0c-0.683,0.076-1.769-0.143-2.489,0.168
				c-0.658,0.296-3.71,1.905-4.099,2.037c-0.833,0.278-14.963,3.714-17.689,5.254c-1.059,0.603-2.071,1.726-1.862,3.079
				c1.266,8.162,5.779,17.496,4.931,21.313c-2.93,5.338-7.898,13.156-9.403,15.076c-1.933,2.481-4.063,4.61-6.906,7.453
				c-2.104,2.114-4.364,6.786-5.538,9.419c-0.505,1.129-0.738,2.391-0.761,3.598c-0.032,1.201,0.513,23.404,0.513,23.404
				s11.738-0.078,11.591-5.79c-0.161-5.726-0.473-13.103-0.554-14.634c-0.092-1.516,4.345-6.578,5.515-6.896
				c1.165-0.318,6.989,1.829,7.729,2.481c0.73,0.658,21.473,20.825,24.556,22.878c2.896,1.934,9.924,1.518,13.245,0.964
				C98.56,109.448,83.058,94.003,79.694,90.937z"/>
		</g>
	</g>
</g>
</svg>
