<?xml version="1.0" encoding="iso-8859-1"?>
<!-- Generator: Adobe Illustrator 15.0.2, SVG Export Plug-In . SVG Version: 6.00 Build 0)  -->
<!DOCTYPE svg PUBLIC "-//W3C//DTD SVG 1.1//EN" "http://www.w3.org/Graphics/SVG/1.1/DTD/svg11.dtd">
<svg version="1.1" xmlns="http://www.w3.org/2000/svg" xmlns:xlink="http://www.w3.org/1999/xlink" x="0px" y="0px" width="140px"
	 height="140px" viewBox="0 0 140 140" style="enable-background:new 0 0 140 140;" xml:space="preserve">
<g id="Layer_2">
	<g>
		<path style="fill:#242a30;" d="M112.449,78.655c-9.904,33.342-55.214-24.203-86.872,7c24.039-14.336,45.492,13.25,64.946,15.941
			C109.833,104.272,120.079,89.616,112.449,78.655z"/>
		<path style="fill:#242a30;" d="M44.34,64.861l10.499,6.111c0.699,0.416,1.609,0.18,2.02-0.525
			c0.366-0.634,0.209-1.432-0.354-1.887c0.034,0.02,0.058,0.033,0.058,0.033s1.88-2.205,0.51-1.514
			c-0.118,0.058-0.233,0.1-0.349,0.144c3.815-1.895,8.387-4.065,8.683-4.301c0.429-0.339,1-0.87,1.398-1.362
			c1.343-1.582,4.52-5.387,7.067-8.761c3.426,2.98,8.494,4.882,12.731,6.132c0.986-0.629,1.867-1.182,2.619-1.65
			c0.637-0.408,1.875-0.892,2.633,0.04c0.575,0.693,0.456,1.627,0.034,1.883c-0.122,0.077-0.256,0.161-0.391,0.245
			c-0.308,0.191-0.641,0.401-1,0.63c-5.533,3.49-17.004,10.842-18.774,12.867c-1.429,1.645-1.111,2.898,0.129,4.439
			c0.05,0.068,0.15,0.188,0.283,0.324c0.921,0.354,1.849,0.713,2.777,1.059c3.849,1.459,7.617,2.877,11.358,4.055
			c-1.449-1.801-2.931-3.646-4.232-5.271c-0.57-0.713-0.347-1.432,0.258-1.742c0.605-0.324,10.125-3.984,13.796-5.774
			c0.09-0.044,0.167-0.086,0.254-0.13l6.747,0.019c1.161,0,2.113-0.744,2.12-1.907c0-1.176-1.033-2.026-2.193-2.026l-1.583-0.005
			c1.734-2.75,1.641-5.688,0.148-8.974c-2.631-5.794-9.525-13.1-23.256-20.249c-2.854-1.496-5.118,0.298-6.824,2.321
			c-1.951,2.31-6.815,13.979-8.247,17.264c-0.35,0.774-0.585,1.076-1,1.499c-0.293,0.303-7.052,5.265-10.603,7.865l-5.822-3.389
			c-0.702-0.407-1.612-0.171-2.027,0.534C43.405,63.551,43.641,64.451,44.34,64.861z"/>
		<path style="fill:#242a30;" d="M60.095,44.968c0.94,0.13,2.68-0.238,3.363-0.575c1.373-0.685,5.822-4.342,5.001-9.988
			c-0.44-2.986-2.739-4.487-4.156-4.749c-1.687-0.297-4.091-0.098-5.87,0.733c-1.236,0.572-2.045,1.694-2.271,3.11
			c-0.362,2.284,0.787,7.78,1.482,9.688C58.009,44.206,58.899,44.794,60.095,44.968z"/>
	</g>
</g>
</svg>
