<?xml version="1.0" encoding="iso-8859-1"?>
<!-- Generator: Adobe Illustrator 15.0.2, SVG Export Plug-In . SVG Version: 6.00 Build 0)  -->
<!DOCTYPE svg PUBLIC "-//W3C//DTD SVG 1.1//EN" "http://www.w3.org/Graphics/SVG/1.1/DTD/svg11.dtd">
<svg version="1.1" xmlns="http://www.w3.org/2000/svg" xmlns:xlink="http://www.w3.org/1999/xlink" x="0px" y="0px" width="140px"
     height="140px" viewBox="0 0 140 140" style="enable-background:new 0 0 140 140;" xml:space="preserve">
<g id="Layer_2">
    <g>
        <path style="fill:#242a30;" d="M58.416,38.407c0.781,0.429,2.436,0.657,3.16,0.574c1.334-0.151,5.913-1.75,7.366-6.279
            c0.151,0.035,0.298,0.062,0.447,0.062c1.313,0,2.388-1.314,2.388-2.919c0-1.61-1.074-2.911-2.388-2.911
            c-0.421,0-0.82,0.152-1.17,0.396c-0.369-0.499-0.792-0.879-1.174-1.108c-1.396-0.801-3.575-1.403-5.42-1.237
            c-1.279,0.125-2.347,0.851-3.01,2.026c-1.052,1.902-1.807,7.137-1.807,9.052C56.81,37.08,57.406,37.875,58.416,38.407z"/>
        <path style="fill:#242a30;" d="M58.271,40.333c-4.946-2.166-13.051-5.81-15.941-7.248c-3.688-1.847-16.978-9.142-18.397-9.467
            c-1.429-0.326,0.27,2.58,2.368,4.038c1.811,1.259,10.829,7.738,13.292,9.489c2.183,1.535,7.917,5.99,11.431,8.714
            C52.951,42.911,55.353,40.851,58.271,40.333z"/>
        <path style="fill:#242a30;" d="M83.864,59.96c-3.222-1.64-15.241,2.836-18.996,0.573c-0.188-2.716,1.078-4.598,2.352-7.192
            c0.511-1.045,1.202-2.621,1.645-4.274c2.919-2.275,10.556-8.236,13.155-10.062c2.467-1.743,11.5-8.237,13.307-9.496
            c2.082-1.445,3.774-4.357,2.35-4.038c-1.432,0.332-14.708,7.622-18.387,9.474c-2.961,1.474-9.49,4.489-14.484,6.675
            c-4.909-1.178-6.921-0.367-9.859,3.194c-4.81,5.831-2.368,13.624-1.605,18.661c0.07,0.447,0.16,0.897,0.254,1.326
            c-2.639,3.728-9.951,14.038-11.592,16.653c-1.539,6.246,17.195,4.33,27.432-1.023C79.53,75.155,88.665,67.071,83.864,59.96z"/>
        <path style="fill:#242a30;" d="M57.532,97.664c0.144,1.818,0.481,26.682,1.078,28.34c2.854-0.449,4.35-3.256,4.495-5.213
            c0.153-1.957,2.046-17.393,2.403-21.01c0.153-1.527,0.998-9.793,1.753-15.512c-3.009,1.201-6.41,2.184-9.773,2.82
            C57.446,92.084,57.454,96.717,57.532,97.664z"/>
        <path style="fill:#242a30;" d="M111.723,80.076c0,0-14.297-5.441-25.811-9.771c-1.707,2.759-4.31,5.228-7.049,7.294l10.299,2.361
            c0,0,19.802,4.902,26.004,5.443C120.704,85.895,111.723,80.076,111.723,80.076z"/>
    </g>
</g>
</svg>
