<svg version="1.1" id="Layer_2" xmlns="http://www.w3.org/2000/svg" xmlns:xlink="http://www.w3.org/1999/xlink" x="0" y="0" width="140" height="140" viewBox="0 0 140 140" xml:space="preserve" enable-background="new 0 0 140 140">
     <defs>
        <style type="text/css">
            <![CDATA[
               path{
                 //fill: #fff;
                 fill: #242a30;
               }
            ]]>
        </style>
      </defs>
  <path d="M66.675 101.885c12.5 0 34-1.062 35.162-2.362 1.71-1.913-10.53-24.169-14.166-30.778 -7.687 2.976 2.57 22.662 1.513 22.571 -2.207-0.19-6.672-0.334-12.678-0.825 0-1.688-1.662-3.914-4.011-4.592C61.39 82.693 67.8 74.015 67.8 68.871c0-1.42 0.613-6.134-6.282-6.134 -2.812 0-5.422 2.624-6.208 3.497 -4.355 4.843-7.32 16.377-7.951 17.284C44.952 86.981 37.29 98.969 37.29 98.969c-2.904 0.271-9.284 1.319-9.284 2.652 0 0.471 7.744 0.373 10.889 0.364 0.932-0.002 7.962-6.568 12.216-11.378 2.869-3.598 4.371-6.315 5.961-9.795 0.314-0.688 1.127-0.992 1.815-0.677 0.689 0.314 0.992 1.128 0.678 1.816 -1.748 3.823-3.392 6.772-6.649 10.784C54.895 95.812 61.19 101.885 66.675 101.885z" fill="#231F20"/>
  <path d="M67.953 60.466c-0.645-0.764-1.833-2.741-2.034-3.957 -0.248-1.545 0.274-2.711 1.249-3.726 2.754-2.866 7.422-5.02 11.45-5.604 1.843-0.266 3.541 0.294 4.743 1.601 1.73 1.882 2.906 4.789 3.189 6.998 0.24 1.859-0.739 5.295-4.278 6.999C75.597 65.993 70.715 63.734 67.953 60.466z" fill="#231F20"/>
</svg>
