<?xml version="1.0" encoding="iso-8859-1"?>
<!-- Generator: Adobe Illustrator 15.0.2, SVG Export Plug-In . SVG Version: 6.00 Build 0)  -->
<!DOCTYPE svg PUBLIC "-//W3C//DTD SVG 1.1//EN" "http://www.w3.org/Graphics/SVG/1.1/DTD/svg11.dtd">
<svg version="1.1" xmlns="http://www.w3.org/2000/svg" xmlns:xlink="http://www.w3.org/1999/xlink" x="0px" y="0px" width="140px"
	 height="140px" viewBox="0 0 140 140" style="enable-background:new 0 0 140 140;" xml:space="preserve">
<g id="Layer_2">
	<g>
		<path style="fill:#fff;" d="M25.435,85.656c24.038-14.334,45.499,13.252,64.952,15.941
			c19.303,2.672,29.558-11.99,21.924-22.938C102.401,112.001,57.096,54.447,25.435,85.656z"/>
		<path style="fill:#fff;" d="M64.376,60.692c-0.629-3.922,0.283-6.992,1.824-9.352c-4.438,1.474-13.047,4.308-13.925,4.537
			c-1.156,0.27-15.107,3.057-15.107,3.057s-0.843-0.708-1.325-0.766c-0.772-0.1-2.483,0.448-3.162,0.856
			c-0.317,0.193-0.904,1.578-0.767,2.102c0.319,1.189,1.984,3.361,3.063,3.169c1.535-0.299,3.474-1.384,4.594-1.585
			c1.285-0.247,4.384-0.524,12.219-1.038c0.431-0.026,6.896-0.497,12.578-0.912C64.376,60.739,64.376,60.728,64.376,60.692z"/>
		<path style="fill:#fff;" d="M71.48,46.346c-0.685,0.346-2.436,0.727-3.375,0.586c-1.198-0.174-2.095-0.761-2.468-1.783
			c-0.694-1.923-1.849-7.449-1.481-9.746c0.22-1.423,1.03-2.537,2.276-3.123c1.784-0.844,4.203-1.039,5.906-0.741
			c1.424,0.266,3.725,1.777,4.17,4.772C77.344,41.981,72.87,45.66,71.48,46.346z"/>
		<path style="fill:#fff;" d="M97.637,55.836c-2.767-1.257-13.688-7.655-18.01-8.424c-1.613-0.29-3.044-0.331-3.883-0.276
			c-4.92,0.352-8.226,4.633-8.751,9.497c-0.639,5.897,3.809,11.416,5.669,21.342c0.69,0.214,1.386,0.413,2.061,0.63
			c5.191,1.597,10.63,3.761,15.077,4.627c-0.513-3.95-1.91-8.908-2.967-13.896c6.141-3.56,11.938-9.045,12.339-10.089
			C99.778,57.697,99.036,56.474,97.637,55.836z M74.067,66.95l-1.073-3.595l9.35-2.774l1.059,3.603L74.067,66.95z M76.933,77.268
			l-1.07-3.589l9.344-2.767l1.066,3.598L76.933,77.268z M85.871,64.619c-0.352-1.748-0.7-3.567-1.038-5.485
			c0.942,0.151,1.843,0.318,2.677,0.492c1.176,0.249,2.933,0.513,3.003,0.775C90.616,60.789,87.995,62.952,85.871,64.619z"/>
		<g>
			<polygon style="fill:#fff;" points="37.054,53.761 29.467,54.915 29.865,57.565 37.455,56.41 			"/>
			<polygon style="fill:#fff;" points="38.769,64.875 31.173,66.024 31.58,68.666 39.17,67.524 			"/>
		</g>
	</g>
</g>
</svg>
