<svg version="1.1" id="Layer_2" xmlns="http://www.w3.org/2000/svg" xmlns:xlink="http://www.w3.org/1999/xlink" x="0" y="0" width="140" height="140" viewBox="0 0 140 140" xml:space="preserve" enable-background="new 0 0 140 140">
     <defs>
        <style type="text/css">
            <![CDATA[
               path{
                 fill: #fff;
                 //fill: #242a30;
               }
            ]]>
        </style>
      </defs>
  <path d="M96.423 100.396c-0.059-0.579-0.196-1.159-0.426-1.726 -0.227-0.566-0.529-1.08-0.888-1.537 0 0-16.46-18.26-19.499-21.575 -0.527-0.575-0.483-1.471 0.095-1.996 0.579-0.525 1.472-0.481 1.995 0.095l2.076 2.284c0.504-1.488 1.322-3.298 2.64-5.042 3.865-5.114 4.699-9.536 4.748-17.652 0-3.532 3.791-12.504 4.707-19.53 0.135-1.023-0.614-1.873-1.422-2.332 -2.158-1.225-11.247-3.742-13.129-4.257 -0.638-0.176-1.215-1.464-1.858-1.743 -0.574-0.253-1.498-0.366-1.857-0.347 -0.357 0.022-1.318 1.473-1.449 1.898 -0.122 0.405-0.108 1.607-0.03 2.049 0.072 0.408 1.339 1.126 1.918 1.372 0.688 0.291 1.534-1.124 2.476-0.574 1.677 0.954 6.468 3.664 8.379 4.633 1.016 0.515 1.018 1.314 0.652 2.216 -0.481 1.193-4.199 8.776-4.199 8.776 -1.178 2.171-7.483 4.337-11.703 5.925l0.024 0.003c-0.011 0.001-0.026 0.003-0.037 0.005l0.013-0.008c0 0-8.283-5.805-10.991-8.155 -1.327-1.151-1.804-1.979-1.963-3.107 -0.308-2.171-0.583-11.444-0.647-13.747 0.092-0.77 0.411-2.444 0.452-2.911 0.048-0.594-0.388-1.319-0.494-1.831 -0.155-0.741-0.428-2.076-0.87-2.524 -0.448-0.453-1.283-0.98-1.697-0.726 -0.419 0.254-0.787 1.896-0.821 2.421 -0.052 0.845-0.004 1.587 0.023 2.266 0.036 0.889 0.137 1.363 0.411 1.947 0.119 0.258 0.17 0.543 0.186 0.843 -0.009 0.072-1.148 10.328-1.547 14.337 -0.091 0.925-0.317 2.932 0.437 3.86 2.784 3.414 5.084 5.689 9.397 10.174 5.135 5.338 5.974 11.21 4.126 14.433 -1.375 2.399-5.794 6.759-8.071 10.638 -4.784 8.148-18.136 39.031-21.124 46.641 1.766 0 10.608-0.201 12.074-2.496 2.537-3.971 19.052-34.045 19.713-35.247 2.43 1.937 15.304 11.715 15.635 13.451 0.378 1.988 2.948 15.684 3.937 20.189C88.548 125.146 97.987 126 99 126 98.495 121.349 96.423 100.396 96.423 100.396z" fill="#221F1F"/>
  <path d="M70.26 48.085c0.895 0.11 2.54-0.287 3.184-0.625 1.285-0.673 5.418-4.246 4.51-9.574 -0.484-2.823-2.693-4.205-4.046-4.409 -1.607-0.245-3.883-0.008-5.551 0.827 -1.161 0.578-1.894 1.653-2.078 2.997 -0.292 2.176 0.92 7.36 1.622 9.158C68.272 47.418 69.127 47.951 70.26 48.085z" fill="#221F1F"/>
</svg>
