<?xml version="1.0" encoding="iso-8859-1"?>
<!-- Generator: Adobe Illustrator 15.0.2, SVG Export Plug-In . SVG Version: 6.00 Build 0)  -->
<!DOCTYPE svg PUBLIC "-//W3C//DTD SVG 1.1//EN" "http://www.w3.org/Graphics/SVG/1.1/DTD/svg11.dtd">
<svg version="1.1" xmlns="http://www.w3.org/2000/svg" xmlns:xlink="http://www.w3.org/1999/xlink" x="0px" y="0px" width="140px"
     height="140px" viewBox="0 0 140 140" style="enable-background:new 0 0 140 140;" xml:space="preserve">
<g id="Layer_2">
    <g>
        <path style="fill:#242a30;" d="M100.127,52.798c-0.623-0.193-1.922-0.995-2.41-1.639c-0.637-0.809-0.84-1.702-0.463-2.538
            c0.709-1.597,3.258-5.656,4.842-6.839c0.971-0.74,2.113-0.948,3.234-0.581c1.59,0.546,3.18,1.854,4.037,3.043
            c0.727,0.988,1.24,3.276-0.254,5.373C106.275,53.574,101.375,53.199,100.127,52.798z"/>
        <g>
            <path style="fill:#242a30;" d="M97.445,53.512c-2.17-2.385-6.207-5.415-8.744-5.975c-2.547-0.574-11.504-1.501-12.445-1.584
                c-0.932-0.076-12.266-1.246-13.525-1.39c-1.279-0.138-5.365-0.428-5.781,0.712c-0.43,1.121,0.83,2.427,1.684,2.683
                c1.156,0.339,3.387-1.133,4.098-1.133c0.6,0,17.746,4.723,22.766,6.113c-1.754,1.03-3.469,2.088-4.562,2.496
                c-2.559,0.948-5.213,1.688-8.473,1.688c-2.039,0-15.908-7.698-20.344-9.924c-0.604-0.312-1.205-0.637-1.85-0.899
                c-4.922-2.061-20.145-8.369-20.145-8.369s-0.562,3.916,2.344,5.747c1.766,1.1,12.414,7.166,15.297,8.838
                c0.512,0.297,0.949,0.602,1.523,1.065c0.557,0.464,12.365,10.126,13.393,11.066c1.041,0.969,3.205,5.285,4.891,9.606
                c1.02,2.607,6.074,16.648,6.275,17.184c0.193,0.541,0.305,1.473,0.305,1.967c0.006,0.479,0.107,21.404,0.379,24.246
                c0.371,4.15,4.135,4.406,4.135,4.406s3.916-28.369,4.012-28.951c0.104-0.6,0.076-1.549,0-2.066
                c-0.068-0.506-3.432-18.66-3.432-18.66s7.781-0.074,12.596-1.976c4.814-1.904,8.639-7.25,8.703-10.055
                C100.566,58.679,99.619,55.891,97.445,53.512z"/>
            <path style="fill:#242a30;" d="M100.947,64.439c-1.242,3.162-3.721,6.439-7.557,8.257c-0.271,1.377-0.512,2.67-0.639,3.34
                c-0.055,0.201-0.303,0.354-0.471,0.369c-1.688,0.109-5.061,0.344-5.602,0.191c-0.457-0.115-0.256-1.385-0.299-2.137
                c-0.023-0.379-0.828-1.355-1.332-1.355c-0.492,0-1.666,0.49-2.793,1.078c-0.527,0.277-0.506,2.27-0.457,2.602
                c0.082,0.525,2.275,1.514,3.59,2.082c1.402,0.615,8.217,2.268,9.293,2.268c0.52,0,0.895-0.311,1.061-0.604
                c0.883-1.549,3.85-7.627,4.934-10.089C101.266,69.136,101.299,66.86,100.947,64.439z"/>
        </g>
    </g>
</g>
</svg>
