<?xml version="1.0" encoding="iso-8859-1"?>
<!-- Generator: Adobe Illustrator 15.0.2, SVG Export Plug-In . SVG Version: 6.00 Build 0)  -->
<!DOCTYPE svg PUBLIC "-//W3C//DTD SVG 1.1//EN" "http://www.w3.org/Graphics/SVG/1.1/DTD/svg11.dtd">
<svg version="1.1" xmlns="http://www.w3.org/2000/svg" xmlns:xlink="http://www.w3.org/1999/xlink" x="0px" y="0px" width="140px"
	 height="140px" viewBox="0 0 140 140" style="enable-background:new 0 0 140 140;" xml:space="preserve">
<g id="Layer_2">
	<g>
		<path style="fill:#242a30;" d="M37,109v4h7c13.879,1.002,19.201,4.992,25.999,5c6.809-0.008,11.534-3.998,25.403-5H103v-4H37z"/>
		<rect style="fill:#242a30;" x="39" y="115" width="2" height="7"/>
		<rect style="fill:#242a30;" x="99" y="115" width="2" height="7"/>
		<path style="fill:#242a30;" d="M46.198,33.492c0.301,0.298,0.615,0.519,1.215,1.167l0.017-0.014c1.933,5.23,4.235,9.56,4.786,10.332
			c0.885,1.226,2.174,1.269,3.364,0.514c1.034-0.649,2.922-1.778,5.062-3.142c0-0.005,0-0.019,0-0.019
			c-0.359-2.794-0.359-5.525,0.274-8.044c0.228-0.954,0.65-1.812,1.168-2.593c-2.409,2.386-4.989,5.263-7.105,7.517
			c-0.413,0.441-0.921,0.194-1.153,0.117c-0.462-0.166-3.092-4.523-4.219-6.418l0.007-0.005c-0.176-0.705,0.179-1.31-0.292-2.456
			c-0.207-0.539-1.574-1.444-2.345-1.334c-0.897,0.132-2.254,0.871-2.232,1.444c0.038,0.644,0,0.888,0.133,1.168
			C45.002,32.003,45.893,33.18,46.198,33.492z"/>
		<path style="fill:#242a30;" d="M67.775,25.804c0.836,0.103,2.38-0.271,2.978-0.589c1.193-0.621,5.05-3.961,4.216-8.929
			c-0.46-2.64-2.518-3.927-3.777-4.121c-1.507-0.228-3.634-0.014-5.19,0.76c-1.084,0.555-1.767,1.563-1.943,2.809
			c-0.27,2.047,0.865,6.877,1.512,8.556C65.919,25.18,66.728,25.685,67.775,25.804z"/>
		<path style="fill:#242a30;" d="M43.898,76.729c1.227-0.635,1.919-1.85,2.344-2.822c0.442-0.967,4.406-9.396,6.761-15.498
			c0.324-0.837,1.029-0.995,1.602-0.65c0.529,0.341,9.298,4.531,10.646,4.979c1.359,0.445,3.31,0.714,5.693,0.68
			c2.389-0.039,4.952-1.106,6.065-2.269c1.128-1.161,1.627-3.631,0.705-6.022c-2.793-7.332-0.079-12.417-0.005-18.259
			c2.111,0.915,4.192,1.795,6.029,2.53c0.788,0.312,1.052,1.039,0.851,1.779c-0.343,1.193-0.868,2.401-1.962,4.686
			c-0.402,0.667-1.129,1.112-1.328,1.252c-0.216,0.14-1.333,0.762-1.545,1.018c-0.243,0.25-0.916,1.16-1.164,1.867
			c-0.231,0.597,0.248,1.551,1.092,2.143c0.843,0.604,2.174,0.286,2.577-0.217c0.705-0.906,0.933-1.79,1.222-2.465
			c4.312-4.002,7.842-9.396,8.243-10.344c0.599-1.386,0.279-2.077-0.891-2.853c-3.022-2.016-13.818-8.872-19.74-8.711l0.003,0.01
			c-2.812-0.059-7.172,2.027-8.013,7.715c-0.889,5.987,2.068,11.595,1.958,17.392c-5.422-1.08-11.528-2.199-13.575-2.795
			c-2.035-0.587-2.999,0.493-3.69,2.298c-0.567,1.513-6.31,20.318-7.725,25.013C40.696,77.49,42.37,77.512,43.898,76.729z"/>
		<path style="fill:#242a30;" d="M70.961,66.154c-0.034,0-0.062,0-0.084,0c-1.881,0-3.559-0.164-5.113-0.489c0.539,5.753,1.233,11.646,1.361,12.753
			c0.225,1.832,4.325,26.963,4.983,28.627c2.891-0.564,4.3-3.461,4.392-5.453c0.076-1.986-1.812-18.674-2.063-21.418
			c-0.137-1.576,0.882-9.184,1.599-15.132C74.484,65.747,72.731,66.154,70.961,66.154z"/>
	</g>
</g>
</svg>
