<svg version="1.1" id="Layer_2" xmlns="http://www.w3.org/2000/svg" xmlns:xlink="http://www.w3.org/1999/xlink" x="0" y="0" width="140" height="140" viewBox="0 0 140 140" xml:space="preserve" enable-background="new 0 0 140 140">
  <path class="st0" d="M98.1 23.2L84.9 24c-0.3-0.2-0.9-0.3-1.4-0.3 -0.2 0-0.6 0.2-0.9 0.5l-12.5 0.7c0.4-0.6-0.1-1.2-0.6-1.2 -0.9 0-1 0.8-1.2 1 -0.2 0.1-0.5 0.3-0.9 0.4l-13.3 0.8c-0.7 0-1.3 0.7-1.2 1.4 0 0.7 0.6 1.3 1.3 1.3 0 0 0.1 0 0.1 0l10.9-0.6c-0.6 1.7-2.4 12.1-2.8 15.2 -0.1 1.1-1.9 14.8 0.4 22.4h0c0.7 4.5 2.3 11.2 3 14.6 0.3 1.5 0.1 1.7-1.7 2.8 -3.1 2-13.3 8.7-16.1 10.6 -1.6 1.1-1.8 2.4-1.9 3.3 -0.2 1.8 0 25.2 0 28.3 2.5 0.1 5-2.5 5.4-4.7 1-5.8 1.5-14.2 1.8-17 0.2-1.7 1.6-2.7 3.1-3.6 4.1-2.3 8.4-5 11.1-6.5 0.5-1.9 1-3.8 1.7-5.3 0.3-0.7 1.1-1 1.7-0.7 0.7 0.3 1 1.1 0.7 1.7 -1 2.2-2.4 8.1-2.4 9.5 0 2.4 8.2 22.3 10.2 27.5 2.1-0.3 3.7-4.7 3.1-7 -2.5-9.8-5-19.4-5-20.7 0-1.4 4.9-8.2 5.3-11.9 0.3-2.7-1.2-7.4-2.9-11.3 -0.1-1.7-0.2-3.5-0.1-5.1h0c0.7-4.1 2.3-8.2 2.2-12.5 0.1-2.4 0.8-15.7 0.9-16.7 0.1-0.8 1.2-11.1 1.3-12.2 0.1-0.6 0.8-0.5 1.3-0.5 0.7 0 1.7-0.3 1.9-1.2 -1.4-0.1-2.1-1.1-2.1-2.1 0.2 0.6 1.2 1.1 2.3 1.3 0.3 0 0.4 0.1 0.6 0.3l10.1-0.6c0.7 0 1.3-0.7 1.2-1.4C99.5 23.7 98.9 23.2 98.1 23.2zM81.2 28.7c-0.6 1.9-2.9 9.4-3.6 12 -0.7-1-1.7-1.6-2.5-1.8 -1.5-0.4-3.6-0.3-5.2 0.3 -1.1 0.5-1.9 1.4-2.2 2.6 -0.4 2 0.3 6.9 0.8 8.7 0.3 0.9 1 1.5 2.1 1.7 0.8 0.2 2.4-0.1 3-0.3 0.3-0.1 0.7-0.3 1.1-0.7 -0.3 0.9-0.5 1.8-0.7 2.7 -0.8 0.3-1.9 0.4-2.8 0.4 -2.5 0-4.2-1.6-4.6-3.2 -0.5-1.7-1.4-7.1-0.9-9.7 0.3-1.4 1.1-2.6 2.2-3.4 0-3.1-0.2-6.2-0.2-7.7h0c0-0.8 0.5-1.1 1.8-1.1 2.7 0 2.6-1.2 2.5-1.9 -0.1-0.9-0.3-1.3-0.7-1.4 0.8 0 1.5 0.7 1.5 1.5l8.5-0.5C81.4 27 81.4 28.1 81.2 28.7z"/>
</svg>
