<svg version="1.1" xmlns="http://www.w3.org/2000/svg" xmlns:xlink="http://www.w3.org/1999/xlink" x="0" y="0" width="140" height="140" viewBox="0 0 140 140" enable-background="new 0 0 140 140" xml:space="preserve">
    <defs>
        <style type="text/css">
            <![CDATA[
               path{
                 fill: #fff;
                 //fill: #242a30;
               }
            ]]>
        </style>
    </defs>
    <path d="M64.049 55.37c0.668-0.543 1.423-0.981 2.226-1.327 -4.509-3.433-8.719-6.584-11.374-9.056 -3.918-3.645-16.469-15.799-18.127-16.725 -1.664-0.927-0.619 3.326 1.463 5.907 1.807 2.238 9.315 11.813 11.758 14.888 1.754 2.206 6.139 8.178 9.683 13.04C60.383 58.981 61.884 57.13 64.049 55.37z"/>
    <path d="M23 95.759c21.986-12.375 48.492 14.563 68.665 16.565 20.959 2.079 29.683-10.489 21.875-21.854C101.887 118.838 53.922 70.095 23 95.759z"/>
    <path d="M76.788 51.092c-0.835 0.402-2.94 0.837-4.072 0.662 -1.432-0.217-2.496-0.929-2.927-2.157 -0.818-2.317-2.146-8.945-1.683-11.695 0.285-1.7 1.264-3.037 2.76-3.726 2.151-0.991 5.045-1.197 7.084-0.817 1.7 0.315 4.451 2.158 4.949 5.761C83.838 45.924 78.445 50.29 76.788 51.092z"/>
    <path d="M119.53 28.432c-1.741 0.762-15.401 11.652-19.652 14.903 -4.059 3.107-11.318 7.258-18.182 11.689 -1.63-0.45-3.861-0.776-7.058-0.84 -4.63-0.092-7.501 1.174-9.543 3.693 -2.452 3.024-2.76 6.766-2.312 12.378 0.556 6.97 2.574 14.663 2.943 16.88 0.023 0.133 0.043 0.261 0.065 0.392 4.154 1.108 8.21 2.38 12.066 3.592 3.535 1.111 6.984 2.194 10.236 3.064 -0.339-2.205-0.719-4.846-0.938-6.899 -0.746-7.009 0.47-14.279 1.132-17.62 0.236-1.194 0.408-2.707 0.486-4.235 3.202-3.652 12.692-14.561 15.598-17.571 2.728-2.825 11.123-11.634 13.135-13.688C119.825 31.803 121.274 27.67 119.53 28.432z"/>

</svg>
