<?xml version="1.0" encoding="iso-8859-1"?>
<!-- Generator: Adobe Illustrator 15.0.2, SVG Export Plug-In . SVG Version: 6.00 Build 0)  -->
<!DOCTYPE svg PUBLIC "-//W3C//DTD SVG 1.1//EN" "http://www.w3.org/Graphics/SVG/1.1/DTD/svg11.dtd">
<svg version="1.1" xmlns="http://www.w3.org/2000/svg" xmlns:xlink="http://www.w3.org/1999/xlink" x="0px" y="0px" width="140px"
	 height="140px" viewBox="0 0 140 140" style="enable-background:new 0 0 140 140;" xml:space="preserve">
<g id="Layer_2">
	<g>
		<path style="fill:#fff;" d="M24.783,95.772c21.247-11.964,46.86,14.074,66.352,16.009c20.257,2.003,28.679-10.144,21.134-21.12
			C101.016,118.066,54.658,70.964,24.783,95.772z"/>
		<g>
			<g>
				<path style="fill:#fff;" d="M58.213,46.972H50.77c-0.97,0-1.77-0.792-1.77-1.771s0.8-1.771,1.77-1.771h7.443
					c0.98,0,1.766,0.792,1.766,1.771S59.193,46.972,58.213,46.972z"/>
			</g>
			<g>
				<path style="fill:#fff;" d="M59.712,40.785c-0.263,0-0.519-0.055-0.768-0.177l-6.706-3.228
					c-0.88-0.423-1.254-1.488-0.822-2.366c0.42-0.879,1.482-1.249,2.361-0.829l6.699,3.232c0.884,0.426,1.254,1.481,0.829,2.361
					C61.002,40.416,60.371,40.785,59.712,40.785z"/>
			</g>
			<g>
				<path style="fill:#fff;" d="M63.742,35.859c-0.516,0-1.039-0.227-1.381-0.667l-4.635-5.814
					c-0.609-0.763-0.491-1.879,0.276-2.486c0.763-0.616,1.886-0.49,2.485,0.277l4.643,5.81c0.613,0.768,0.484,1.881-0.281,2.491
					C64.523,35.73,64.135,35.859,63.742,35.859z"/>
			</g>
		</g>
		<g>
			<path style="fill:#fff;" d="M78.685,56.261c-1.148-0.156-2.487-0.248-4.072-0.248c-1.362,0-2.404-0.009-3.53,0.059
				l3.96,11.969L78.685,56.261z"/>
			<path style="fill:#fff;" d="M104.933,72.425c-3.392-3.14-15.886-14.073-23.661-15.696l-6.229,19.396l-6.766-19.738
				c-3.729,0.72-8.146,3.539-8.146,3.539s2.69-4.7,4.032-7.951c1.176-2.856-0.396-5.269-1.368-4.157
				c-1.806,2.077-12.49,16.517-14.76,20.409c-2.268,3.895-0.216,4.448,1.162,4.086c0.976-0.256,7.917-2.164,13.45-4.342
				c0.264-1.591,0.699-3.16,1.294-4.019c-0.056,1.619-0.015,3.376,0.069,5.251c0.006,0.081,0.015,0.131,0.015,0.131
				c0.303,7.032,2.086,18.667,2.102,18.795c4.019,1.066,7.935,2.299,11.668,3.465c3.409,1.072,6.743,2.127,9.889,2.967
				c-0.193-1.26-0.395-2.662-0.582-4.01c0.027,0.029,0.058,0.068,0.085,0.098c0.969,0.939,2.751,0.82,3.388,0.242
				c1.099-1.01,1.569-2.102,2.08-2.918c6.418-4.283,12.119-10.533,12.846-11.676C106.549,74.632,106.279,73.669,104.933,72.425z
				 M95.815,77.481c-0.679,1.453-1.589,2.891-3.423,5.531c-0.638,0.844-1.757,1.322-2.061,1.461
				c-0.312,0.139-1.866,0.719-2.226,0.996c-0.264,0.207-0.906,0.822-1.418,1.473c-0.555-6.48,0.238-13.08,1.181-16.08
				c0.029-0.09,0.058-0.207,0.081-0.324c2.5,1.589,4.959,3.136,7.15,4.46C96.051,75.565,96.253,76.562,95.815,77.481z"/>
		</g>
		<path style="fill:#fff;" d="M74.769,52.645c-0.856,0.229-2.931,0.278-3.982-0.097c-1.321-0.449-2.206-1.316-2.392-2.56
			c-0.375-2.345-0.465-8.88,0.455-11.411c0.573-1.563,1.737-2.663,3.28-3.05c2.226-0.559,5.005-0.248,6.875,0.474
			c1.561,0.593,3.849,2.832,3.688,6.344C82.383,48.97,76.489,52.174,74.769,52.645z"/>
	</g>
</g>
</svg>
