<?xml version="1.0" encoding="iso-8859-1"?>
<!-- Generator: Adobe Illustrator 15.0.2, SVG Export Plug-In . SVG Version: 6.00 Build 0)  -->
<!DOCTYPE svg PUBLIC "-//W3C//DTD SVG 1.1//EN" "http://www.w3.org/Graphics/SVG/1.1/DTD/svg11.dtd">
<svg version="1.1" xmlns="http://www.w3.org/2000/svg" xmlns:xlink="http://www.w3.org/1999/xlink" x="0px" y="0px" width="140px"
	 height="140px" viewBox="0 0 140 140" style="enable-background:new 0 0 140 140;" xml:space="preserve">
<g id="Layer_2">
	<g>
		<path style="fill:#242a30;" d="M50.216,66.545c0.833-0.462,4.021-2.711,6.468-4.994c-0.027-0.04-0.042-0.09-0.056-0.123
			c-0.481-1.341-2.124-6.688-0.371-11.606c-2.158,2.705-4.543,5.999-5.276,7.069c-0.325-2.379-0.99-7.269-0.99-7.269
			s4.129-0.857,4.668-1.841c0.543-0.973,0.568-2.013-2.095-1.72c-1.535,0.177-2.725-0.153-3.763,0.511
			c-0.988,0.643-1.304,0.775-1.727,1.861c-0.438,1.085-1.088,8.139,0.102,17.351C47.37,67.222,49.022,67.195,50.216,66.545z"/>
		<path style="fill:#242a30;" d="M105.027,42.532c0,5.784-3.145,10.478-7.007,10.478s-7.002-4.694-7.002-10.478
			c0-5.785,3.14-10.485,7.002-10.485S105.027,36.748,105.027,42.532z"/>
		<path style="fill:#242a30;" d="M99.694,109.563c-2.849-1.893-12.926-8.137-15.373-9.693c-0.637-0.395-0.685-1.037-0.734-1.84
			c-0.193-3.598-0.479-12.857-0.719-16.703c-0.319-5.02-2.373-8.613-3.497-10.992c-0.979-2.069-1.268-6.488-1.565-9.819
			c-0.974-1.183-1.883-2.312-2.511-3.149c-0.449-0.605-0.33-1.458,0.277-1.914c0.601-0.457,1.437-0.332,1.898,0.253V55.7
			c2.99,3.826,6.657,8.867,8.896,8.867c1.212,0,2.034-0.456,2.276-1.841c1.203-7.052-1.523-17.754-1.523-18.286
			c0-0.547,0.438-0.327,1.419,0c0.084,0.02,0.166,0.041,0.279,0.041c-0.113-0.803-0.163-1.604-0.163-2.441
			c0-0.346,0.016-0.693,0.027-1.024c-0.8-0.008-1.547,0.028-1.996,0.056c-1.513,0.103-2.275,0.761-2.601,1.625
			s-0.222,6.144-0.325,9.181c-1.434-2.074-4.911-5.562-6.965-7.007c-1.95-1.377-4.15-1.377-6.064-1.196
			c-3.721,0.194-8.021,1.252-9.247,1.94c-2.601,1.477-4.294,4.809-3.616,10.099c0.49,3.853,4.08,11.062,6.134,17.788
			c0.583,1.926,0.289,2.807-0.685,2.902c-5.055,0.498-18.479,4.725-20.254,5.762c-0.99,0.576-1.233,1.625-1.09,2.635
			c0.277,1.965,6.121,26.113,7.029,29.275c2.606-0.65,4.369-3.391,4.147-5.775c-0.581-6.348-1.437-15.229-1.437-17.844
			c0-1.438,0.261-1.777,1.551-1.922c7.286-0.83,15.517-2.219,19.05-3.693c0.435,5.859,1.337,14.441,4.102,21.027
			c0.359,0.861,0.831,1.477,1.665,1.713c3.839,1.086,18.612,5.822,23.931,6.783C102.012,114.364,102.405,111.37,99.694,109.563z"/>
		<path style="fill:#242a30;" d="M66.396,42.064c-0.671,0.324-2.352,0.683-3.262,0.552c-1.15-0.156-2-0.725-2.361-1.708
			c-0.677-1.847-1.779-7.151-1.432-9.363c0.228-1.362,0.994-2.448,2.189-3.003c1.726-0.809,4.043-0.994,5.674-0.709
			c1.377,0.248,3.591,1.699,4.012,4.597C72.019,37.873,67.711,41.415,66.396,42.064z"/>
		<path style="fill:#242a30;" d="M41.29,46.876c-0.03,0-0.078,0-0.104,0c-0.713,0-1.314-0.545-1.364-1.262
			c-0.054-0.758,0.512-1.428,1.26-1.469l4.592-0.354c-0.533-4.081-3.133-7.187-6.271-7.187c-3.523,0-6.372,3.909-6.372,8.721
			c0,4.821,2.849,8.729,6.372,8.729c3.22,0,5.877-3.279,6.304-7.518L41.29,46.876z"/>
	</g>
</g>
</svg>
