<?xml version="1.0" encoding="iso-8859-1"?>
<!-- Generator: Adobe Illustrator 15.0.2, SVG Export Plug-In . SVG Version: 6.00 Build 0)  -->
<!DOCTYPE svg PUBLIC "-//W3C//DTD SVG 1.1//EN" "http://www.w3.org/Graphics/SVG/1.1/DTD/svg11.dtd">
<svg version="1.1" id="Layer_1" xmlns="http://www.w3.org/2000/svg" xmlns:xlink="http://www.w3.org/1999/xlink" x="0px" y="0px"
     width="140px" height="140px" viewBox="0 0 140 140" style="enable-background:new 0 0 140 140;" xml:space="preserve">
<g id="Layer_2">
    <g>
        <path style="fill:#242a30;" d="M56.099,47.999c-3.051-1.583-9.43-6.806-10.354-7.545c-0.968-0.768-1.421-1.119-2.005-2.081
            c-0.571-0.968-7.919-11.011-7.919-11.785c0-0.768-1.229-3.86-1.229-5.208c0-1.355,0.188-4.245-0.576-3.865
            c-0.782,0.388-1.735,4.054-1.936,5.414c-0.197,1.354,0.58,3.481,0.773,4.062c0.195,0.573,5.541,14.344,5.93,15.311
            c0.389,0.967,0.52,1.584,1.475,2.594c1.305,1.371,10.398,9.623,12.264,11.091c0.014-0.026,0.014-0.054,0.021-0.074
            C53.533,51.603,54.729,49.271,56.099,47.999z"/>
        <path style="fill:#242a30;" d="M72.802,82.727c-1.723-0.608-3.241-1.283-4.629-2.039c-0.301,6.508,0.014,16.599,0.145,18.023
            c0.139,1.734,3.202,25.689,3.764,27.281c2.766-0.428,4.193-3.135,4.34-5.021c0.146-1.879-0.277-17.625-0.428-20.242
            C75.906,99.109,77,89.577,77.863,84.18C76.145,83.791,74.436,83.314,72.802,82.727z"/>
        <path style="fill:#242a30;" d="M107.734,50.584c-0.266-0.615-0.506-1.098-0.771-1.493c0-0.007,0-0.02,0-0.028c0,0-0.016,0-0.019,0
            c-0.489-0.716-1.041-1.134-1.901-1.376c-1.369-0.401-16.426-0.298-20.112-0.401c-4.195-0.096-16.778-1.348-23.412,0.146
            c-3.47,0.725-5.016,2.08-5.88,5.779c-1.629,6.911,2.119,14.524,4.699,17.4c4.169,4.662,7.688,7.516,13.386,9.541
            c11.082,3.943,25.909,2.893,27.444,2.705c1.547-0.191,2.965-1.541,3.093-3.09c0.125-1.476,1.754-19.818,2.438-27.584
            C107.675,52.397,108.302,51.817,107.734,50.584z M96.917,75.135c-1.933-0.203-8.461-1.6-11.354-2.373
            c-2.862-0.768-3.812-3.573-5.653-4.499c-3.144-1.578-3.966-0.781-7.107-2.462c-2.163-1.154-3.051-4.081-3.393-6.992
            c-0.115-1.01-0.129-2.675-0.254-4.454c2.898-0.455,13.148-2.128,16.396-2.504c2.891-0.33,13.49-1.846,15.617-1.846
            c1.342,0,1.375,0.687,1.41,1.516C101.396,54.927,97.284,71.787,96.917,75.135z"/>
        <path style="fill:#242a30;" d="M56.012,45.687c0.851,0.326,2.542,0.35,3.257,0.189c1.412-0.332,6.311-2.782,6.752-8.182
            c0.234-2.856-1.575-4.752-2.822-5.291c-1.512-0.637-3.777-0.976-5.613-0.574c-1.27,0.276-2.248,1.135-2.755,2.394
            c-0.835,2.056-0.938,7.386-0.706,9.309C54.255,44.555,54.95,45.274,56.012,45.687z"/>
    </g>
</g>
</svg>
