<svg version="1.1" xmlns="http://www.w3.org/2000/svg" xmlns:xlink="http://www.w3.org/1999/xlink" x="0" y="0" width="140" height="140" viewBox="0 0 140 140" enable-background="new 0 0 140 140" xml:space="preserve">
    <defs>
        <style type="text/css">
            <![CDATA[
               path, polygon{
                 fill: #fff;
                 //fill: #242a30;
               }
            ]]>
        </style>
    </defs>
    <path d="M99.696 37.415c-3.146-2.093-14.303-9.025-20.254-9.025 -3.335 0-7.652 1.927-8.55 7.995 -0.955 6.451 2.394 12.472 1.999 18.726 -5.402-0.606-11.535-1.123-14.201-1.358 -2.546-0.225-3.671 0.813-3.82 2.372 -0.124 1.285 5.302 23.538 6.808 29.836 3.476-1.054 4.004-4.793 3.897-6.27 -0.207-2.84-1.119-10.995-1.968-16.907 -0.132-0.915 0.146-1.011 0.795-0.779 1.169 0.417 4.455 1.468 7.886 2.61 6.955 2.316 11.057 0.697 13.076-1.887 1.954-2.501 0.955-5.128 0.719-5.749 -2.904-7.608-0.078-12.879-0.003-18.944 2.19 0.948 4.349 1.859 6.256 2.624 0.812 0.325 1.094 1.083 0.873 1.857 -0.348 1.216-0.887 2.452-1.982 4.756 -0.395 0.742-1.21 1.255-1.428 1.398 -0.225 0.148-1.375 0.797-1.616 1.059 -0.242 0.262-0.939 1.21-1.202 1.931 -0.229 0.627 0.255 1.611 1.136 2.234 0.881 0.617 2.261 0.302 2.679-0.236 1.115-1.434 0.946-2.17 1.566-2.833 2.005-2.145 7.351-8.342 8.259-10.452C101.24 38.936 100.904 38.22 99.696 37.415z"/>
    <path d="M68.448 35.112c0.612-3.514 3.282-5.812 6.36-7.161 -4.886-2.801-12.3-7.335-15.43-9.405 -2.273-1.504-10.173-6.764-10.749-7.157 -0.437-0.298-0.194-1.454-0.996-2.552 -0.354-0.485-1.926-1.118-2.677-0.833 -0.89 0.338-2.088 1.381-1.946 1.954 0.168 0.679 0.174 0.934 0.39 1.161 1.693 1.77 1.971 1.438 2.71 2.154 0.694 0.673 7.584 7.322 9.84 9.408 2.541 2.356 10.262 10.295 12.401 12.482L68.448 35.112z"/>
    <path d="M78.447 25.809c-0.624 0.328-2.219 0.712-3.086 0.606 -1.098-0.13-1.926-0.647-2.287-1.575 -0.679-1.744-1.856-6.768-1.573-8.876 0.179-1.303 0.889-2.347 2.015-2.907 1.617-0.811 3.822-1.038 5.38-0.802 1.311 0.199 3.453 1.538 3.921 4.275C83.699 21.695 79.693 25.158 78.447 25.809z"/>
    <path d="M84.373 67.025c-1.597 0.862-3.439 1.361-5.315 1.361 -1.948 0-3.73-0.18-5.388-0.54 0.555 5.998 1.286 12.164 1.423 13.318 0.225 1.898 4.476 27.985 5.171 29.704 2.995-0.577 4.464-3.584 4.551-5.65 0.086-2.069-1.877-19.38-2.134-22.231C82.528 81.322 83.616 73.235 84.373 67.025z"/>
    <polygon fill="#231F20" points="95.214 126.958 66.914 126.958 68.284 114.348 93.845 114.348 "/>

</svg>
