<?xml version="1.0" encoding="iso-8859-1"?>
<!-- Generator: Adobe Illustrator 15.0.2, SVG Export Plug-In . SVG Version: 6.00 Build 0)  -->
<!DOCTYPE svg PUBLIC "-//W3C//DTD SVG 1.1//EN" "http://www.w3.org/Graphics/SVG/1.1/DTD/svg11.dtd">
<svg version="1.1" xmlns="http://www.w3.org/2000/svg" xmlns:xlink="http://www.w3.org/1999/xlink" x="0px" y="0px" width="140px"
	 height="140px" viewBox="0 0 140 140" style="enable-background:new 0 0 140 140;" xml:space="preserve">
<g id="Layer_2">
	<g>
		<path style="fill:#fff;" d="M32.197,61.917c-0.667,0.464-2.432,1.121-3.428,1.121c-1.266,0-2.281-0.469-2.814-1.472
			c-1.015-1.891-3.042-7.429-3.015-9.862c0.028-1.508,0.69-2.788,1.887-3.59c1.723-1.149,4.194-1.702,5.996-1.655
			c1.516,0.057,4.137,1.275,5.049,4.325C37.579,56.522,33.515,61.002,32.197,61.917z"/>
		<g>
			<path style="fill:#fff;" d="M116.513,91.308c-2.202-2.072-10.775-7.882-18.517-14.134
				c-7.813-6.323-14.599-13.334-15.872-14.677c-1.176-2.006-3.464-4.121-6.458-5.055c-1.107-0.387-2.828-0.862-8.188-0.853
				c-5.996,0.027-13.995-3.821-21.176-3.821c-1.189,0-3.229,0.081-5.323,1.146c-1.856,0.954-2.673,1.839-3.405,3.467
				c-0.775,1.727-0.655,3.396-0.548,4.402c0.46,3.824,6.965,21.109,7.069,21.806c0.597,3.549,2.918,15.873,2.918,15.873
				c-2.214,0.623-7.98,0.955-7.98,2.322c0,0.215,8.452,0.223,10.997,0.176c1.038-0.014,0.704-13.703-0.455-17.479
				c-1.064-3.438-1.583-8.375-2.212-13.999c4.845,1.495,13.456,0.879,17.018,0.735c3.562-0.141,7.711-0.602,9.779,0.346
				c0.935,0.426,7.376,5.379,11.978,8.678c8.686,6.234,31.889,18.8,31.889,18.8S121.158,95.728,116.513,91.308z"/>
			<path style="fill:#fff;" d="M84.725,83.002c-4.032,0.09-7.371,0.24-7.975,0.285c-0.601,0.041-1.153-0.422-0.972-1.053
				c0.517-1.826,0.91-3.479,1.216-4.869c-1.757-1.342-3.659-2.801-4.221-3.057c-0.892-0.416-2.91-0.352-5.516-0.199
				c-1.281,5.539-2.021,11.832-2.463,15.682c-0.235,2.078,0.346,3.508,2.103,3.232c2.275-0.355,13.252-2.061,26.557-4.393
				C92.882,88.256,86.25,83.92,84.725,83.002z"/>
		</g>
	</g>
</g>
</svg>
