<?xml version="1.0" encoding="iso-8859-1"?>
<!-- Generator: Adobe Illustrator 15.0.2, SVG Export Plug-In . SVG Version: 6.00 Build 0)  -->
<!DOCTYPE svg PUBLIC "-//W3C//DTD SVG 1.1//EN" "http://www.w3.org/Graphics/SVG/1.1/DTD/svg11.dtd">
<svg version="1.1" id="Layer_1" xmlns="http://www.w3.org/2000/svg" xmlns:xlink="http://www.w3.org/1999/xlink" x="0px" y="0px"
	 width="140px" height="140px" viewBox="0 0 140 140" xml:space="preserve">
<g id="Layer_2">
	<g>
		<path style="fill:#242a30;" d="M76.027,86.35c-3.979-1.979-6.984-3.881-9.208-5.527c-0.121,6.603-0.177,16.229-0.048,17.639
			c0.138,1.751,3.227,25.916,3.812,27.532c2.773-0.437,4.227-3.163,4.367-5.065c0.154-1.898-0.287-17.785-0.424-20.418
			C74.445,99.1,75.242,91.818,76.027,86.35z"/>
		<path style="fill:#242a30;"  d="M67.243,41.043c-0.693,0.069-2.313-0.156-3.075-0.565c-0.974-0.52-1.55-1.304-1.55-2.283c0-1.863,0.722-6.945,1.759-8.793
			c0.629-1.145,1.674-1.854,2.916-1.965c1.792-0.154,3.908,0.409,5.275,1.207c1.129,0.659,2.642,2.669,2.074,5.382
			C73.598,39.118,68.641,40.882,67.243,41.043z"/>
		<path style="fill:#242a30;" d="M84.753,56.966c-1.995-2.602-6.961-7.765-8.551-9.513c0.706,3.756-0.513,8.561-0.703,9.358
			c0.642,0.626,1.269,1.256,1.716,1.709c0.459,0.457,0.236,1.211,0.014,1.569c-0.076,0.153-0.955,1.688-1.914,3.418
			c0.633,0.987,1.473,1.603,2.851,2.366c2.56-2.937,6.003-6.583,6.478-7.18C85.134,58.076,85.16,57.519,84.753,56.966z"/>
		<path style="fill:#242a30;" d="M114.186,96.581c-4.062-2.433-15.101-9.753-18.56-11.828c-3.071-1.842-8.979-6.089-12.599-9.722
			c-2.11-2.109-2.766-4.316-4.84-5.872c-2.848-2.118-4.008-2.104-5.521-4.493c-1.674-2.617-1.034-4.917-0.17-7.933
			c0.85-3.011,4.482-11.046-0.28-12.462c-1.432-0.411-2.522-0.618-3.739-0.903c-1.214-0.271-15.704-4.986-20.065-6.631
			c-2.218-0.833-5.85-2.153-10.344-4.062h-0.006c0.62-2.423-0.395-5.87-1.187-5.779c-2.388,0.293,0.021,4.577-2.634,5.794
			c-0.603,0.102-1.19,0.206-1.775,0.289c-1.634,0.229-1.401,0.827,0.036,0.855c1.812,0.034,2.491,0.5,3.973,1.349
			c3.562,2.018,7.894,4.739,9.692,5.753c2.628,1.479,10.285,6.264,13.486,8.264c-2.459,5.66-1.586,12.542-0.429,15.749
			c2.221,6.175,4.531,9.88,9.26,13.746c4.355,3.564,23.3,12.306,24.729,12.967c3.355,1.556,18.861,9.143,23.936,11.449
			C117.15,103.111,118.79,99.342,114.186,96.581z"/>
		<path style="fill:#242a30;" d="M33.96,29.521c-0.015-0.2-0.021-0.41-0.028-0.589c-0.054-2.029,0.868-3.444,2.598-3.994
			c-0.651-3.327-3.582-5.838-7.109-5.838c-4.001,0-7.244,3.242-7.244,7.257c0,4,3.243,7.241,7.244,7.241
			c1.562,0,2.979-0.481,4.148-1.307C34.222,31.479,33.993,30.139,33.96,29.521z"/>
	</g>
</g>
</svg>
