<svg version="1.1" xmlns="http://www.w3.org/2000/svg" xmlns:xlink="http://www.w3.org/1999/xlink" x="0" y="0" width="140" height="140" viewBox="0 0 140 140" enable-background="new 0 0 140 140" xml:space="preserve">
         <defs>
        <style type="text/css">
            <![CDATA[
               path{
                 fill: #fff;
                 //fill: #242a30;
               }
            ]]>
        </style>
      </defs>
    <path d="M93.247 21.236c-4.827-5.213-11.05-7.856-18.498-7.856 -7.463 0-13.925 3.183-18.688 9.207 -3.749 4.74-6.136 10.993-7.272 17.025 0.472-0.163 0.977-0.255 1.5-0.255 1.051 0 2.118 0.33 2.931 0.909 0.257 0.183 0.522 0.374 0.783 0.574 0.919-5.145 2.899-10.663 6.268-14.924 3.762-4.757 8.633-7.168 14.478-7.168 5.892 0 10.79 2.064 14.56 6.135 3.975 4.292 6.221 10.327 7.369 15.68 0.14-0.102 0.28-0.202 0.417-0.3 0.808-0.575 1.875-0.905 2.926-0.905 0.716 0 1.402 0.166 2.005 0.466C100.793 33.734 98.239 26.625 93.247 21.236z"/>
    <path d="M64.159 61.581c-0.699 0.325-1.427 0.701-2.182 1.135 0 0-3.286 2.181-4.642 3.017 -1.055 0.653-1.41 0.429-1.656-0.275 -0.206-0.587-3.723-11.451-3.723-14.471 0-0.628 1.093-1.527 1.324-2.368 0.231-0.841 0.507-3.654 0.309-4.295 -0.197-0.639-1.066-1.258-1.932-1.876 -0.514-0.366-1.538-0.6-2.251-0.194 -0.715 0.407-2.246 2.132-2.246 2.629 0 0.36 0.563 3.644 0.69 5.845 0.019 0.739 0.467 17.385 1.881 24.885 0.347 1.837 1.041 1.89 2.423 1.751 1.977-0.198 5.409-1.085 8.032-1.823C59.472 70.095 61.233 64.672 64.159 61.581z"/>
    <path d="M23.063 96.212c21.98-12.371 48.48 14.56 68.648 16.561 20.954 2.079 29.675-10.487 21.87-21.848C101.931 119.285 53.977 70.555 23.063 96.212z"/>
    <path d="M76.837 56.171c-0.833 0.402-2.939 0.837-4.071 0.662 -1.431-0.217-2.495-0.929-2.927-2.156 -0.818-2.317-2.146-8.944-1.683-11.692 0.285-1.7 1.263-3.037 2.761-3.725 2.15-0.991 5.044-1.197 7.081-0.818 1.7 0.314 4.45 2.158 4.948 5.761C83.885 51.003 78.493 55.369 76.837 56.171z"/>
    <path d="M100.903 42.403c-0.713-0.406-1.738-0.172-2.251 0.194 -0.866 0.618-1.735 1.237-1.932 1.876 -0.197 0.64 0.079 3.453 0.309 4.295 0.232 0.84 1.324 1.75 1.324 2.368 0 3.151-3.517 13.884-3.722 14.471 -0.247 0.704-0.619 0.956-1.657 0.275 -0.991-0.649-9.302-6.62-18.285-6.62 -6.229 0-11.067 2.937-11.067 13.736 0 4.024 1.594 10.591 2.746 15.124 3.97 1.074 18.036 5.491 21.085 6.328 -0.095-0.736-0.182-1.447-0.251-2.096 -0.717-6.738 0.378-13.708 1.051-17.204 2.569 0.758 7.397 2.112 9.902 2.362 1.382 0.139 2.064 0.084 2.423-1.751 1.386-7.092 1.84-23.81 1.88-24.858 0.107-2.81 0.705-5.332 0.692-5.872C103.138 44.535 101.618 42.81 100.903 42.403z"/>

</svg>
