<svg version="1.1" xmlns="http://www.w3.org/2000/svg" xmlns:xlink="http://www.w3.org/1999/xlink" x="0" y="0" width="140" height="140" viewBox="0 0 140 140" xml:space="preserve" enable-background="new 0 0 140 140">
     <defs>
        <style type="text/css">
            <![CDATA[
               path{
                 fill: #fff;
                 //fill: #242a30;
               }
            ]]>
        </style>
      </defs>
    <path d="M48.958 78.902c-0.578 0.713-1.473 1.678-1.631 2.015 -0.16 0.34-0.561 1.511-0.598 2.317 -0.031 0.701 0.764 1.536 1.844 1.883 1.078 0.342 2.359-0.412 2.613-1.081 0.441-1.162 0.387-2.15 0.463-2.95 0.129-0.227 0.252-0.455 0.375-0.684C50.995 79.867 49.972 79.373 48.958 78.902z" fill="#221F1F"/>
    <path d="M34.379 60.521c-0.685 0.175-2.318 0.184-3.137-0.112 -1.035-0.378-1.723-1.068-1.862-2.049 -0.262-1.852-0.263-6.995 0.494-8.978 0.47-1.226 1.398-2.076 2.617-2.366 1.755-0.418 3.945-0.138 5.406 0.449 1.225 0.49 3.002 2.276 2.834 5.041C40.413 57.722 35.734 60.172 34.379 60.521z" fill="#221F1F"/>
    <path d="M106.396 102.215c-2.063-1.645-9.92-6.492-17.101-11.35 -5.073-3.43-9.745-7.201-12.509-9.525 -0.641 1.982-1.928 3.896-3.77 5.486 -1.048 0.904-2.115 1.662-3.168 2.346l14.917 8.605 23.544 10.68C108.31 108.457 110.771 105.707 106.396 102.215z" fill="#221F1F"/>
    <path d="M41.836 58.001c-3.323 1.958-3.322 5.278-1.583 9.383 2.979 7.03 10.367 8.812 18.411 12.968 -4.446 3.828-9.353 8.334-11.146 10.404 -1.518 1.751-2.01 3.425-0.391 4.714 1.391 1.107 16.41 10.289 22.75 13.529 0.685-0.367 0.904-1.732 0.725-2.811 -0.224-1.359-0.732-2.213-1.609-2.972 -2.4-2.075-7.369-5.98-11.154-9.098 -0.607-0.5-0.411-1.356 0.475-1.815 4.536-2.346 9.906-5.256 12.486-7.382 1.99-1.64 3.021-3.282 3.398-4.999 0.787-3.562-2.813-7.027-5.696-8.648 -0.269 0.78-0.558 1.531-0.911 2.297 -0.242 0.527-1.066 1.102-1.91 0.705 -0.719-0.338-1.038-1.188-0.705-1.91 0.406-0.882 0.727-1.758 1.035-2.719 1.451-5.011 1.834-9.649 1.781-10.56 -0.095-1.643-0.745-2.155-2.258-2.353C61.38 56.194 47.291 54.789 41.836 58.001zM57.362 63.441c0.96-0.064 1.888-0.13 2.764-0.201 0.917-0.074 1.536 0.506 1.692 1.338 0.158 0.857 0.242 1.768 0.297 3.042C60.003 66.104 57.931 63.717 57.362 63.441z" fill="#221F1F"/>
    <path d="M65.384 54.579l19-31.618 -1.234-0.742L63.805 54.41C64.406 54.471 64.943 54.529 65.384 54.579z" fill="#221F1F"/>
</svg>
