<?xml version="1.0" encoding="iso-8859-1"?>
<!-- Generator: Adobe Illustrator 15.0.2, SVG Export Plug-In . SVG Version: 6.00 Build 0)  -->
<!DOCTYPE svg PUBLIC "-//W3C//DTD SVG 1.1//EN" "http://www.w3.org/Graphics/SVG/1.1/DTD/svg11.dtd">
<svg version="1.1" xmlns="http://www.w3.org/2000/svg" xmlns:xlink="http://www.w3.org/1999/xlink" x="0px" y="0px" width="140px"
	 height="140px" viewBox="0 0 140 140" style="enable-background:new 0 0 140 140;" xml:space="preserve">
<g id="Layer_2">
	<g>
		<path style="fill:#242a30;" d="M66.67,43.005c0.95,0.183,2.734-0.131,3.451-0.441c1.425-0.638,6.098-4.17,5.501-9.943
			c-0.317-3.052-2.593-4.688-4.028-5.01c-1.705-0.379-4.153-0.282-6.002,0.493c-1.277,0.553-2.143,1.653-2.439,3.078
			c-0.457,2.309,0.477,7.945,1.1,9.924C64.58,42.148,65.459,42.785,66.67,43.005z"/>
		<path style="fill:#242a30;" d="M61.35,45.893c-3.846-0.194-15.609-1.529-19.666-2.173c-3.579-0.575-16.667-3.209-17.943-3.084
			c-1.281,0.138,0.906,2.268,3.051,2.96c1.853,0.603,11.134,3.774,13.665,4.611c2.476,0.822,12.892,4.743,17.237,6.406
			C57.749,51.118,59.101,47.819,61.35,45.893z"/>
		<path style="fill:#242a30;" d="M116.278,42.709c-1.27-0.202-14.488,1.73-18.077,2.098c-4.145,0.427-15.842,1.104-19.138,1.104
			c-3.308,0-6.264-0.475-9.826-0.683c-1.571-0.097-4.853,0.026-6.534,1.922c-2.739,3.097-3.132,8.604-0.829,12.869
			c3.348,6.22,4.537,7.829,6.193,11.052c-7.286,0.761-19.634,1.985-21.319,2.809c-1.271,0.637-1.617,2.37-0.763,3.825
			c0.946,1.631,14.974,18.74,18.321,22.461c-0.191,0.112-0.406,0.227-0.635,0.346c-3.24,1.53-6.844,5.104-6.559,9.343
			c1.895,2,6.113,3.329,11.518,0.887c3.931-1.778,7.259-5.852,6.674-9.911l-16.666,7.538c0.67-3.408,3.911-5.78,5.668-6.577
			c5.127-2.317,3.596-7.357,1.336-8.596c-1.242-2.204-2.074-3.617-2.82-4.792c-0.696-0.722-6.57-6.724-7.252-7.905
			c-1.154-1.979-0.725-4.552,1-5.99c1.649-1.368,8.02-1.724,11.908-2.108c0.844-0.084,1.492,0.505,1.558,1.293
			c0.083,0.797-0.481,1.495-1.286,1.57c-2.712,0.24-9.594,0.829-10.365,1.473c-0.594,0.493-0.891,1.506-0.33,2.318
			c2.085,2.985,18.443,18.037,20.72,20.524c-2.464,2.572-4.521,7.039-2.861,10.858c2.458,1.246,6.875,1.066,11.139-3.057
			c3.097-3.008,4.848-7.967,2.931-11.59l-13.135,12.737c-0.525-3.444,1.727-6.769,3.108-8.104c3.679-3.561,1.407-7.388-0.946-8.342
			c-2.021-3.132-3.787-4.964-6.38-7.794c-0.585-0.636,0.533-0.727,1.385-0.759c2.434-0.114,3.494-0.152,6.993-0.396
			c2.273-0.168,7.133-3.306,2.988-11.161c-2.323-4.393-2.998-12.139-3.076-16.938c3.889-1.245,15.595-4.945,18.253-5.671
			c2.571-0.706,12.014-3.369,13.899-3.866C115.247,44.923,117.546,42.911,116.278,42.709z M73.779,103.099
			c-0.566,2.371-2.613,4.792-5.604,6.258c-3.304,1.625-6.758,1.646-8.975,0.333L73.779,103.099z M89.313,98.445
			c0.266,2.419-0.838,5.396-3.157,7.779c-2.562,2.649-5.799,3.837-8.324,3.353L89.313,98.445z"/>
	</g>
</g>
</svg>
