<svg version="1.1" id="Layer_2" xmlns="http://www.w3.org/2000/svg" xmlns:xlink="http://www.w3.org/1999/xlink" x="0" y="0" width="140" height="140" viewBox="0 0 140 140" xml:space="preserve" enable-background="new 0 0 140 140">
     <defs>
        <style type="text/css">
            <![CDATA[
               path{
                 fill: #fff;
                 //fill: #242a30;
               }
            ]]>
        </style>
      </defs>
  <path d="M100.201 120.125H92L60.165 87.873l-2.585 9.802c5.181 2.827 8.704 8.326 8.704 14.634 0 1.925-0.331 3.771-0.936 5.494l18.284 2.395L89.377 126h10.728c1.672 0 3.028-1.356 3.028-3.028C103.133 121.299 101.873 120.125 100.201 120.125z" fill="#231F20"/>
  <path d="M53.991 99.406l6.411-24.305 1.145 0.666c0.697 0.408 1.598 0.174 2.007-0.525 0.41-0.698 0.175-1.596-0.523-2.006l-3.428-1.996c0.308-0.135 0.63-0.292 0.964-0.479 0.83-0.462 10.217-7.302 12.249-10.282 1.232-1.808 5.243-5.391 8.562-8.819 1.608 4.32 5.282 8.563 6.407 11.208 0 0 0.7-0.441 1.009-0.634 0.631-0.41 1.957-0.623 2.714 0.3 0.571 0.698 0.354 1.373-0.072 1.621C90.82 64.539 71.738 76.558 69.66 78.963c-1.416 1.637-1.111 2.883 0.125 4.418 0.516 0.641 19.192 18.694 20.657 20.201 0.603-0.41 1.689-2.682 1.784-4.433 0.075-1.409-0.648-2.633-1.277-3.515 -0.299-0.418-1.687-1.931-3.577-3.979 1.668-4.069 3.315-8.104 4.679-11.451 -1.836 0.785-4.017 1.682-5.854 2.422l-0.005-0.003c-1.943 0.787-5.304 1.978-5.304 1.978 -0.321-0.354-0.642-0.708-0.962-1.062 -0.607-0.677-0.345-1.42 0.254-1.736 0.523-0.274 7.698-2.938 11.977-4.834l8.805 0.012c1.162 0.004 2.163-0.881 2.167-2.043 0.001-1.161-1.141-1.84-2.306-1.84l-2.51-0.004c3.176-3.063 2.009-22.303-4.846-35.37 -1.43-2.727-6.16-4.995-11.544 0.841 -2.39 2.591-11.151 17.006-11.584 17.487 -2.197 2.444-9.697 11.131-9.697 11.131 -1.666 1.066-2.759 1.969-3.397 2.687l-4.661-2.712c-0.7-0.411-1.597-0.176-2.007 0.523 -0.411 0.699-0.176 1.598 0.522 2.006l3.873 2.254 -7.086 26.86C41.184 99.659 36 105.372 36 112.309c0 7.527 6.101 13.627 13.627 13.627s13.629-6.1 13.629-13.627C63.256 106.309 59.376 101.227 53.991 99.406z" fill="#231F20"/>
  <path d="M76.918 100.495l4.806 4.855c0.439-1.055 0.912-2.19 1.405-3.385 -0.879-0.928-4.425-4.666-5.207-5.489L76.918 100.495z" fill="#231F20"/>
  <path d="M80.182 35.024c0.937 0.135 2.67-0.239 3.355-0.577 1.363-0.672 5.79-4.315 4.969-9.929 -0.437-2.975-2.719-4.476-4.132-4.727 -1.681-0.299-4.071-0.107-5.843 0.727 -1.231 0.579-2.029 1.688-2.256 3.095 -0.361 2.275 0.782 7.74 1.471 9.646C78.113 34.273 78.996 34.854 80.182 35.024z" fill="#231F20"/>
</svg>
