<?xml version="1.0" encoding="iso-8859-1"?>
<!-- Generator: Adobe Illustrator 15.0.2, SVG Export Plug-In . SVG Version: 6.00 Build 0)  -->
<!DOCTYPE svg PUBLIC "-//W3C//DTD SVG 1.1//EN" "http://www.w3.org/Graphics/SVG/1.1/DTD/svg11.dtd">
<svg version="1.1" xmlns="http://www.w3.org/2000/svg" xmlns:xlink="http://www.w3.org/1999/xlink" x="0px" y="0px" width="140px"
	 height="140px" viewBox="0 0 140 140" style="enable-background:new 0 0 140 140;" xml:space="preserve">
<g id="Layer_2">
	<g>
		<path style="fill:#fff;" d="M102.924,80h-2.847c0.285-1,0.479-1.109,0.608-1.697c1.282-5.035,0.028-16.55,0.076-17.318
			c0.058-0.947,1.024-9.941,1.469-14.021c1.181,1.169,2.663,1.86,4.294,1.86c3.81,0,6.911-3.834,6.911-8.572
			c0-4.718-3.102-8.557-6.911-8.557c-3.623,0-6.583,3.451-6.881,7.834c-0.939,0.39-1.767,0.948-1.849,1.572
			c-0.184,1.611,0.278,3.886,0.148,5.069c-0.18,1.361-0.864,4.528-2.809,12.504c-0.048,0.2-0.436,1.845-0.988,4.128
			c-0.432,1.833-0.964,4.059-1.501,6.313c-1.594-0.455-3.41-0.745-5.472-0.774c-9.412-0.118-10.274,3.998-25.009,3.962
			c-5.407,0.43-16.859,4.953-19.683,6.787c-0.359,0.238-0.711,0.611-1.004,1.18c-1.914,3.77-6.506,25.678-6.977,27.414
			c2.329,0.947,5.036-0.539,6.445-2.127c1.709-1.947,4.38-15.307,6.37-19.021c0.388-0.719,0.906-1.162,1.392-1.312
			c2.427-0.754,8.135-0.527,12.466-1.162l41.741,0.006c1.155,0.006,2.088-0.859,2.096-2.023C105.012,80.891,104.081,80,102.924,80z"
			/>
		<path style="fill:#fff;" d="M39.039,79.031c0.479-0.947,1.154-1.727,1.965-2.238c1.182-0.783,3.664-1.945,6.597-3.121
			c-6.306,1.023-11.729,2.518-13.565,3.709c-0.355,0.227-0.713,0.607-0.992,1.166c-1.921,3.777-10.405,25.183-10.876,26.911
			c2.816,1.389,5.885-0.156,7.242-1.793c0.942-1.133,4.126-8.894,6.552-14.397C37.221,84.137,38.265,80.566,39.039,79.031z"/>
		<path style="fill:#fff;" d="M118.057,72.242c-0.158-1.618-0.938-3.742-2.164-5.135c-0.837-0.983-2.052-1.421-3.386-1.271
			c-2.166,0.25-6.863,2.699-8.41,3.819c-0.838,0.588-1.134,1.538-0.998,2.663c0.12,0.887,0.9,2.373,1.392,2.904
			c0.966,1.066,5.422,4.17,10.318,1.986C117.407,76.053,118.192,73.584,118.057,72.242z"/>
		<path style="fill:#fff;" d="M84.601,48.131c0.396,0,0.767-0.048,1.134-0.129c0.319,1.887,0.782,5.185,1.515,11.045
			c0.04,0.282,0.403,3.042,0.858,6.533c0.895,0.022,1.731,0.077,2.518,0.228c0.952-4.06,1.771-7.475,1.854-7.801
			c0.074-0.352,0.149-0.678,0.239-1.01c-0.848-3.145-2.335-8.81-3.072-11.639c0.737-1.016,1.284-2.254,1.56-3.624l-3.506-0.11
			c-0.754-0.025-1.343-0.657-1.321-1.418c0.021-0.746,0.655-1.341,1.407-1.313l3.6,0.104c-0.286-4.337-3.208-7.754-6.785-7.754
			c-3.753,0-6.806,3.785-6.806,8.446C77.795,44.348,80.848,48.131,84.601,48.131z"/>
	</g>
</g>
</svg>
