<svg version="1.1" id="Layer_2" xmlns="http://www.w3.org/2000/svg" xmlns:xlink="http://www.w3.org/1999/xlink" x="0" y="0" width="140" height="140" viewBox="0 0 140 140" xml:space="preserve" enable-background="new 0 0 140 140">
     <defs>
        <style type="text/css">
            <![CDATA[
               path{
                 fill: #fff;
                 //fill: #242a30;
               }
            ]]>
        </style>
      </defs>
  <path d="M64.52 43.818c-7.343 0.143-21.898 3.313-24.871 4.622 -3.021 1.329-2.78 5.119-1.209 5.762 0.907 0.372 7.245 0.811 12.888 1.186 0.027-0.605 0.066-1.253 0.122-1.955 0.062-0.798 0.759-1.396 1.561-1.331 0.799 0.063 1.395 0.762 1.332 1.56 -0.158 1.996-0.176 3.302-0.146 4.141 0.323 4.323 2.509 9.154 3.944 16.625 0.383 1.988-0.043 2.558-0.611 2.653 -8.939 1.503-18.153 4.679-19.938 5.718 -0.987 0.577-1.233 1.642-1.087 2.66 0.282 1.965 6.213 26.135 7.07 29.431 2.617-0.652 4.25-3.404 4.171-5.802 -0.223-6.695-0.483-13.959-0.907-17.525 -0.172-1.439-0.266-2.211 1.027-2.357 5.584-0.63 12.509-1.855 16.115-2.691 -0.028-1.475 0.071-4.883 0.082-5.332 0.018-0.8 0.674-1.447 1.48-1.419 0.801 0.019 1.437 0.681 1.42 1.482 -0.01 0.456-0.105 2.15-0.09 4.417 0.026 3.83 0.82 12.845 3.79 19.153 0.241 0.513 0.702 0.774 1.148 0.953 3.763 1.506 15.975 5.807 22.709 7.852 0 0-0.182-2.9-1.994-4.623 -1.676-1.59-8.478-6.466-13.96-9.791 -0.359-0.216-0.769-0.67-0.805-1.148 -0.289-3.604 0.119-12.232-0.137-16.106 -0.326-4.932-3.771-11.365-4.083-12.636 -0.85-3.476 0.068-10.293-0.214-15.231 2.688-0.727 15.205-3.971 16.282-4.167 1.068-0.193 12.708-2.163 14.776-2.529 0.973-0.173 2.67-0.143 3.733-0.204 1.299-0.074 4.96-0.812 4.878-2.261 -0.085-1.508-3.15-2.447-5.914-2.291 -1.668 0.095-1.228 1.276-4.135 1.589 -1.552 0.042-6.071-0.038-12.489-0.038C89.698 44.184 69.99 43.712 64.52 43.818z" fill="#221F1F"/>
  <path d="M62.588 41.429c0.67 0.331 2.36 0.695 3.274 0.565 1.157-0.167 2.02-0.733 2.376-1.721 0.673-1.861 1.788-7.194 1.436-9.414 -0.22-1.372-1.001-2.457-2.201-3.022 -1.729-0.813-4.062-1-5.701-0.708 -1.379 0.245-3.607 1.71-4.031 4.613C56.941 37.219 61.255 40.774 62.588 41.429z" fill="#221F1F"/>
</svg>
