<svg version="1.1" id="Layer_2" xmlns="http://www.w3.org/2000/svg" xmlns:xlink="http://www.w3.org/1999/xlink" x="0" y="0" width="140" height="140" viewBox="0 0 140 140" xml:space="preserve" enable-background="new 0 0 140 140">
     <defs>
        <style type="text/css">
            <![CDATA[
               path{
                 fill: #fff;
                 //fill: #242a30;
               }
            ]]>
        </style>
      </defs>
  <path d="M61.141 55.775c0.072-5.652 0.229-12.992 0.229-17.508 0-4.158 0.548-19.469 0.194-20.908 -0.355-1.438-2.431 1.396-2.875 3.945 -0.387 2.207-2.08 13.277-2.628 16.289 -0.539 2.943-3.34 15.416-4.53 20.627C53.85 56.103 57.39 55.292 61.141 55.775z" fill="#231F20"/>
  <path d="M69.332 56.443c1.469 0.684 7.44 1.932 11.555-2.488 2.18-2.344 1.907-5.24 1.174-6.58 -0.873-1.594-2.623-3.451-4.495-4.365 -1.301-0.643-2.755-0.566-4.072 0.186 -2.13 1.215-5.911 5.805-7.033 7.648 -0.595 0.979-0.49 2.096 0.159 3.195C67.129 54.902 68.595 56.097 69.332 56.443z" fill="#231F20"/>
  <path d="M109.646 66.053c-1.454-0.606-17.684-2.167-22.068-2.694C81.63 62.642 64.38 57.49 61.417 57.49c-2.19 0-4.633 0.34-7.365 2.408 -11.122 8.415-9.872 22.348-9.628 30.711 0.305 10.463 1.926 17.303 4.535 23.754 0.533 1.318 2.461 1.695 3.814 1.262s27.651-14.244 27.651-14.244 -2.403-3.402-6.022-2.848c-3.326 0.51-11.445 4.613-16.783 6.852 -0.598 0.25-0.915-0.096-0.896-0.734 0.012-0.48 0.43-7.785 0.633-11.332 1.269-1.379 3.104-3.865 2.425-7.475 -0.774-4.107 0.847-7.389 2.185-8.947 1.916-2.227 4.117-4.914 5.486-7.672 4.794-0.162 16.702-0.084 19.98-0.182 3.254-0.094 15.226-0.557 17.609-0.607C107.786 68.381 111.098 66.654 109.646 66.053z" fill="#231F20"/>
  <path d="M81.416 116.355c-2.128-0.945-9.035-3.586-14.303-5.582 -3.757 1.951-7.355 3.807-9.931 5.105C66.48 117.947 84.949 122 84.949 122S84.762 117.84 81.416 116.355z" fill="#231F20"/>
</svg>
