<?xml version="1.0" encoding="iso-8859-1"?>
<!-- Generator: Adobe Illustrator 15.0.2, SVG Export Plug-In . SVG Version: 6.00 Build 0)  -->
<!DOCTYPE svg PUBLIC "-//W3C//DTD SVG 1.1//EN" "http://www.w3.org/Graphics/SVG/1.1/DTD/svg11.dtd">
<svg version="1.1" xmlns="http://www.w3.org/2000/svg" xmlns:xlink="http://www.w3.org/1999/xlink" x="0px" y="0px" width="140px"
	 height="140px" viewBox="0 0 140 140" style="enable-background:new 0 0 140 140;" xml:space="preserve">
<g id="Layer_2">
	<polygon style="fill:#fff;" points="64.93,119 40.981,119 42.345,107 63.555,107 	"/>
	<g>
		<g>
			<path style="fill:#fff;" d="M66.676,54.792c-0.461-2.878-0.692-7.946,0.049-10.934c-1.348,3.183-2.653,6.862-3.77,9.765
				c-0.233,0.604-0.822,0.555-1.071,0.574c-0.506,0.021-6.328-4.336-6.618-4.55c-0.299-0.229-0.331-1.327-1.184-2.221
				c-0.409-0.434-2.094-0.768-2.778-0.353c-0.827,0.478-1.835,1.721-1.571,2.261c0.281,0.603,0.348,0.85,0.567,1.072
				c0.235,0.223,1.562,0.993,1.964,1.177c0.399,0.158,1.562,0.492,1.633,0.614c0.876,1.636,7.829,7.525,8.657,8.059
				c1.32,0.823,2.596,0.351,3.43-0.831c0.3-0.406,0.701-0.96,1.176-1.596C67.021,56.827,66.854,55.818,66.676,54.792z"/>
		</g>
		<path style="fill:#fff;" d="M76.399,34.328c-0.62,0.327-2.214,0.721-3.086,0.609c-1.1-0.125-1.914-0.649-2.281-1.579
			c-0.685-1.73-1.858-6.761-1.569-8.865c0.174-1.305,0.885-2.357,2.006-2.91c1.627-0.815,3.817-1.038,5.388-0.802
			c1.304,0.2,3.569,1.521,4.04,4.261C81.783,30.208,77.644,33.678,76.399,34.328z"/>
		<path style="fill:#fff;" d="M97.12,45.872c-2.247-1.564-11.028-7.168-14.025-8.111c-2.13-0.663-2.595-0.712-5.69-0.719
			c-3.112-0.015-7.658,1.795-8.559,7.868c-0.96,6.475,2.45,16.728,2.015,23.017l0.014,0.027c-5.809,2.337-12.49,5.464-14.981,6.638
			c-1.188,0.562-2.562,1.287-2.543,2.635c0.048,1.654,0.525,22.116,0.677,27.69c0.669,0.311,2.717-0.098,3.914-1.426
			c0.769-0.855,1.053-4.105,1.206-5.898c0.344-4.191,1.022-12.308,1.441-15.212c0.142-0.912,0.623-1.219,1.254-1.488
			c1.936-0.795,6.052-1.459,9.695-2.613c3.092-0.982,6.378-2.311,7.995-3.064c4.06-1.902,6.134-5.456,4.505-9.724
			c-2.864-7.509-0.151-12.73,0-18.693c2.019,0.859,3.979,1.674,5.745,2.374c0.822,0.311,1.14,1.077,0.893,1.846
			c-0.38,1.211-1.615,4.191-1.973,4.791c-0.343,0.616-1.182,1.239-1.403,1.385c-0.216,0.15-1.363,0.802-1.603,1.065
			c-0.237,0.261-0.929,1.209-1.192,1.942c-0.213,0.622,0.27,1.611,1.15,2.22c0.893,0.609,2.26,0.284,2.688-0.242
			c0.717-0.94,0.749-2.232,1.229-2.563c2.604-1.752,8.073-9.933,8.492-10.791C98.757,47.42,98.311,46.694,97.12,45.872z"/>
		<path style="fill:#fff;" d="M82.181,76.695c-1.816,1.273-3.727,2.006-4.681,2.344c-0.963,0.346-5.416,1.936-5.416,1.936
			c0.429,4.246,0.864,7.838,0.966,8.688c0.224,1.896,2.755,27.615,3.466,29.338c2.99-0.58,4.455-3.588,4.537-5.65
			c0.092-2.082-0.166-19.012-0.421-21.855C80.486,89.924,81.435,82.705,82.181,76.695z"/>
	</g>
</g>
</svg>
