<svg version="1.1" xmlns="http://www.w3.org/2000/svg" xmlns:xlink="http://www.w3.org/1999/xlink" x="0" y="0" width="140" height="140" viewBox="0 0 140 140" xml:space="preserve" enable-background="new 0 0 140 140">
     <defs>
        <style type="text/css">
            <![CDATA[
               path{
                 fill: #fff;
                 //fill: #242a30;
               }
            ]]>
        </style>
      </defs>
    <path d="M29.887 59.024c-0.764 0.314-2.661 0.59-3.659 0.379 -1.266-0.271-2.176-0.959-2.496-2.076 -0.607-2.108-1.444-8.083-0.889-10.509 0.347-1.499 1.287-2.637 2.657-3.172 1.969-0.77 4.559-0.802 6.35-0.359 1.502 0.37 3.857 2.156 4.111 5.393C36.442 54.789 31.405 58.396 29.887 59.024z"/>
    <path d="M41.772 70.921c0.23-0.913 1.03-1.539 1.947-1.383 0.92 0.156 1.538 1.028 1.383 1.949 -0.129 0.752-0.354 1.675-0.605 2.626 6.049 2.553 15.498 3.983 21.972 6.925 3.632 1.651 19.579 8.881 22.191 9.989 2.613 1.107 28.923 9.64 28.923 9.64s2.874-4.527-2.58-8.188c-2.567-1.722-12.852-4.984-21.714-9.968 -6.493-3.651-12.353-8.012-15.643-10.601 -1.537-2.787-4.353-5.038-10.94-5.617 -4.126-0.362-8.432-4.743-11.036-6.57 -3.895-2.73-7.04-4.603-11.859-5.379 -6.827-1.101-8.598 1.822-9.56 5.325 -1.042 3.797-1.173 21.897-1.271 22.615 -0.494 3.638-0.391 17.193-0.391 17.193 -2.345-0.058-8.205 0.589-9.223 1.548 -0.921 0.863 8.968 0.673 11.966 0.673 1.06 0 2.712-12.851 2.718-16.881 0.002-3.407 2.312-8.296 3.114-11.389C41.375 72.609 41.597 71.608 41.772 70.921z"/>
</svg>
