<svg version="1.1" xmlns="http://www.w3.org/2000/svg" xmlns:xlink="http://www.w3.org/1999/xlink" x="0" y="0" width="140" height="140" viewBox="0 0 140 140" xml:space="preserve" enable-background="new 0 0 140 140">
     <defs>
        <style type="text/css">
            <![CDATA[
               path{
                 fill: #fff;
                 //fill: #242a30;
               }
            ]]>
        </style>
      </defs>
    <path d="M37.31 39.259c0.281 0.136 1.777 0.479 2.226 0.521 0.263 0.023 0.512 0.02 0.866 0.041 1.529 0.455 10.428 3.064 13.396 3.868 2.711 0.737 10.149 3.151 14.417 4.541 0.069-4.548 2.337-7.318 5.035-8.604 -5.617-0.207-14.533-0.799-18.333-1.189 -2.712-0.281-11.705-1.254-13.045-1.403 -0.308-0.033-1.186-1.514-1.866-1.76 -0.741-0.265-2.37 0.056-2.761 0.504 -0.628 0.719-1.171 2.152-0.819 2.634C36.736 38.839 37.027 39.122 37.31 39.259z" fill="#221F1F"/>
    <path d="M75.62 37.254c0.867 0.105 2.463-0.279 3.088-0.607 1.246-0.651 5.254-4.115 4.372-9.281 -0.469-2.738-2.611-4.079-3.923-4.277 -1.558-0.238-3.764-0.009-5.38 0.803 -1.128 0.56-1.839 1.604-2.017 2.906 -0.284 2.11 0.893 7.136 1.572 8.881C73.695 36.608 74.523 37.124 75.62 37.254z" fill="#221F1F"/>
    <path d="M99.908 49.931c-2.917-2.291-14.146-10.702-20.205-10.702 -3.104 0-7.655 1.929-8.554 7.999 -0.88 5.941 1.886 11.519 2.023 17.25 -5.6-1.084-11.137-2.023-12.223-2.207 -1.885-0.319-28.066-4.098-29.912-3.918 -0.556 2.391 1.738 4.942 3.697 5.609 1.962 0.667 19.573 4.01 22.379 4.586 3.195 0.656 12.406 5.791 15.892 6.961 2.055 0.69 3.626 0.992 6.265 0.992 3.003 0 5.829-1.33 6.755-3.012 0.999-1.808 1.161-3.461 0.321-5.66 -2.808-7.35-0.263-12.521-0.02-18.333 2.094 1.111 4.157 2.182 5.986 3.088 0.784 0.388 1.004 1.165 0.723 1.921 -0.442 1.185-1.078 2.375-2.353 4.587 -0.451 0.706-1.306 1.153-1.532 1.28 -0.237 0.13-1.437 0.686-1.697 0.927 -0.262 0.243-1.032 1.133-1.352 1.832 -0.276 0.607 0.128 1.627 0.957 2.317 0.827 0.685 2.228 0.475 2.691-0.024 0.801-0.866 1.105-1.758 1.456-2.436 4.796-3.794 8.894-9.087 9.391-10.035C101.325 51.57 101.049 50.828 99.908 49.931z" fill="#221F1F"/>
    <path d="M79.267 79.242c-1.648 0-4.047-0.239-5.753-0.727 0.505 7.048 1.662 16.818 1.839 18.305 0.225 1.897 4.477 27.994 5.172 29.715 2.997-0.578 4.465-3.587 4.553-5.654 0.085-2.069-1.878-19.387-2.135-22.239 -0.198-2.172 1.715-15.276 2.247-20.885C83.49 78.701 81.373 79.242 79.267 79.242z" fill="#221F1F"/>
</svg>
