<svg version="1.1" id="Layer_2" xmlns="http://www.w3.org/2000/svg" xmlns:xlink="http://www.w3.org/1999/xlink" x="0" y="0" width="140" height="140" viewBox="0 0 140 140" xml:space="preserve" enable-background="new 0 0 140 140">
     <defs>
        <style type="text/css">
            <![CDATA[
               path, ellipse{
                 fill: #fff;
                 //fill: #242a30;
               }
            ]]>
        </style>
      </defs>
  <path d="M44.145 34.683c-0.026 0.001-0.055 0.003-0.081 0.003 -0.727 0-1.335-0.566-1.377-1.301 -0.044-0.762 0.538-1.414 1.298-1.458l6.041-0.349c-0.601-4.901-3.707-8.639-7.455-8.639 -4.182 0-7.57 4.642-7.57 10.367 0 5.724 3.389 10.365 7.57 10.365 3.926 0 7.151-4.092 7.531-9.333L44.145 34.683z" fill="#221F1F"/>
  <path d="M63.74 60.743c-0.655 0.279-2.281 0.53-3.143 0.357 -1.091-0.223-1.878-0.807-2.164-1.766 -0.537-1.803-1.304-6.932-0.848-9.021 0.282-1.292 1.086-2.279 2.257-2.75 1.687-0.676 3.915-0.727 5.454-0.36 1.295 0.307 3.333 1.821 3.575 4.603C69.335 57.052 65.04 60.193 63.74 60.743z" fill="#221F1F"/>
  <ellipse cx="94.747" cy="30.548" rx="8.389" ry="12.548" fill="#221F1F"/>
  <path d="M75.44 64.727c0.286-5.459 0.831-15.797 0.972-16.909 0.109-0.874 1.396-10.46 1.706-12.534 0.037-0.245 0.158-0.573 0.374-0.789 0.338-0.339 2.032-0.629 2.322-0.775 0.291-0.145 0.619-0.636 0.717-0.927 0.097-0.29-0.246-0.9-0.756-1.149 -0.279-0.137-0.638 0.141-1.121-0.197 -0.485-0.339-0.824-0.628-0.629-0.919 0.193-0.29 0.22-0.643-0.27-0.876 -0.6-0.285-1.47-0.771-2.158-0.449 -0.516 0.242-1.733 1.76-1.831 2.148 -0.095 0.385 0 1.45 0.34 1.837s0.14 0.788-0.053 1.513c-0.658 1.934-1.932 5.39-3.604 10.709 -0.159 0.511-3.259 10.597-4.896 15.985 -0.733 0.587-2.161 1.833-5.269 1.833 -2.65 0-4.343-1.651-4.835-3.302 -0.531-1.787-1.476-7.363-0.887-10.056 0.208-0.95 0.619-1.799 1.188-2.507 -0.419-4.01-1.554-8.896-1.975-10.827 0.192-0.451 0.758-0.65 1.792-0.671 2.157-0.043 2.235-0.529 2.523-1.143 0.093-0.198 0.079-0.471 0.009-0.771l-1.056 0.057c-0.024 0.001-0.051 0.002-0.077 0.002 -0.726 0-1.336-0.57-1.376-1.306 -0.022-0.419 0.149-0.8 0.43-1.069 0.001-0.04 0.019-0.083 0.064-0.127 0.647-0.625 0.015-1.361-0.338-1.401 -0.917-0.106-1.15 0.757-1.406 0.962 -0.37 0.296-1.469 0.526-2.181 1.148 -0.597 0.521-1.337 2.274-1.426 4.093 -0.088 1.821-0.326 10.884-0.159 14.232 0.055 1.11-0.054 15.8 4.184 22.68 2.261 3.996 7.125 8.801 8.491 13.1 -4.119-0.268-13.16-0.744-16.257-0.744 -2.282 0-3.994 1.617-3.481 3.855 0.623 2.727 6.645 21.185 9.401 29.372 3.224 0 4.921-3.95 4.287-6.915 -1.905-8.912-2.443-10.301-2.962-13.291 -0.311-1.793-0.169-2.159 1.613-1.954 2.442 0.281 4.427 0.486 6.472 0.681 -1.763-5.438-2.076-6.992-0.741-8.713 0.793-1.026 2.961-2.656 8.617-2.053 0.758 0.082 1.306 0.762 1.226 1.521 -0.013 0.112-0.318 1.318-1.519 1.226 -2.182-0.168-3.02-0.095-3.9 0.03 -3.326 0.47-2.421 2.531-1.95 4.264 0.736 2.712 7.522 22.436 8.75 25.896 2.454 0 4.716-3.381 3.995-8.038 -0.535-3.472-2.013-9.649-2.473-11.582 2.891 0.302 5.771-0.134 7.05-2.807 3.377-7.054-3.579-14.026-5.947-18.364C73.573 73.469 75.151 70.243 75.44 64.727z" fill="#221F1F"/>
</svg>
