<svg version="1.1" id="Layer_2" xmlns="http://www.w3.org/2000/svg" xmlns:xlink="http://www.w3.org/1999/xlink" x="0" y="0" width="140" height="140" viewBox="0 0 140 140" xml:space="preserve" enable-background="new 0 0 140 140">
     <defs>
        <style type="text/css">
            <![CDATA[
               path{
                 //fill: #fff;
                 fill: #242a30;
               }
            ]]>
        </style>
      </defs>
  <path d="M88.746 65.584c-0.91-3.035-3.182-12.194-6.184-17.511 1.169 3.76 1.206 8.107 1.239 12.311 0.011 1.279 0.022 2.603 0.064 3.873 0.065 1.902 0.2 3.631 0.347 5.288 1.562-0.304 2.663-0.574 3.051-0.716C88.75 68.294 89.166 66.991 88.746 65.584z" fill="#221F1F"/>
  <path d="M78.063 28.019h0.002c0.005-3.13-3.006-5.674-6.73-5.679 -3.722-0.008-6.745 2.522-6.748 5.652v1.174c-0.059 2.887 0.643 7.264 1.163 9.009 0.337 1.134 1.267 1.825 2.558 2.088 1.018 0.206 2.941-0.095 3.715-0.421 1.354-0.573 5.524-3.529 6.038-8.919l3.272 0.006c0.767 0 1.535 0.169 2.12-0.451 0.585-0.621 0.877-1.63 0.882-2.444L78.063 28.019z" fill="#221F1F"/>
  <path d="M62.867 47.964c-0.925 2.467-1.878 6.364-3.345 11.393 -0.18 0.619-0.876 0.903-1.388 0.54 -0.866-0.614-4.367-3.321-5.595-4.346 0.273-0.49 0.698-0.99 0.332-1.828 -0.254-0.584-1.29-2.116-1.856-2.14 -0.962-0.039-2.989 0.472-3.179 1.147 -0.119 0.431-0.207 0.929-0.115 1.231 0.228 0.747 0.988 2.295 1.937 3.495 0.948 1.2 8.859 11.352 9.934 11.825 1.446 0.637 2.476-0.122 3.311-1.329 0.359-0.521 0.798-1.231 1.276-2.055 0.492 2.236 0.96 4.3 1.282 5.802 0.327 1.525 0.073 1.725-1.734 2.919 -3.205 2.12-12.453 9.731-15.38 12.452 -1.444 1.344-1.838 2.52-1.96 3.493 -0.234 1.882-0.167 26.342-0.167 29.488 2.573 0.056 5.414-2.608 5.814-4.863 0.902-5.095 1.387-12.155 1.71-15.991l3.631 1.685 9.509-9.317v-6.35c0-0.814 0.838-1.474 1.651-1.474 0.815 0 1.561 0.659 1.561 1.474l0.03 12.716 4.546-0.025c0.041 0.16 0.077 0.782 0.115 0.922 0.165 0.63 0.716 1.559 1.012 1.935 2.681 3.394 10.083 13.528 15.602 19.331 2.306-0.537 1.766-4.661 0.586-6.866 -3.085-5.771-5.521-10.183-7.621-13.882 -0.41-0.723-0.941-1.494-1.038-2.537 -0.347-3.751-1.07-12.003-0.937-14.017 0.36-5.489-0.576-8.746-0.964-11.345 -0.915-6.109 0.007-17.076-1.679-22.498 -1.612-5.182-11.08-5.768-13.32-4.94C65.01 44.533 63.702 45.73 62.867 47.964z" fill="#221F1F"/>
</svg>
