<?xml version="1.0" encoding="iso-8859-1"?>
<!-- Generator: Adobe Illustrator 15.0.2, SVG Export Plug-In . SVG Version: 6.00 Build 0)  -->
<!DOCTYPE svg PUBLIC "-//W3C//DTD SVG 1.1//EN" "http://www.w3.org/Graphics/SVG/1.1/DTD/svg11.dtd">
<svg version="1.1" xmlns="http://www.w3.org/2000/svg" xmlns:xlink="http://www.w3.org/1999/xlink" x="0px" y="0px" width="140px"
	 height="140px" viewBox="0 0 140 140" style="enable-background:new 0 0 140 140;" xml:space="preserve">
<g id="Layer_2">
	<g>
		<path style="fill:#fff;" d="M45.04,77.332c-7.372-1.771-12.177-2.947-14.71-3.658c-7.167,2.42-12.327,9.205-12.327,17.178
			c0,10.008,8.129,18.125,18.142,18.125c10.017,0,18.142-8.117,18.142-18.125c0-4.842-1.908-9.238-4.994-12.497
			C48.382,78.134,46.872,77.768,45.04,77.332z"/>
		<path style="fill:#fff;" d="M107.741,102.343c-0.243-0.782-0.387-2.672-0.14-3.658c0.306-1.237,0.962-2.109,1.967-2.359
			c1.914-0.484,7.268-0.962,9.39-0.261c1.306,0.414,2.281,1.417,2.683,2.806c0.581,2.007,0.485,4.588-0.014,6.328
			c-0.399,1.479-2.114,3.717-5.007,3.776C111.165,109.094,108.225,103.885,107.741,102.343z"/>
		<path style="fill:#fff;" d="M68.3,75.706c0.054-0.935,0.096-1.805,0.108-2.606c-5.987-1.559-12.578-3.06-13.763-3.321
			c-1.796-0.407-27.08-5.042-28.885-4.966c-0.451,2.94,1.826,5.265,3.699,6.018c1.858,0.747,18.354,4.612,21.046,5.312
			c1.984,0.499,12.688,6.16,17.882,8.617C67.988,81.917,68.158,78.609,68.3,75.706z"/>
		<path style="fill:#fff;" d="M104.344,97.262c-1.839-5.954-11.127-13.976-19.703-18.278c-0.016,0.597-0.025,1.175-0.071,1.778
			c-0.026,0.725-0.629,1.301-1.368,1.301c-0.012,0-0.027,0-0.048,0c-0.767-0.028-1.354-0.672-1.313-1.426
			c0.07-1.196,0.094-2.298,0.07-3.513l-1.807-23.022L77.958,24.98c0,0-3.508,0-4.045,4.503c-0.313,2.752-1.535,24.819-1.535,24.819
			s-1.147,17.579-1.333,21.549c-0.202,3.964-0.499,9.864,1.266,12.116c0.738,0.858,2.667,2.366,7.619,3.908
			c3.777,1.168,6.441,4.185,7.284,5.582c0.878,1.432,1.895,3.006,3.028,4.495c-3.216,0.719-9.474,1.956-10.821,2.191
			c-1.633,0.262-7.705,1.473-9.662,1.756c-2.142,0.312-7.116,1.031-8.434,1.321c-1.306,0.298-1.449,1.184-0.786,1.476
			c0.65,0.296,5.834,0.28,7.399,0.28c1.591,0,19.436-0.006,25.722-0.006c4.302,0,8.514-0.877,10.132-3.408
			C105.411,103.023,105.39,100.658,104.344,97.262z"/>
	</g>
</g>
</svg>
