<svg version="1.1" xmlns="http://www.w3.org/2000/svg" xmlns:xlink="http://www.w3.org/1999/xlink" x="0" y="0" width="140" height="140" viewBox="0 0 140 140" xml:space="preserve" enable-background="new 0 0 140 140">
     <defs>
        <style type="text/css">
            <![CDATA[
               path{
                 fill: #fff;
                 //fill: #242a30;
               }
            ]]>
        </style>
      </defs>
    <path d="M77.342 61.972c-0.644 0.554-2.4 1.424-3.442 1.537 -1.321 0.134-2.421-0.249-3.092-1.237 -1.267-1.856-3.974-7.417-4.196-9.962 -0.148-1.567 0.412-2.976 1.574-3.936 1.668-1.374 4.19-2.225 6.08-2.365 1.579-0.113 4.441 0.877 5.718 3.952C82.391 55.771 78.625 60.878 77.342 61.972z"/>
    <path d="M82.3 61.649C73.335 65.157 60.618 76.65 56.455 79.6c-3.413 2.422-17.714 11.895-18.749 13.115 -1.035 1.225-1.944 2.287-2.229 4.287 -0.306 2.145 1.164 0.889 2.487-0.551 2.297-2.504 2.198-1.613 2.194-0.273 -0.003 0.924 0.975 0.387 1.021-0.594 0.067-1.486-0.36-1.779 1.65-3.125 2.008-1.352 13.001-6.639 15.936-8.16 3.211-1.664 15.555-6.898 19.014-8.465 1.42 4.062 6.085 8.74 9.387 11.895 1.349-0.146 2.645-0.201 4.689-0.207 0.001 0 0.003 0 0.004 0 0.853 0 1.544 0.688 1.546 1.541 0.003 0.854-0.688 1.547-1.54 1.549 -0.774 0.004-1.428 0.014-2.018 0.033 0.002 0.002 0.006 0.006 0.009 0.01 -7.854 0.613-21.505 2.605-23.382 2.879 -2.134 0.312-31.037 5.58-33.475 6.189 0.234 2.76 3.584 4.701 5.918 4.738 2.338 0.033 22.408-2.498 25.62-2.855 4.785-0.529 27.132 2.088 33.625 0.746 4.671-0.973 7.81-5.27 7.826-9.158 0.013-7.018-5.317-20.674-16.114-30.62C87.718 60.587 85.866 60.253 82.3 61.649z"/>
</svg>
