<?xml version="1.0" encoding="iso-8859-1"?>
<!-- Generator: Adobe Illustrator 15.0.2, SVG Export Plug-In . SVG Version: 6.00 Build 0)  -->
<!DOCTYPE svg PUBLIC "-//W3C//DTD SVG 1.1//EN" "http://www.w3.org/Graphics/SVG/1.1/DTD/svg11.dtd">
<svg version="1.1" xmlns="http://www.w3.org/2000/svg" xmlns:xlink="http://www.w3.org/1999/xlink" x="0px" y="0px" width="140px"
	 height="140px" viewBox="0 0 140 140" style="enable-background:new 0 0 140 140;" xml:space="preserve">
<g id="Layer_2">
	<g>
		<path style="fill:#fff;" d="M71.391,48.376c-0.843,0.42-3.015,0.864-4.176,0.69c-1.466-0.227-2.558-0.96-2.993-2.219
			c-0.846-2.387-2.207-9.171-1.723-12.006c0.292-1.736,1.286-3.098,2.829-3.81c2.206-1.025,5.166-1.232,7.254-0.845
			c1.757,0.325,4.573,2.22,5.091,5.906C78.633,43.079,73.102,47.559,71.391,48.376z"/>
		<path style="fill:#fff;" d="M39.068,91.799c-0.194,3.378,0.852,5.458,3.797,6.358c2.469,0.746,37.379,9.882,44.994,11.609
			c0.407-1.05,0.243-3.712-1.176-6.063c-1.14-1.881-3.148-2.828-4.735-3.417c-1.595-0.581-25.459-8.728-35.123-12.614
			C43.682,86.425,39.273,88.127,39.068,91.799z"/>
		<path style="fill:#fff;" d="M111.566,83.646c-0.18-0.616-3.542-0.174-4.219-0.257c-0.578-0.07-1.257-0.373-1.892-0.738
			c-1.021-0.568-1.923-0.686-2.775-0.783c-2.455-1.285-5.084-3.381-9.98-7.205c-0.597-0.457-1.236-1.002-1.521-2.074
			c-0.976-3.72-1.958-7.476-3.208-12.062c-0.942-3.444-5.485-8.507-17.863-8.507c-12.387,0-17,5.104-17.9,8.507
			c-1.235,4.598-2.24,8.341-3.208,12.062c-0.277,1.072-0.935,1.617-1.521,2.074c-4.896,3.824-7.527,5.92-9.984,7.205
			c-0.853,0.098-1.759,0.215-2.774,0.783c-0.636,0.365-1.322,0.668-1.887,0.738c-0.687,0.083-4.047-0.359-4.23,0.257
			c-0.189,0.616,0.625,1.433,1.355,1.854c0.709,0.413,3.162,1.404,3.835,1.54c0.671,0.139,1.485-0.29,2.228-0.547
			c0.739-0.262,3.657-1.595,4.336-1.857c0.671-0.271,10.192-3.188,11.899-3.872c1.843-0.715,2.174-1.227,2.782-2.775
			c0.456-1.148,1.481-4.182,2.504-7.731c0.333,5.436,1.759,13.286,2.116,15.379c0.269,1.558,0.448,2.941,0.587,4.117
			c3.371,1.208,6.874,2.447,10.084,3.575c3.08-1.079,6.376-2.254,9.578-3.396c0.132-1.203,0.331-2.655,0.615-4.296
			c0.347-2.093,1.778-9.943,2.105-15.379c1.048,3.55,2.059,6.583,2.51,7.731c0.614,1.549,0.954,2.061,2.778,2.775
			c1.715,0.684,11.017,3.552,11.903,3.872c0.876,0.312,3.604,1.596,4.334,1.857c0.746,0.257,1.557,0.686,2.228,0.547
			c0.671-0.136,3.132-1.127,3.845-1.54C110.938,85.079,111.773,84.263,111.566,83.646z"/>
		<path style="fill:#fff;" d="M101.104,91.981c-0.215-3.674-4.604-5.389-7.759-4.131c-4.453,1.791-11.932,4.481-18.853,6.93
			c1.959,0.686,3.678,1.279,5.068,1.759c1.869,0.647,3.003,1.036,3.34,1.169c1.495,0.539,3.474,1.444,5.037,3.139
			c4.966-1.313,8.635-2.305,9.376-2.512C100.26,97.43,101.29,95.349,101.104,91.981z"/>
		<path style="fill:#fff;" d="M53.509,103.847c-0.009,0.017-0.013,0.023-0.022,0.035c-1.415,2.339-1.583,5.009-1.184,6.065
			c2.29-0.523,7.03-1.708,12.604-3.133C60.937,105.791,56.994,104.76,53.509,103.847z"/>
	</g>
</g>
</svg>
