<?xml version="1.0" encoding="iso-8859-1"?>
<!-- Generator: Adobe Illustrator 15.0.2, SVG Export Plug-In . SVG Version: 6.00 Build 0)  -->
<!DOCTYPE svg PUBLIC "-//W3C//DTD SVG 1.1//EN" "http://www.w3.org/Graphics/SVG/1.1/DTD/svg11.dtd">
<svg version="1.1" xmlns="http://www.w3.org/2000/svg" xmlns:xlink="http://www.w3.org/1999/xlink" x="0px" y="0px" width="140px"
	 height="140px" viewBox="0 0 140 140" style="enable-background:new 0 0 140 140;" xml:space="preserve">
<g id="Layer_2">
	<g>
		<path style="fill:#242a30;" d="M80.736,39.361c-0.566,0.705-2.253,2.001-3.327,2.317c-1.363,0.416-2.607,0.244-3.52-0.663
			c-1.702-1.708-5.703-7.02-6.458-9.647c-0.477-1.631-0.184-3.236,0.856-4.481c1.493-1.792,3.969-3.208,5.927-3.741
			c1.644-0.443,4.869,0.014,6.837,2.999C84.791,31.782,81.864,37.944,80.736,39.361z"/>
		<path style="fill:#242a30;" d="M52.17,50.676c-0.639,0.152-2.166,0.252-2.948-0.006c-0.986-0.332-1.707-0.884-2.12-1.722
			c-0.878-1.771-1.517-5.27-0.117-8.312c0.511-1.121,1.88-2.303,3.02-2.615c1.627-0.449,3.701-0.25,5.112,0.266
			c1.148,0.42,2.885,2.045,2.801,4.653C57.773,47.868,55.221,49.959,52.17,50.676z"/>
		<path style="fill:#242a30;" d="M17.667,92.012c27.779-16.562,52.559,15.319,75.058,18.432
			c22.329,3.085,34.169-13.852,25.34-26.508C106.603,122.457,54.258,55.947,17.667,92.012z"/>
		<path style="fill:#242a30;" d="M85.698,41.799c-7.76,2.483-9.608,6.348-10.983,9.985c-1.675,4.39-1.86,5-3.12,8.25
			c-0.433,1.099-0.807,1.908-1.908,1.729c-4.397-0.754-8.133-1.43-10.815-1.812c-0.076-0.566-1.312-8.795-6.204-8.795
			c-0.862,0-1.516,0.482-2.352,1.319c-1.529,1.536-4.35,8.334-5.236,8.75c-1.05,0.499-8.837-0.416-9.779-0.465
			c-1.853-0.11,1.281,2.644,2.795,3.12c1.992,0.628,6.963,1.819,8.246,1.812c0.197,0,0.587-0.138,1.076-0.374
			c0.279,2.561,1.03,4.974,2.388,6.765c0.754,0.987,1.471,1.784,2.165,2.456c-0.721,1.201-1.449,2.383-1.922,3.485
			c2.667,0.27,5.321,0.739,7.963,1.327c0.792-1.591,2.182-2.615,3.719-3.937c1.948-1.646,2.763-4.203,1.459-6.796
			c0,0-4.982-1.814-6.212-2.27c-0.27,0.084-2.208,1.148-4.523,1.148c-1.149,0-2.206-0.339-3.14-0.996
			c-0.485-0.347-0.906-0.914-1.294-1.5c0.732-0.389,1.581-0.949,2.461-1.613c0.146,0.125,0.887,0.838,2.015,0.838
			c1.403,0,2.975-0.885,4.609-1.28c0,0,12.534,4.662,14.345,5.21c1.685,0.497,2.43,0.282,3.812-1.267
			c0.803-0.906,2.745-3.453,4.585-6.515c2.986,6.134,8.077,10.317,9.55,17.537c-0.503,3.231-0.796,7.623-0.96,11.813
			c5.378,1.917,10.339,3.354,14.446,3.485c0.665-2.358,1.334-4.778,1.849-6.938c1.458-2.78,1.763-6.444,0.512-9.723
			c-4.234-11.129-3.638-21.717-10.762-32.505C92.262,40.664,88.597,40.974,85.698,41.799z"/>
	</g>
</g>
</svg>
