<?xml version="1.0" encoding="iso-8859-1"?>
<!-- Generator: Adobe Illustrator 15.0.2, SVG Export Plug-In . SVG Version: 6.00 Build 0)  -->
<!DOCTYPE svg PUBLIC "-//W3C//DTD SVG 1.1//EN" "http://www.w3.org/Graphics/SVG/1.1/DTD/svg11.dtd">
<svg version="1.1" xmlns="http://www.w3.org/2000/svg" xmlns:xlink="http://www.w3.org/1999/xlink" x="0px" y="0px" width="140px"
	 height="140px" viewBox="0 0 140 140" style="enable-background:new 0 0 140 140;" xml:space="preserve">
<g id="Layer_2">
	<g>
		<path style="fill:#242a30;" d="M23.659,85.21c24.787-14.783,46.916,13.68,66.986,16.453c19.926,2.758,30.484-12.359,22.615-23.662
			C103.032,112.386,56.309,53.034,23.659,85.21z"/>
		<path style="fill:#242a30;" d="M59.993,65.503c-0.629,0.497-2.352,1.278-3.364,1.342c-1.262,0.082-2.308-0.318-2.91-1.299
			c-1.146-1.826-3.541-7.262-3.671-9.718c-0.068-1.508,0.521-2.837,1.679-3.707c1.652-1.267,4.096-1.994,5.915-2.056
			c1.53-0.053,4.231,1.017,5.333,4.015C65.069,59.743,61.272,64.507,59.993,65.503z"/>
		<path style="fill:#242a30;" d="M79.822,79.255c6.973,2.697,13.596,5.229,18.846,5.672c-0.744-1.289-1.964-2.385-3.74-3.146
			c-9.842-4.27-11.121-12.266-17.962-17.267c1.688-2.712,3.543-5.483,4.697-7.275c0.593-0.955,1.774-0.677,2.511-0.352
			c5.138,2.295,12.544,6.342,15.257,7.081c2.723,0.739,4.763-0.125,3.823-0.899c-4.737-3.182-19.739-13.125-20.521-13.645
			c-1.535-1.058-2.771-0.761-3.962,0.572c-1.436,1.611-10.754,11.668-13.305,14.855c-1.633,2.04-4.611,5.715-5.25,8.052
			C66.38,74.175,74.72,77.294,79.822,79.255z"/>
	</g>
</g>
</svg>
