<svg version="1.1" xmlns="http://www.w3.org/2000/svg" xmlns:xlink="http://www.w3.org/1999/xlink" x="0" y="0" width="140" height="140" viewBox="0 0 140 140" xml:space="preserve" enable-background="new 0 0 140 140">
     <defs>
        <style type="text/css">
            <![CDATA[
               path, ellipse{
                 fill: #fff;
                 //fill: #242a30;
               }
            ]]>
        </style>
      </defs>
    <path d="M51.709 110.791c-0.77-0.032-2.517 0.319-3.326 0.819 -1.023 0.636-1.606 1.524-1.534 2.604 0.131 2.036 1.278 7.53 2.528 9.481 0.773 1.205 1.957 1.908 3.323 1.945 1.969 0.054 4.251-0.729 5.678-1.685 1.199-0.8 2.699-3.099 1.903-6.017C58.776 112.438 53.235 110.862 51.709 110.791z"/>
    <path d="M54.109 72.984c1.147-0.834 2.384-1.64 3.717-2.416 2.236-1.304 4.643-2.445 7.069-3.442 -3.031-1.544-8.544-4.566-10.503-5.745 1.942-3.414 10.381-19.954 11.145-22.387 0.763-2.432-1.925-4.405-1.925-4.405 -1.742 2.377-16.698 23.796-17.95 25.598 -1.035 1.489-0.55 3.143 0.382 4.42C46.507 65.241 49.841 69.173 54.109 72.984z"/>
    <path d="M99.533 95.062c-2.218-7.893-7.314-26.007-7.872-28.044 -0.43-1.569-2.161-2.697-3.798-2.597 -0.817 0.05-5.663 0.587-11.808 2.151L70.032 16h-1.881v69.549l9.381-6.578 -0.317-2.666c2.959-1.277 6.411-2.672 7.752-3.064 0.873 2.863 6.399 15.235 9.216 20.953 0.208-0.348 0.519-0.679 0.981-0.97 0.337-0.211 0.781-0.111 0.994 0.224 0.212 0.336 0.112 0.781-0.225 0.993 -0.73 0.461-0.807 0.906-0.557 2.021 0.271 1.207-0.014 1.73-1.137 1.936 -2.201 0.4-13.463 0.893-16.512 1.115 -3.425 0.25-14.359 0.508-17.439 0.591 -0.219-1.859-0.528-3.59-0.6-4.653 -0.21-3.074 0.132-6.268 2.154-7.888 1.467-1.176 2.45-1.594 3.436-2.004V70.141c-3.088 1.303-6.137 2.881-8.885 4.791 -10.092 7.018-14.007 17.015-9.861 28.979 1.417 4.09 3.676 4.977 8.143 4.844 7.283-0.067 19.166-3.524 23.301-4.411 3.783-0.808 19.384-3.636 20.709-4.298 0.85-0.426 1.337-0.956 1.701-1.793 0.013-0.002 0.027-0.006 0.027-0.006 -0.003-0.01-0.007-0.027-0.01-0.037 0.196-0.461 0.358-1.009 0.519-1.688C101.251 95.13 100.496 94.653 99.533 95.062z"/>
</svg>
