<?xml version="1.0" encoding="iso-8859-1"?>
<!-- Generator: Adobe Illustrator 15.0.2, SVG Export Plug-In . SVG Version: 6.00 Build 0)  -->
<!DOCTYPE svg PUBLIC "-//W3C//DTD SVG 1.1//EN" "http://www.w3.org/Graphics/SVG/1.1/DTD/svg11.dtd">
<svg version="1.1" xmlns="http://www.w3.org/2000/svg" xmlns:xlink="http://www.w3.org/1999/xlink" x="0px" y="0px" width="140px"
	 height="140px" viewBox="0 0 140 140" style="enable-background:new 0 0 140 140;" xml:space="preserve">
<g id="Layer_2">
	<g>
		<path style="fill:#fff;" d="M38.505,82.568c0.946,0.648,2.074,0.602,3.198,0.02c0.896-0.479,2.162-1.867,2.541-2.592
			c0.763-1.432,2.323-7.326-1.874-11.675c-2.229-2.296-5.139-2.172-6.502-1.515c-1.635,0.787-3.587,2.434-4.598,4.26
			c-0.712,1.271-0.712,2.725-0.027,4.08C32.333,77.326,36.729,81.357,38.505,82.568z"/>
		<path style="fill:#fff;" d="M90.582,92.637c0.151-0.912,1.235-6.756,1.83-11.529c-1.666,0.299-4.114,0.797-6.008,1.176
			l-0.072,0.021c-2.002,0.4-3.891,0.947-5.697,1.557c0.589,6.236,1.296,12.746,1.583,15.428c0.29,2.658,1.782,3.439,4.224,3.604
			c1.182,0.092,9.559,0.092,18.559,0.076v-7.344c-4-0.484-8.932-1.01-12.947-1.307C90.936,94.24,90.435,93.459,90.582,92.637z"/>
		<path style="fill:#fff;" d="M117.231,98.459c-1.208-1.25-3.153-1.631-4.487-1.799c-0.311-0.039-0.744-0.158-2.744-0.338v6.633
			c4,0,7.229-0.014,8.977-0.014C119.102,102.049,118.74,100.016,117.231,98.459z"/>
		<path style="fill:#fff;" d="M100.028,46.265l5.226-1.674c-1.375-4.301-2.369-7.365-2.369-7.365s-3.657,2.365-3.246,6.183
			C99.709,44.047,99.849,45.042,100.028,46.265z"/>
		<path style="fill:#fff;" d="M92.813,78.254l-0.021-0.016c4.553-0.725,18.515-2.961,19.398-3.375
			c1.046-0.512,1.883-2.504,1.487-3.948c-0.222-0.817-3.732-11.726-6.685-20.921l-6.075,1.936
			c0.845,5.207,1.843,11.113,2.242,13.465c0.117,0.665-0.13,0.895-0.795,0.899c-0.922,0.015-11.779,0.264-13.52,0.297
			c-1.439-1.028-3.278-1.658-5.312-1.293c-0.818,0.069-2.503,0.401-8.514,2.753c-4.3,1.701-7.669,2.554-9.819,2.454
			c-5.516-0.25-11.211,0.127-14.662,2.87c-2.208,1.648-3.222,4.15-3.361,6.488c-0.233,3.879-1.204,10.152-1.776,15.727
			c-0.112,1.049-1.024,1.75-1.729,1.838c-4.98,0.623-15.414,2.658-15.414,2.658c-2.276,0.406-6.598,0.955-7.395,2.088
			c-0.698,1.018,3.194,0.781,5.462,0.768c1.164-0.008,3.244,0.014,3.022,0.014c5.146,0,18.023,0.057,18.696,0
			c1.878-0.158,2.128-1.059,2.805-2.504c0.788-1.686,4.048-7.594,5.681-13.049c8.844,2.014,16.847-5.287,29.267-7.787
			C88.049,79.166,91.194,78.52,92.813,78.254z"/>
	</g>
</g>
</svg>
