<?xml version="1.0" encoding="iso-8859-1"?>
<!-- Generator: Adobe Illustrator 15.0.2, SVG Export Plug-In . SVG Version: 6.00 Build 0)  -->
<!DOCTYPE svg PUBLIC "-//W3C//DTD SVG 1.1//EN" "http://www.w3.org/Graphics/SVG/1.1/DTD/svg11.dtd">
<svg version="1.1" xmlns="http://www.w3.org/2000/svg" xmlns:xlink="http://www.w3.org/1999/xlink" x="0px" y="0px" width="140px"
	 height="140px" viewBox="0 0 140 140" style="enable-background:new 0 0 140 140;" xml:space="preserve">
<g id="Layer_2">
	<g>
		<path style="fill:#242a30;" d="M104,64h-2c1.75-2.672,1.869-5.899,0.494-8.992c-2.598-5.789-9.49-13.022-23.146-20.152
			c-2.84-1.481-5.098,0.298-6.795,2.316c-1.943,2.296-6.775,13.907-8.211,17.157c-0.348,0.79-0.574,1.094-0.996,1.5
			c-0.328,0.336-11.33,3.851-15.266,5.101l-1.084-0.63c-0.693-0.418-1.596-0.183-2.008,0.51c-0.4,0.697-0.168,1.604,0.529,2.021
			l5.652,3.288l-5.141,19.73C39.211,86.593,33.9,92.362,33.9,99.388c0,7.531,6.102,13.631,13.623,13.631
			c7.531,0,13.631-6.1,13.631-13.631c0-4.947-2.652-9.275-6.602-11.669c-1.234-0.525-2.354,1.801-2.701,2.567
			c-0.408,0.932-1.307,0.699-1.307,0.012l5.561-21.326c0.668,0.298,1.486,0.059,1.865-0.589c0.414-0.706,0.172-1.599-0.516-2.005
			l-5.533-3.215c5.035-0.781,14.199-1.979,14.559-2.264c0.436-0.343,0.988-0.884,1.396-1.361c1.334-1.584,4.492-5.359,7.021-8.729
			C78.393,53.858,83.725,55.763,88,57c1.014-0.65,1.818-1.225,2.594-1.716c0.625-0.4,1.484-0.851,2.24,0.076
			c0.568,0.69,0.508,1.501,0,1.832c-4.65,2.953-18.145,11.48-20.068,13.674c-1.424,1.632-1.117,2.889,0.133,4.411
			c1.037,1.304,17.049,18.051,20.457,21.716c0.59-0.4,1.686-2.676,1.779-4.439c0.078-1.396-0.645-2.628-1.275-3.515
			c-0.307-0.435-1.961-2.523-4.061-5.144c1.871-4.226,3.754-8.481,5.301-12.013c-1.84,0.78-4.043,1.721-5.908,2.435
			c-2.82,1.092-5.488,1.97-5.488,1.97c-0.246-0.312-0.426-0.546-0.67-0.844c-0.562-0.711-0.342-1.424,0.252-1.727
			C83.898,73.398,93.34,69.778,97,68c0.09-0.038-0.08,0.041,0,0h7c1.17,0.005,1.979-0.847,1.984-2C105.984,64.838,105.162,64,104,64
			z"/>
		<path style="fill:#242a30;" d="M61.998,42.395c0.941,0.14,2.676-0.242,3.355-0.573c1.365-0.678,5.793-4.315,4.975-9.923
			c-0.441-2.988-2.725-4.48-4.129-4.732c-1.684-0.296-4.08-0.108-5.844,0.727c-1.234,0.582-2.033,1.688-2.264,3.099
			c-0.354,2.276,0.785,7.73,1.465,9.647C59.926,41.648,60.812,42.229,61.998,42.395z"/>
		<path style="fill:#242a30;" d="M83.799,90.86c-1.111-1.178-2.154-2.271-3.152-3.32l-1.568,5.787l4.484,4.517
			c0.596-1.335,1.504-3.306,2.219-4.895C85.141,92.27,84.471,91.564,83.799,90.86z"/>
		<path style="fill:#242a30;" d="M98.211,108h-8.322L57.439,74.955l-2.594,9.907c5.361,2.69,9.059,8.179,9.059,14.584
			c0,1.935-0.34,3.76-0.955,5.477l19.182,2.574L87.604,113h10.607c1.514,0,2.744-0.985,2.744-2.508
			C100.955,108.985,99.725,108,98.211,108z"/>
	</g>
</g>
</svg>
