<?xml version="1.0" encoding="iso-8859-1"?>
<!-- Generator: Adobe Illustrator 15.0.2, SVG Export Plug-In . SVG Version: 6.00 Build 0)  -->
<!DOCTYPE svg PUBLIC "-//W3C//DTD SVG 1.1//EN" "http://www.w3.org/Graphics/SVG/1.1/DTD/svg11.dtd">
<svg version="1.1" id="Layer_1" xmlns="http://www.w3.org/2000/svg" xmlns:xlink="http://www.w3.org/1999/xlink" x="0px" y="0px"
	 width="140px" height="140px" viewBox="0 0 140 140" style="enable-background:new 0 0 140 140;" xml:space="preserve">
<g id="Layer_2">
	<g>
		<path style="fill:#242a30;" d="M62.378,40.314c0.629,1.757,1.316,3.686,1.982,5.525l35.314,53.902c1.244,1.106,2.549,2.267,3.855,3.394L62.378,40.314z"
			/>
		<path style="fill:#242a30;" d="M46.444,56.501c-0.627,0.299-2.201,0.641-3.048,0.522c-1.084-0.16-1.889-0.69-2.216-1.61
			c-0.63-1.748-1.673-6.708-1.341-8.792c0.203-1.276,0.931-2.292,2.052-2.808c1.609-0.768,3.792-0.94,5.316-0.662
			c1.289,0.222,3.368,1.602,3.763,4.306C51.722,52.57,47.688,55.881,46.444,56.501z"/>
		<path style="fill:#242a30;" d="M46.456,81.602c1.393-0.429,2.861-0.885,4.213-1.291c-1.557-1.918-3.115-4.367-3.486-5.052
			c-0.25-0.446-0.25-0.78-0.086-1.126c0.076-0.152,0.424-0.484,0.854-0.863c-1.383-2.664-2.574-7.006-2.672-10.582
			c-0.691,1.181-1.266,2.315-1.438,2.889c-0.336,1.19-2.701,8.243-2.761,10.192c-0.007,0.438,0.173,0.739,0.554,1.156
			C43.573,79.086,44.587,80.086,46.456,81.602z"/>
		<path style="fill:#242a30;" d="M90.839,95.955c-3.389-2.926-17.891-19.416-18.932-21.139c-4.387-7.261-6.506-18.21-7.764-21.558
			c-1.25-3.333-6.668-18.423-6.953-19.392c-0.217-0.732-3.434-6.936-5.004-9.932c-0.328-0.835-0.223-1.852-0.275-2.247
			c-0.061-0.477-0.305-2.281-0.992-2.538c-0.895-0.331-2.926,0.071-3.766,0.491c-0.084,0.048-0.188-0.013-0.385-0.04
			c-0.256-0.042-0.498-0.07-0.643,0.199c-0.205,0.408-0.385,1.094-0.385,1.245c0,0.305,0.502,1.467,0.645,1.778
			c0.127,0.297,0.635,0.512,1.135,0.698l-0.203-0.692c-0.047-0.165,0.059-0.345,0.236-0.407c0.189-0.049,0.371,0.055,0.422,0.22
			c0,0,0.443,2.02,1.027,3.681c0.59,1.666,3.471,9.536,3.568,9.937c0.141,0.575,2.047,14.052,2.047,14.052s0.174,1.288-0.518,1.965
			c-1.717,1.68-6.613,6.569-7.047,7.654c-0.811,2.02,1.182,8.604,3.047,11.689c1.863,3.078,6.35,9.694,6.35,9.694
			c-6.119,1.942-17.258,5.472-17.725,5.651c-0.475,0.166-1.318,0.697-1.715,1.83c-0.373,1.115-8.049,26.172-8.049,26.172
			s5.552,0.097,6.893-2.739c1.08-2.246,5.135-11.371,6.654-15.803c0.255-0.726,0.746-1.176,1.221-1.244
			c3.035-0.464,14.504-2.257,18.598-3.484c1.053-0.318,5.756-0.912,7.01-0.514c1.256,0.396,16.938,10.861,16.938,10.861
			s16.306,10.691,17.797,11.632c4.623,2.904,6.968,0,6.968,0S93.396,98.134,90.839,95.955z"/>
	</g>
</g>
</svg>
