<svg xmlns="http://www.w3.org/2000/svg" xmlns:xlink="http://www.w3.org/1999/xlink" version="1.1" id="Layer_1" x="0" y="0" width="18" height="28" viewBox="0 0 18 28" enable-background="new 0 0 18 28" xml:space="preserve">
     <defs>
        <style type="text/css">
            <![CDATA[
               path{
                 fill: #fff;
                 //fill: #242a30;
               }
            ]]>
        </style>
      </defs>
  <path d="M1 6.784c0-1.152 0.384-1.608 1.728-1.608h4.128c0.84 0 1.32-0.36 1.32-1.104v-1.32H1.144V1h15.985v3.168c0 1.488-0.744 2.665-2.88 2.665h-3.048c-1.176 0-1.968-0.312-2.28-1.344C8.609 6.472 7.697 6.88 6.665 6.88H2.8c-0.456 0-0.624 0.072-0.624 0.432H1V6.784zM14.369 5.104c0.744 0 1.128-0.312 1.128-0.96V2.752H9.689V4c0 0.672 0.48 1.104 1.32 1.104H14.369z"/>
  <path d="M1.144 9.136h15.985v1.752H1.144V9.136z"/>
  <path d="M4.672 19.312c-2.232 0-3.528-0.84-3.528-2.928v-3.12h15.985v3.12c0 2.088-1.296 2.928-3.528 2.928H4.672zM13.721 17.584c1.224 0 1.728-0.36 1.728-1.248v-1.32H2.824v1.32c0 0.888 0.528 1.248 1.704 1.248H13.721z"/>
  <path d="M1.144 21.543h15.985v5.088h-1.608v-3.36h-5.329v2.424h-1.56v-2.424H2.752v3.36H1.144V21.543z"/>
</svg>
