<svg xmlns="http://www.w3.org/2000/svg" xmlns:xlink="http://www.w3.org/1999/xlink" version="1.1" id="Layer_1" x="0" y="0" width="18" height="42" viewBox="0 0 18 42" enable-background="new 0 0 18 42" xml:space="preserve">
     <defs>
        <style type="text/css">
            <![CDATA[
               path{
                 fill: #fff;
                 //fill: #242a30;
               }
            ]]>
        </style>
      </defs>
  <path d="M10.913 6.833c-2.112 0-2.904-1.224-2.904-2.688V2.728H1.24V1h15.985v3.144c0 1.464-0.792 2.688-2.904 2.688H10.913zM14.441 5.08c0.768 0 1.152-0.312 1.152-0.912v-1.44H9.569v1.44c0 0.6 0.384 0.912 1.176 0.912H14.441z"/>
  <path d="M4.336 14.729C2.393 14.729 1 13.552 1 11.656s1.393-3.072 3.336-3.072h9.792c1.92 0 3.337 1.2 3.337 3.072s-1.417 3.072-3.337 3.072H4.336zM14.369 13.024c0.84 0 1.44-0.48 1.44-1.368s-0.601-1.344-1.44-1.344H4.097c-0.84 0-1.44 0.456-1.44 1.344s0.6 1.368 1.44 1.368H14.369z"/>
  <path d="M1.24 24.04v-1.607l10.369-1.273L1.24 19.744v-1.632l15.985-1.8v1.704L5.752 19.048l11.473 1.56v1.417L5.752 23.368l11.473 1.176v1.608L1.24 24.04z"/>
  <path d="M1.24 27.855h15.985v5.088h-1.608v-3.36h-5.328v2.425h-1.56v-2.425H2.848v3.36H1.24V27.855z"/>
  <path d="M1.096 40.719c0-1.151 0.384-1.607 1.728-1.607h4.128c0.84 0 1.32-0.36 1.32-1.104v-1.32H1.24v-1.752h15.985v3.168c0 1.488-0.744 2.665-2.88 2.665h-3.049c-1.176 0-1.968-0.312-2.28-1.345 -0.312 0.984-1.224 1.393-2.256 1.393H2.896c-0.456 0-0.624 0.072-0.624 0.432H1.096V40.719zM14.465 39.039c0.744 0 1.129-0.312 1.129-0.96v-1.393H9.785v1.248c0 0.673 0.48 1.104 1.32 1.104H14.465z"/>
</svg>