<svg xmlns="http://www.w3.org/2000/svg" xmlns:xlink="http://www.w3.org/1999/xlink" version="1.1" id="Layer_1" x="0" y="0" width="18" height="33" viewBox="0 0 18 33" enable-background="new 0 0 18 33" xml:space="preserve">
      <defs>
        <style type="text/css">
            <![CDATA[
               path{
                 fill: #fff;
                 //fill: #242a30;
               }
            ]]>
        </style>
      </defs>
  <path  d="M15.642 2.752h-5.497v2.521h-1.56V2.752H1.24V1h15.985v4.968h-1.584V2.752z"/>
  <path  d="M1.24 7.792h15.985V9.52H2.896v3.24H1.24V7.792z"/>
  <path  d="M4.336 20.321C2.393 20.321 1 19.145 1 17.249c0-1.896 1.393-3.072 3.336-3.072h9.793c1.92 0 3.337 1.2 3.337 3.072s-1.417 3.072-3.337 3.072H4.336zM14.369 18.617c0.84 0 1.44-0.48 1.44-1.368s-0.601-1.344-1.44-1.344H4.097c-0.841 0-1.44 0.456-1.44 1.344s0.6 1.368 1.44 1.368H14.369z"/>
  <path  d="M1.24 29.632v-1.608l10.369-1.272L1.24 25.336v-1.632l15.985-1.8v1.704L5.752 24.64l11.474 1.56v1.416L5.752 28.96l11.474 1.176v1.608L1.24 29.632z"/>
</svg>
