<svg xmlns="http://www.w3.org/2000/svg" xmlns:xlink="http://www.w3.org/1999/xlink" version="1.1" id="Layer_1" x="0" y="0" width="18" height="33" viewBox="0 0 18 33" enable-background="new 0 0 18 33" xml:space="preserve">
      <defs>
        <style type="text/css">
            <![CDATA[
               path{
                 fill: #fff;
                 //fill: #242a30;
               }
            ]]>
        </style>
      </defs>
  <path d="M1.24 5.776l3.456-0.432V3.136L1.24 2.632V1l15.985 2.424v1.8L1.24 7.553V5.776zM13.434 4.289L6.305 3.353v1.776L13.434 4.289z"/>
  <path d="M1.24 15.905C1.072 15.641 1 15.425 1 14.969c0-0.48 0.145-0.864 0.456-1.128C1.145 13.385 1 12.809 1 12.161c0-1.896 1.393-3.072 3.289-3.072h9.889c1.896 0 3.288 1.176 3.288 3.072 0 1.896-1.392 3.072-3.288 3.072H4.168c-0.623 0-1.151-0.12-1.56-0.384 -0.216 0.216-0.312 0.552-0.312 1.056H1.24zM14.441 13.505c0.744 0 1.368-0.456 1.368-1.344s-0.624-1.344-1.368-1.344H4.024c-0.744 0-1.368 0.456-1.368 1.344 0 0.312 0.072 0.576 0.217 0.792L3.377 12.4l0.983 1.104H14.441z"/>
  <path d="M4.217 23.464C2.225 23.464 1 22.168 1 20.44c0-1.752 1.225-3.024 3.217-3.024h13.009v1.729H4.121c-0.984 0-1.488 0.432-1.488 1.32s0.504 1.32 1.488 1.32h13.104v1.68H4.217z"/>
  <path d="M1.24 29.824l3.456-0.432v-2.208L1.24 26.68v-1.632l15.985 2.424v1.8L1.24 31.601V29.824zM13.434 28.336L6.305 27.4v1.776L13.434 28.336z"/>
</svg>