<svg xmlns="http://www.w3.org/2000/svg" xmlns:xlink="http://www.w3.org/1999/xlink" version="1.1" id="Layer_1" x="0" y="0" width="18" height="42" viewBox="0 0 18 42" enable-background="new 0 0 18 42" xml:space="preserve">
     <defs>
        <style type="text/css">
            <![CDATA[
               path{
                 fill: #fff;
                 //fill: #242a30;
               }
            ]]>
        </style>
      </defs>
  <path d="M1.24 7.889h12.097l-2.784-0.384L1.24 6.041V4.432l9.313-1.512 2.784-0.384H1.24V1h15.985v2.472l-9.889 1.44L4.553 5.296 7.337 5.68l9.889 1.416v2.4H1.24V7.889z"/>
  <path d="M4.336 17.896C2.393 17.896 1 16.72 1 14.824c0-1.896 1.393-3.072 3.336-3.072h9.793c1.92 0 3.336 1.2 3.336 3.072s-1.417 3.072-3.336 3.072H4.336zM14.369 16.192c0.84 0 1.44-0.48 1.44-1.368s-0.6-1.344-1.44-1.344H4.097c-0.84 0-1.44 0.456-1.44 1.344s0.6 1.368 1.44 1.368H14.369z"/>
  <path d="M1.24 23.512V21.76l15.985-2.352v1.8L5.009 22.672l12.217 1.632v1.68L1.24 23.512z"/>
  <path d="M1.24 27.688h15.985v5.088h-1.608v-3.36h-5.329v2.424h-1.56v-2.424H2.848v3.36H1.24V27.688z"/>
  <path d="M1 37.359c0-1.896 1.296-3.049 3.145-3.049h1.824v1.681H4.216c-1.056 0-1.752 0.504-1.752 1.344 0 0.96 0.6 1.393 1.632 1.393 1.536 0 2.808-0.576 4.44-1.824 1.392-1.152 3.6-2.448 5.448-2.448 1.992 0 3.48 0.984 3.48 3.024 0 1.728-1.272 2.855-3.168 2.855h-1.896v-1.632h1.752c1.128 0 1.752-0.408 1.752-1.271 0-0.864-0.48-1.297-1.464-1.297 -1.704 0-2.784 0.601-4.656 2.017 -1.824 1.416-3.48 2.256-5.305 2.256C1.912 40.407 1 38.799 1 37.359z"/>
</svg>