<svg xmlns="http://www.w3.org/2000/svg" xmlns:xlink="http://www.w3.org/1999/xlink" version="1.1" id="Layer_1" x="0" y="0" width="18" height="59" viewBox="0 0 18 59" enable-background="new 0 0 18 59" xml:space="preserve">
      <defs>
        <style type="text/css">
            <![CDATA[
               path{
                 fill: #fff;
                 //fill: #242a30;
               }
            ]]>
        </style>
      </defs>
  <path fill="#B22828" d="M1.24 6.376L2.2 5.92C1.408 5.561 1 4.768 1 3.784 1 2.248 2.176 1 4.289 1h9.889c1.896 0 3.288 1.176 3.288 3.072 0 1.896-1.345 2.904-3.288 2.904h-2.16V5.392h2.447c0.744 0 1.345-0.432 1.345-1.32s-0.624-1.344-1.368-1.344H4.024c-0.84 0-1.464 0.408-1.464 1.344S3.185 5.44 4.024 5.44h3.648V4.168h1.513v2.953H1.24V6.376z"/>
  <path d="M1.096 15.064c0-1.152 0.385-1.608 1.729-1.608h4.129c0.84 0 1.32-0.36 1.32-1.104v-1.32H1.24V9.28h15.985v3.168c0 1.488-0.744 2.665-2.88 2.665h-3.049c-1.176 0-1.968-0.312-2.279-1.344 -0.312 0.984-1.225 1.392-2.257 1.392H2.896c-0.456 0-0.624 0.072-0.624 0.432H1.096V15.064zM14.465 13.384c0.744 0 1.129-0.312 1.129-0.96v-1.392H9.785v1.248c0 0.672 0.48 1.104 1.32 1.104H14.465z"/>
  <path d="M4.336 23.417C2.393 23.417 1 22.24 1 20.344s1.393-3.072 3.336-3.072h9.793c1.92 0 3.337 1.2 3.337 3.072s-1.417 3.072-3.337 3.072H4.336zM14.369 21.712c0.84 0 1.44-0.48 1.44-1.368S15.209 19 14.369 19H4.097c-0.841 0-1.44 0.456-1.44 1.344s0.6 1.368 1.44 1.368H14.369z"/>
  <path d="M1.24 32.728V31.12l10.369-1.272L1.24 28.432v-1.632L17.226 25v1.704L5.752 27.736l11.474 1.56v1.416L5.752 32.056l11.474 1.176v1.608L1.24 32.728z"/>
  <path d="M4.217 45.879C2.225 45.879 1 44.583 1 42.855c0-1.752 1.225-3.024 3.217-3.024h13.009v1.729H4.121c-0.984 0-1.488 0.432-1.488 1.319 0 0.889 0.504 1.32 1.488 1.32h13.104v1.681H4.217z"/>
  <path d="M10.913 54.015c-2.112 0-2.904-1.224-2.904-2.688v-1.416H1.24v-1.728h15.985v3.144c0 1.465-0.792 2.688-2.904 2.688H10.913zM14.441 52.263c0.768 0 1.152-0.312 1.152-0.912v-1.44H9.568v1.44c0 0.6 0.385 0.912 1.177 0.912H14.441z"/>
  <path d="M1.24 55.958h2.328v1.464H1.24V55.958zM5.248 56.942v-0.479l5.041-0.576h6.937v1.608h-6.937L5.248 56.942z"/>
</svg>
