<?xml version="1.0" encoding="utf-8"?>
<!-- Generator: Adobe Illustrator 24.1.1, SVG Export Plug-In . SVG Version: 6.00 Build 0)  -->
<svg version="1.1" id="Layer_1" xmlns="http://www.w3.org/2000/svg" xmlns:xlink="http://www.w3.org/1999/xlink" x="0px" y="0px"
	 viewBox="0 0 1280 800" style="enable-background:new 0 0 1280 800;" xml:space="preserve">
<style type="text/css">
	.st0{fill:#A5CE3A;}
</style>
<path class="st0" d="M0,0v800h1280V0H0z M562.5,207.3c1.3,0.8,2.4,1.8,3.2,3c3.8,5.1,8.8,9.3,14.6,12.1c7.6,3.7,15.4,6.8,22.7,11.3
	c8.4,5.2,16.7,11,22.2,19.4c5.4,8.1,9.6,17.4,9.8,27.3c0.2,3.3-1.6,6.4-0.8,9.6c0.5,1.5-0.6,2.8-1.1,4c-3.4-2.8-3.4-7.4-4.4-11.2
	c-0.7-2.8-0.9-5.8-2.2-8.4c-1.1,0.6-2.2,1.2-3.2,1.9c-2.1-2-2.5-5.1-3.4-7.7c-0.7-2.3-1.8-4.5-3.2-6.5c-1.8-2.8-2.7-6.3-5.2-8.6
	c-0.3,3.3,1.8,5.9,2.3,9c-3.4-2.1-6-5.2-7.6-8.9c-0.7,0-2.1,0.1-2.8,0.1c1.6,3.5,5.8,5.2,6.1,9.4c-3.4-1.8-6.3-4.5-8.2-7.9l-2.8-0.9
	c0.1,1.2,0.3,2.4,0.4,3.6c3.1,1.8,6.2,3.9,7.6,7.4c-3.3-1.2-5.9-3.6-8.3-6.1c-0.5,0.1-1.6,0.2-2.2,0.3c0.7,4.4,5.3,5.6,8.5,7.9
	c2.2,1.5,3.1,4,3.3,6.6c-2.1,1.1-4.5,1.5-6.9,1.2c-0.9,0.9-1.7,2-2.6,2.9c2.3-0.2,4.6-0.4,6.8,0.1c2.8,0.8,5.6,0.1,8.4-0.1
	c1.8,2.8,3.9,5.6,4.9,8.9c-3.4-0.3-6.9-2.7-10.1-0.4c2.2,0.2,4.3,1,6,2.4c2,1.7,5.4,1.7,6.6,4.4c1.1,2.3,1.1,4.8,1.4,7.2
	c-10.9-3.7-21.9-7.9-31.5-14.4c-9.6-6.4-17.1-15.4-21.7-26c-4.5-10.3-5.8-21.6-7.1-32.7C561.4,220.7,560.6,213.8,562.5,207.3z
	 M649.3,256.3c1.7-2,3.3-4.2,5.5-5.6c6.1,0.9,11.2,5,17.2,6.6c-3.4,3.1-7.3,5.3-10.6,8.4c-5.7,5.1-9.8,11.7-12.9,18.6
	c-2.7,6.1-3.9,12.7-6.1,18.9c1-0.1,2-0.3,2.9-0.7c5.1-2.7,10.6-4.4,16.1-6.3c7-2.2,14.1-4.5,21.3-5.6c7.9-1.2,15.9-2.7,24-2.8
	c10.7,0.4,21.5,3.1,30.7,8.5c9.2,6,16.9,14.1,22.5,23.7c5.3,9.2,10.2,19,12.3,29.6c2.3,10.7,2.5,21.7,2.5,32.6
	c0.1,10-0.9,19.9-3,29.6c-0.7,5.9-2.9,11.5-4.6,17.2c-3.3,11.4-8.2,22.1-12.8,32.9c-4.8,10.1-10.6,19.7-16.2,29.4
	c-1.7,3.2-5.7,4.3-9.1,3.6c-5.7-1-11.7-2.7-15.7-7c-3.6-3.9-4.6-9.5-4.4-14.6c0.1-4.7,1-9.2,1.7-13.8c0.4-2.2,0.7-4.7,2.7-6.1
	c3.6-2.8,7.5-4.9,11.2-7.4c-2.3-7.5-5.6-14.6-8.8-21.8c-0.9-2-1.7-4.1-3.3-5.7c-1.8-1.5-4.2-1.7-6.4-2c-11.4-0.7-22.7,2.8-34.1,2.3
	c0.4-3,1.6-5.8,2.2-8.8c1.7-7.9,1.7-16,1.2-23.9c-0.5-6.7-2.2-13.7-6.8-18.9c-2.7-3.1-6.2-5.3-9.6-7.5c-1.9-1.2-3.8-2.9-4.1-5.2
	c-0.5-4-0.1-8.5,2.6-11.7c1.7-1.9,3.9-3.5,4.7-6c-1.5-0.8-3.6-1.3-4.4-3.1c-0.6-1.7-1.3-3.4-2.1-5c0.1-0.7,0.4-1.5,0.5-2.2
	c-2.9-0.5-7.1-0.1-8.1-3.6c-0.7-2.2-3.5-2.7-3.9-5c-1.4-3.9-2.4-7.8-4-11.6c-1.9-3.1-4.2-5.9-5.4-9.3c-0.6-2.8,1-5.5,0.4-8.3
	l-0.1-0.4c-0.6-0.8,0.4-1.3,0.9-1.7C637.9,275.9,642.2,265.1,649.3,256.3z M674.1,446.2c6.1-1.4,12.3-2.8,18.6-2.1
	c1.3,6,2.6,12.1,4,18.1c1.6,11,1.1,22.3-0.3,33.3c-0.4,2.5,1.5,4.4,2.8,6.3c5.4-0.1,10.9-0.8,16.2-0.7c5.2,0,10.3-0.1,15.5,0
	c-2.3,5.8-6.6,10.4-10.3,15.1c-4.7,5.5-9.8,10.7-15.2,15.4c-7.5,7.6-17.6,12.7-28,14.9c-7.4,1.5-15.9,1-21.6-4.4
	c-6.9-6.8-17.3-10.4-26.9-8c-4.4,0.9-7.8,4.2-11.4,6.7c-2.8,1.9-5.4,4.7-9,5.2c-9.3,1.3-18.8-0.5-27-5.2c-4.4-2.5-9-4.9-12.7-8.4
	c-4.2-3.7-8.6-7.2-12.5-11.4c-4.6-4.8-8.2-10.3-12.6-15.3c-1.6-1.8-3.4-3.6-4.3-5.9c-0.5-2.1-1.2-4.3-2-6.3c1.1,0.9,2.2,1.9,3.3,2.9
	c2.7-0.9,5.5-0.7,8.3-0.9c2.3-0.4,3.1-3.1,3.9-5c-2.4-0.2-4.7-0.7-6.9-1.5c-0.7-4-1.7-8.4,0.4-12.1c7.7-0.9,15.5-0.4,23.2-0.7
	c1.6-0.2,3.1-0.4,4.6-0.9c8.5-2,17.6-0.1,26-2.5c3.6-0.9,6.8-3.1,10.1-4.9c7.4-4.2,14.7-8.4,22.1-12.6c1.5-0.9,2.8-2.1,4.3-3.1
	c1.2-0.3,2.4-0.4,3.6-0.3c7.6,0.1,15.5,0.4,22.9-1.7C667.3,449.4,670.4,447,674.1,446.2z M536.5,297.3c13.5-7.9,29.9-8,44.9-6
	c14,1.7,27.6,5.8,40.7,11c2.5,1.3,2.8,4.5,3.4,6.9c0.7,4.2,3.6,7.4,5.2,11.3c-4.7,3.1-8.9,7.4-10.2,13c-2,8.7-0.1,17.7-0.9,26.5
	c-0.3,2.8-1.4,5.3-2,8c1.5-0.4,2.2-1.6,2.7-3c0.8,0,1.6,0,2.4,0.1c0.1,7.2-0.4,14.4,0.9,21.6c0.4,2,0.8,4.3,2.5,5.8
	c1,1,2.6,1,3.6,0.1c3.4-3.2,0.2-9.2,4.4-11.9c0.4,3.1-0.1,7.6,3.5,9c-0.7-1.7-2.2-3.3-2.4-5.2c0.7-1.8,2.5-2.8,4.1-3.6
	c1.6,6.5,5.3,12.5,5.4,19.3c0.4,6-3.4,11.4-8.2,14.8c-2.1,0.9-4.5,0.5-6.6,1.5c-2.7,0.9-4.5,3.4-7,4.7c-0.9,0.6-2.1,0.9-2.9,1.8
	c-2.2,3.4-2.6,7.4-3.3,11.1c-1.7,2.8-4.7,4.4-7.4,6.2c-4.4,2.5-8.2,6-12.8,8.3c-5.2,2.8-10.6,5.4-16,7.9c-2,1-4.3,1.6-6.6,1.7
	c-5.5,0.1-10.9,0.9-16.4,1.4c-4.3,0.5-8.8,0.7-12.6,2.9c-4.4,2.4-9.3,3.4-14,5.2c-2.2,1.7-1.2,4.9-0.8,7.1
	c1.9,6.5,4.4,12.8,7.4,18.9c0.8,2,1.3,4.2,2,6.3c-5.7-8.2-10.4-16.9-15.4-25.4c-1.6-2.9-3.5-5.8-4.8-8.8c-2.2-5-4.9-9.8-6.8-14.9
	c-5.5-14.5-11.1-29.1-13.4-44.6c-1.7-10.8-2.3-21.7-1.8-32.6c0.4-9.3,1.6-18.6,4.4-27.6c3.2-11,8.3-21.3,15-30.6
	C521.9,308.1,528.4,301.5,536.5,297.3z"/>
</svg>
