<svg version="1.1" id="Layer_1" xmlns="http://www.w3.org/2000/svg" xmlns:xlink="http://www.w3.org/1999/xlink" x="0px" y="0px" viewBox="0 0 1480 880" style="enable-background:new 0 0 1480 880;">
  <style type="text/css">
  .st0{fill:#252322;}
  </style>
  <path class="st0" d="M0 0v880h1480V0H0zM469.4 463.5c-4.8 1.1-11.5 2.1-20.2 3 -8.7 0.9-16.5 1.4-23.5 1.4 -15.8 0-29.1-2.4-39.8-7.1 -10.8-4.7-19.1-12.8-25.1-24.3 -6-11.5-8.9-27.1-8.9-46.9v-3.9h33v3.9c0 13 1.5 23.1 4.6 30.4 3.1 7.3 7.7 12.4 13.9 15.3 6.2 2.9 14.3 4.4 24.4 4.4 7.7 0 13.5-0.1 17.2-0.2l2.3-15.8h22.1V463.5zM469.4 332.6h-22.1l-2.3-15.1c-7.4-0.3-13.2-0.5-17.2-0.5 -10.2 0-18.4 1.4-24.5 4.3 -6.1 2.9-10.7 7.9-13.8 15.1 -3.1 7.2-4.6 17.3-4.6 30.3v3.7h-33v-3.7c0-19.8 3-35.4 8.9-46.9 6-11.5 14.3-19.5 25.1-24.1 10.8-4.6 24-7 39.8-7 7 0 14.8 0.5 23.5 1.4 8.7 0.9 15.4 1.9 20.2 3V332.6zM550.9 316.8c-10.1 1.4-17.7 6.1-23 14.2 -5.3 8.1-7.9 20.4-7.9 36.9v20.2c0 31.1 10.3 48.1 30.9 50.8v28.3c-20.1-1.4-35.8-8.6-46.9-21.6s-16.7-32.2-16.7-57.6v-20.2c0-25.5 5.6-44.8 16.7-57.8s26.8-20.2 46.9-21.6V316.8zM629.6 388.1c0 25.4-5.5 44.6-16.4 57.6s-26.6 20.2-47 21.6v-28.3c10.1-1.4 17.7-6.1 22.9-14.2 5.2-8 7.8-20.3 7.8-36.7v-20.2c0-16.4-2.6-28.6-7.8-36.7 -5.2-8-12.8-12.8-22.9-14.4v-28.3c20.1 1.4 35.7 8.6 46.8 21.6 11.1 13 16.6 32.3 16.6 57.8V388.1zM694.1 464.5h-54.8v-25.1l11.6-1.2 39-120.7 -12.1-1.2V292h50.8l-41.3 140.9 0.5 0.2 -1.9 5.8 8.1 0.7V464.5zM803 464.5h-55.7v-24.8l8.6-0.7 -7.2-23.4h-40.4L716 389h26.7L729 344.4l15.6-52.5h0.7L791 438.5l12.1 0.9V464.5zM941 463.5c-4.8 1.1-11.5 2.1-20.2 3 -8.7 0.9-16.5 1.4-23.5 1.4 -15.8 0-29.1-2.4-39.8-7.1 -10.8-4.7-19.1-12.8-25.1-24.3 -6-11.5-8.9-27.1-8.9-46.9v-3.9h33v3.9c0 13 1.5 23.1 4.6 30.4 3.1 7.3 7.7 12.4 13.9 15.3 6.2 2.9 14.3 4.4 24.4 4.4 7.7 0 13.5-0.1 17.2-0.2l2.3-15.8H941V463.5zM941 332.6h-22.1l-2.3-15.1c-7.4-0.3-13.2-0.5-17.2-0.5 -10.2 0-18.4 1.4-24.5 4.3 -6.1 2.9-10.7 7.9-13.8 15.1 -3.1 7.2-4.6 17.3-4.6 30.3v3.7h-33v-3.7c0-19.8 3-35.4 8.9-46.9 6-11.5 14.3-19.5 25.1-24.1 10.8-4.6 24-7 39.8-7 7 0 14.8 0.5 23.5 1.4 8.7 0.9 15.4 1.9 20.2 3V332.6zM1021 316.3l-11.8 1.2v120.7l11.8 1.2v25.1h-56.7v-25.1l12.1-1.2V317.5l-12.1-1.2V292h56.7V316.3zM1128.8 316.3l-11.6 1.2v120.7l11.6 1.2v25.1h-55.7v-25.1l11.6-1.2v-50.6h-60.6v-26.7h60.6v-43.4l-11.6-1.2V292h55.7V316.3z"/>
</svg>