<?xml version="1.0" encoding="utf-8"?>
<!-- Generator: Adobe Illustrator 19.2.0, SVG Export Plug-In . SVG Version: 6.00 Build 0)  -->
<svg version="1.1" id="Layer_1" xmlns="http://www.w3.org/2000/svg" xmlns:xlink="http://www.w3.org/1999/xlink" x="0px" y="0px"
	 viewBox="0 0 1179 1220.9" style="enable-background:new 0 0 1179 1220.9;" xml:space="preserve">
<style type="text/css">
	.st0{fill:#252322;}
</style>
<path class="st0" d="M0,0v1220.9h1179V0H0z M318.9,634.4c-4.8,1.1-11.5,2.1-20.2,3c-8.7,0.9-16.5,1.4-23.5,1.4
	c-15.8,0-29.1-2.4-39.8-7.1c-10.8-4.7-19.1-12.8-25.1-24.3c-6-11.5-8.9-27.1-8.9-46.9v-3.9h33v3.9c0,13,1.5,23.1,4.6,30.4
	c3.1,7.3,7.7,12.4,13.9,15.3c6.2,2.9,14.3,4.4,24.4,4.4c7.7,0,13.5-0.1,17.2-0.2l2.3-15.8h22.1V634.4z M318.9,503.5h-22.1l-2.3-15.1
	c-7.4-0.3-13.2-0.5-17.2-0.5c-10.2,0-18.4,1.4-24.5,4.3c-6.1,2.9-10.7,7.9-13.8,15.1c-3.1,7.2-4.6,17.3-4.6,30.3v3.7h-33v-3.7
	c0-19.8,3-35.4,8.9-46.9c6-11.5,14.3-19.5,25.1-24.1c10.8-4.6,24-7,39.8-7c7,0,14.8,0.5,23.5,1.4c8.7,0.9,15.4,1.9,20.2,3V503.5z
	 M400.4,487.7c-10.1,1.4-17.7,6.1-23,14.2c-5.3,8.1-7.9,20.4-7.9,36.9V559c0,31.1,10.3,48.1,30.9,50.8v28.3
	c-20.1-1.4-35.8-8.6-46.9-21.6s-16.7-32.2-16.7-57.6v-20.2c0-25.5,5.6-44.8,16.7-57.8s26.8-20.2,46.9-21.6V487.7z M479.1,559
	c0,25.4-5.5,44.6-16.4,57.6c-10.9,13-26.6,20.2-47,21.6v-28.3c10.1-1.4,17.7-6.1,22.9-14.2c5.2-8,7.8-20.3,7.8-36.7v-20.2
	c0-16.4-2.6-28.6-7.8-36.7c-5.2-8-12.8-12.8-22.9-14.4v-28.3c20.1,1.4,35.7,8.6,46.8,21.6c11.1,13,16.6,32.3,16.6,57.8V559z
	 M543.6,635.3h-54.8v-25.1l11.6-1.2l39-120.7l-12.1-1.2v-24.4h50.8l-41.3,140.9l0.5,0.2l-1.9,5.8l8.1,0.7V635.3z M652.5,635.3h-55.7
	v-24.8l8.6-0.7l-7.2-23.4h-40.4l7.7-26.5h26.7l-13.7-44.6l15.6-52.5h0.7l45.7,146.5l12.1,0.9V635.3z M790.4,634.4
	c-4.8,1.1-11.5,2.1-20.2,3c-8.7,0.9-16.5,1.4-23.5,1.4c-15.8,0-29.1-2.4-39.8-7.1c-10.8-4.7-19.1-12.8-25.1-24.3
	c-6-11.5-8.9-27.1-8.9-46.9v-3.9h33v3.9c0,13,1.5,23.1,4.6,30.4c3.1,7.3,7.7,12.4,13.9,15.3c6.2,2.9,14.3,4.4,24.4,4.4
	c7.7,0,13.5-0.1,17.2-0.2l2.3-15.8h22.1V634.4z M790.4,503.5h-22.1l-2.3-15.1c-7.4-0.3-13.2-0.5-17.2-0.5c-10.2,0-18.4,1.4-24.5,4.3
	c-6.1,2.9-10.7,7.9-13.8,15.1c-3.1,7.2-4.6,17.3-4.6,30.3v3.7h-33v-3.7c0-19.8,3-35.4,8.9-46.9c6-11.5,14.3-19.5,25.1-24.1
	c10.8-4.6,24-7,39.8-7c7,0,14.8,0.5,23.5,1.4c8.7,0.9,15.4,1.9,20.2,3V503.5z M870.5,487.2l-11.8,1.2v120.7l11.8,1.2v25.1h-56.7
	v-25.1l12.1-1.2V488.4l-12.1-1.2v-24.4h56.7V487.2z M978.3,487.2l-11.6,1.2v120.7l11.6,1.2v25.1h-55.7v-25.1l11.6-1.2v-50.6h-60.6
	v-26.7h60.6v-43.4l-11.6-1.2v-24.4h55.7V487.2z"/>
</svg>
