<?xml version="1.0" encoding="utf-8"?>
<!-- Generator: Adobe Illustrator 19.2.0, SVG Export Plug-In . SVG Version: 6.00 Build 0)  -->
<svg version="1.1" id="Layer_1" xmlns="http://www.w3.org/2000/svg" xmlns:xlink="http://www.w3.org/1999/xlink" x="0px" y="0px"
	 viewBox="0 0 1179 1220.9" style="enable-background:new 0 0 1179 1220.9;" xml:space="preserve">
<style type="text/css">
	.st0{fill:#252322;}
</style>
<path class="st0" d="M0,0v1220.9h1179V0H0z M939.7,459.6c9.3,0.2,18.2,0.8,26.7,2c8.5,1.2,15,2.4,19.5,3.6v36.2H965l-3-15.1
	c-6.2-0.3-11.1-0.5-14.6-0.5l-7.7-0.2V459.6z M785.1,533.2h42v26h-42V533.2z M242,532c-2.5-4.2-5.4-9.8-8.8-16.9
	c-0.5-1.1-1.9-4.1-4.4-9.1h-0.5c0.6,9.9,0.9,21.1,0.9,33.4v69.7l11.8,1.2v25.1h-54.6v-25.1l11.4-1.2V488.4l-11.4-1.2v-24.4h46.7
	l36.5,63.6L255,553.8L242,532z M371.4,487.2l-11.6,1.2v120.7l11.6,1.2v25.1h-54.6v-25.1l11.1-1.2v-69.7c0-5.6,0.1-10.4,0.2-14.6
	c0.2-4.2,0.3-7.7,0.5-10.4c0.3-3.7,0.5-6.5,0.5-8.4h-0.5c-5.7,12.1-10.1,20.7-13.2,26L291.5,572h-27.4l60.4-109.1h46.9V487.2z
	 M454.5,487.7c-10.1,1.4-17.7,6.1-23,14.2c-5.3,8.1-7.9,20.4-7.9,36.9V559c0,31.1,10.3,48.1,30.9,50.8v28.3
	c-20.1-1.4-35.8-8.6-46.9-21.6s-16.7-32.2-16.7-57.6v-20.2c0-25.5,5.6-44.8,16.7-57.8s26.8-20.2,46.9-21.6V487.7z M533.2,559
	c0,25.4-5.5,44.6-16.4,57.6c-10.9,13-26.6,20.2-47,21.6v-28.3c10.1-1.4,17.7-6.1,22.9-14.2c5.2-8,7.8-20.3,7.8-36.7v-20.2
	c0-16.4-2.6-28.6-7.8-36.7c-5.2-8-12.8-12.8-22.9-14.4v-28.3c20.1,1.4,35.7,8.6,46.8,21.6c11.1,13,16.6,32.3,16.6,57.8V559z
	 M600.8,635.1l-45.5-146.5l-11.6-1.2v-24.4h55.5v24.4l-9.3,0.9l42.7,146.7H600.8z M705.5,487.4l-11.8,1.4l-45,146.5l-16-54.8
	l27.2-92.2l-9.5-0.9v-24.4h55.3V487.4z M847.6,635.3H725.9v-25.1l11.6-1.2V488.4l-11.6-1.2v-24.4H770v145.1h53.4l2.3-13.2h21.8
	V635.3z M847.6,501.8h-21.8l-2.1-12.3h-38.5v-26.7h62.5V501.8z M924.6,638.6c-9.1-0.2-18.3-0.8-27.5-1.9c-9.2-1.1-16.2-2.2-21-3.3
	v-38.5h22.3l2.1,16.3l4.6,0.2c6,0.5,12.5,0.7,19.5,0.7V638.6z M939.7,638.4v-26.7c6.7-0.9,11.6-3.1,15-6.6c3.3-3.5,5-8.4,5-14.7
	c0-5.6-1.5-10.1-4.6-13.6c-3.1-3.5-8.8-7.2-17.2-11l-27.2-12.1c-8.7-3.9-15.7-7.9-21.1-12c-5.4-4.1-9.6-9.1-12.5-15
	c-2.9-5.9-4.4-13.2-4.4-21.8c0-14.4,4.3-25.2,13-32.5c8.7-7.3,21.7-11.5,39-12.5v26.5c-6.7,0.8-11.7,2.6-15.1,5.3
	c-3.4,2.8-5.1,6.9-5.1,12.3c0,5.3,1.6,9.6,4.8,12.9c3.2,3.3,8.9,6.8,17.3,10.3l26.9,11.8c13.6,6,23.4,12.7,29.5,20
	c6,7.3,9.1,17.2,9.1,29.7C992,619.5,974.6,636,939.7,638.4z"/>
</svg>
