<?xml version="1.0" encoding="utf-8"?>
<!-- Generator: Adobe Illustrator 19.2.0, SVG Export Plug-In . SVG Version: 6.00 Build 0)  -->
<svg version="1.1" id="Layer_1" xmlns="http://www.w3.org/2000/svg" xmlns:xlink="http://www.w3.org/1999/xlink" x="0px" y="0px"
	 viewBox="0 0 1179 1220.9" style="enable-background:new 0 0 1179 1220.9;" xml:space="preserve">
<style type="text/css">
	.st0{fill:#252322;}
</style>
<path class="st0" d="M0,0v1220.9h1179V0H0z M775.2,533.2h42v26h-42V533.2z M226.4,635.3h-55.5v-24.8l11.8-0.9V488.8l-11.8-1.2v-24.6
	c14.4-0.8,28.9-1.2,43.4-1.4v147.9l12.1,1.2V635.3z M308.6,518.3c0,14.7-3.1,26-9.4,34c-6.3,8-14.7,13.4-25.3,16.3
	c-10.6,2.9-23.4,4.3-38.4,4.3h-6v-27.2h4.9c10.1,0,18.1-0.7,24.1-2.2c6-1.5,10.6-4.2,13.7-8.2c3.1-4,4.6-9.7,4.6-16.9v-2.6
	c0-7.4-1.5-13.1-4.4-16.9c-2.9-3.9-7.4-6.5-13.2-7.8c-5.9-1.3-13.9-2-24.1-2h-5.6v-27.4h3.3c15.8,0,29.1,1.4,40.1,4.2
	c10.9,2.8,19.6,8.2,26.1,16.1c6.5,8,9.8,19.2,9.8,33.8V518.3z M391,487.7c-10.1,1.4-17.7,6.1-23,14.2c-5.3,8.1-7.9,20.4-7.9,36.9
	V559c0,31.1,10.3,48.1,30.9,50.8v28.3c-20.1-1.4-35.8-8.6-46.9-21.6s-16.7-32.2-16.7-57.6v-20.2c0-25.5,5.6-44.8,16.7-57.8
	s26.8-20.2,46.9-21.6V487.7z M469.7,559c0,25.4-5.5,44.6-16.4,57.6c-10.9,13-26.6,20.2-47,21.6v-28.3c10.1-1.4,17.7-6.1,22.9-14.2
	c5.2-8,7.8-20.3,7.8-36.7v-20.2c0-16.4-2.6-28.6-7.8-36.7c-5.2-8-12.8-12.8-22.9-14.4v-28.3c20.1,1.4,35.7,8.6,46.8,21.6
	c11.1,13,16.6,32.3,16.6,57.8V559z M560.9,635.3h-42.5l-26-146.7l-11.8-1.2v-24.1h53.9v24.1l-9.5,0.9l13.2,78.5
	c1.1,6.8,2.2,13.5,3.4,20.1c1.2,6.6,2,11,2.4,13.4c1.7-12.8,3.7-23.4,6-31.6l19.5-71.3h25.8L560.9,635.3z M695.6,487.4l-11.4,1.2
	l-25.8,146.7h-42.3l-20-77.3l13.2-54.3l17.9,65.5l7.2,27.9c1.7-12.7,3.2-22.8,4.4-30.2l13-78.5l-9.8-0.9v-24.1h53.4V487.4z
	 M837.7,635.3H716v-25.1l11.6-1.2V488.4l-11.6-1.2v-24.4h44.1v145.1h53.4l2.3-13.2h21.8V635.3z M837.7,501.8h-21.8l-2.1-12.3h-38.5
	v-26.7h62.5V501.8z M917.1,635.3h-55.7v-24.6l12.1-1.2V488.8l-12.1-1.2v-24.6c17.6-0.6,32.2-1,43.6-1.2v147.7l12.1,1.2V635.3z
	 M1010.4,635.3h-36.2L937.5,572c-2.6,0.2-6.9,0.2-12.8,0.2h-4.6V546h4.6c15.3,0,26.3-2,33-6.2c6.7-4.1,10-11.5,10-22.2v-1.4
	c0-7.4-1.5-13.1-4.6-16.9c-3.1-3.9-7.7-6.5-13.8-8c-6.1-1.5-14.4-2.2-25-2.2h-4.2v-27.2h3.5c15.6,0,28.9,1.4,39.8,4.3
	c10.9,2.9,19.7,8.2,26.2,16.1c6.6,7.9,9.9,19,9.9,33.4v1.6c0,12.4-2.5,22.4-7.5,30c-5,7.6-12.3,13.4-21.9,17.4l27.9,45l12.5,0.9
	V635.3z"/>
</svg>
