<?xml version="1.0" encoding="utf-8"?>
<!-- Generator: Adobe Illustrator 19.2.0, SVG Export Plug-In . SVG Version: 6.00 Build 0)  -->
<svg version="1.1" id="Layer_1" xmlns="http://www.w3.org/2000/svg" xmlns:xlink="http://www.w3.org/1999/xlink" x="0px" y="0px"
	 viewBox="0 0 1179 1220.9" style="enable-background:new 0 0 1179 1220.9;" xml:space="preserve">
<style type="text/css">
	.st0{fill:#252322;}
</style>
<path class="st0" d="M0,0v1220.9h1179V0H0z M793.6,533.2h42v26h-42V533.2z M377.3,635.3h-55.7v-24.6l12.1-1.2V488.8l-12.1-1.2v-24.6
	c17.6-0.6,32.2-1,43.6-1.2v147.7l12.1,1.2V635.3z M470.6,635.3h-36.2L397.7,572c-2.6,0.2-6.9,0.2-12.8,0.2h-4.6V546h4.6
	c15.3,0,26.3-2,33-6.2c6.7-4.1,10-11.5,10-22.2v-1.4c0-7.4-1.5-13.1-4.6-16.9c-3.1-3.9-7.7-6.5-13.8-8c-6.1-1.5-14.4-2.2-25-2.2
	h-4.2v-27.2h3.5c15.6,0,28.9,1.4,39.8,4.3c10.9,2.9,19.7,8.2,26.2,16.1c6.6,7.9,9.9,19,9.9,33.4v1.6c0,12.4-2.5,22.4-7.5,30
	c-5,7.6-12.3,13.4-21.9,17.4l27.9,45l12.5,0.9V635.3z M547,487.4l-11.6,1.2v121l11.6,1.2v24.6h-56v-24.6l11.8-1.2v-121l-11.8-1.2
	v-24.6h56V487.4z M613.2,636.5c-15.2-0.3-29.6-0.8-43.2-1.4v-24.4l11.8-1.9V489.3l-11.8-1.9v-24.4c17.8-0.6,32.2-1,43.2-1.2V636.5z
	 M715.6,559.9c0,25.9-6.3,45.1-18.9,57.8c-12.6,12.7-33,19-61.2,19H628v-27.9h7c11.3,0,20.4-1.5,27.4-4.5c7-3,12.1-8.1,15.4-15.2
	c3.3-7.1,5-16.9,5-29.3v-21.8c0-12.4-1.7-22.1-5-29.3c-3.3-7.1-8.4-12.1-15.3-15.1c-6.9-2.9-16.1-4.4-27.5-4.4h-7v-27.6h7.4
	c27.5,0,47.8,6.3,60.7,19c12.9,12.7,19.4,31.8,19.4,57.3V559.9z M856,635.3H734.4v-25.1l11.6-1.2V488.4l-11.6-1.2v-24.4h44.1v145.1
	h53.4l2.3-13.2H856V635.3z M856,501.8h-21.8l-2.1-12.3h-38.5v-26.7H856V501.8z"/>
</svg>
