<?xml version="1.0" encoding="utf-8"?>
<!-- Generator: Adobe Illustrator 19.2.0, SVG Export Plug-In . SVG Version: 6.00 Build 0)  -->
<svg version="1.1" id="Layer_1" xmlns="http://www.w3.org/2000/svg" xmlns:xlink="http://www.w3.org/1999/xlink" x="0px" y="0px"
	 viewBox="0 0 1179 1220.9" style="enable-background:new 0 0 1179 1220.9;" xml:space="preserve">
<style type="text/css">
	.st0{fill:#252322;}
</style>
<path class="st0" d="M0,0v1220.9h1179V0H0z M322.8,635.3h-56.2v-25.1l12.1-1.2V488.4l-12.1-1.2v-24.4H311v146.3l11.8,1.2V635.3z
	 M368.1,559.2h-41.6v-26h41.6V559.2z M388.5,502.3h-21.4l-2.3-12.8h-38.3v-26.7h62V502.3z M466.1,487.2l-11.4,1.2v147h-44.8v-25.1
	l12.1-1.2V488.4l-12.1-1.2v-24.4h56.2V487.2z M527.4,635.3h-57.6v-27.9h33.9l2.3-14.6h21.4V635.3z M609.1,487.7
	c-10.1,1.4-17.7,6.1-23,14.2c-5.3,8.1-7.9,20.4-7.9,36.9V559c0,31.1,10.3,48.1,30.9,50.8v28.3c-20.1-1.4-35.8-8.6-46.9-21.6
	s-16.7-32.2-16.7-57.6v-20.2c0-25.5,5.6-44.8,16.7-57.8s26.8-20.2,46.9-21.6V487.7z M687.8,559c0,25.4-5.5,44.6-16.4,57.6
	c-10.9,13-26.6,20.2-47,21.6v-28.3c10.1-1.4,17.7-6.1,22.9-14.2c5.2-8,7.8-20.3,7.8-36.7v-20.2c0-16.4-2.6-28.6-7.8-36.7
	c-5.2-8-12.8-12.8-22.9-14.4v-28.3c20.1,1.4,35.7,8.6,46.8,21.6c11.1,13,16.6,32.3,16.6,57.8V559z M779.1,635.3h-42.5l-26-146.7
	l-11.8-1.2v-24.1h53.9v24.1l-9.5,0.9l13.2,78.5c1.1,6.8,2.2,13.5,3.4,20.1c1.2,6.6,2,11,2.4,13.4c1.7-12.8,3.7-23.4,6-31.6
	l19.5-71.3h25.8L779.1,635.3z M913.7,487.4l-11.4,1.2l-25.8,146.7h-42.3l-20-77.3l13.2-54.3l17.9,65.5l7.2,27.9
	c1.7-12.7,3.2-22.8,4.4-30.2l13-78.5l-9.8-0.9v-24.1h53.4V487.4z"/>
</svg>
