<svg version="1.1" id="Layer_1" xmlns="http://www.w3.org/2000/svg" xmlns:xlink="http://www.w3.org/1999/xlink" x="0px" y="0px" viewBox="0 0 1480 880" style="enable-background:new 0 0 1480 880;">
  <style type="text/css">
  .st0{fill:#252322;}
  </style>
  <path class="st0" d="M0 0v880h1480V0H0zM458.4 464.5h-54.8v-25.1l11.6-1.2 39-120.7 -12.1-1.2V292H493l-41.3 140.9 0.5 0.2 -1.9 5.8 8.1 0.7V464.5zM567.3 464.5h-55.7v-24.8l8.6-0.7 -7.2-23.4h-40.4l7.7-26.5h26.7l-13.7-44.6 15.6-52.5h0.7l45.7 146.5 12.1 0.9V464.5zM730.5 389c0 23.2-4.9 41.3-14.6 54.2 -9.8 12.9-23.6 20.7-41.6 23.3v10c0 2.6 0.4 4.6 1.2 5.9 0.8 1.3 2.2 2.2 4.2 2.6 2 0.4 5.2 0.6 9.5 0.6h18.6v20.7c-2.5 0.9-6.7 1.7-12.7 2.4 -6 0.7-11.7 1-17.3 1 -11.3 0-19.8-2.3-25.5-7 -5.7-4.6-8.6-13.2-8.6-25.8v-10.4c-17.5-2.8-31-10.6-40.5-23.6 -9.5-12.9-14.3-30.9-14.3-54v-0.9h31.8v0.9c0 18.1 3.3 31.1 10 39 6.7 7.9 16.2 11.8 28.6 11.8 12.4 0 21.9-3.9 28.6-11.8 6.7-7.9 10-20.9 10-39v-0.9h32.7V389zM730.5 373h-32.7v-4.9c0-18.3-3.3-31.4-10-39.4 -6.7-8-16.2-12-28.6-12 -12.4 0-21.9 4-28.6 12 -6.7 8-10 21.1-10 39.4v4.9h-31.8v-4.9c0-27.1 6.2-47.1 18.6-59.9 12.4-12.8 29.8-19.3 52.2-19.3 22.4 0 39.9 6.4 52.2 19.3 12.4 12.8 18.6 32.8 18.6 59.9V373zM820.8 467.2c-19.5-1.4-34.4-8.3-44.7-20.7 -10.3-12.4-15.4-30-15.4-52.9v-76.2l-11.6-1.2V292h55.7v24.4l-12.3 1.2V392c0 15.8 2.1 27.4 6.3 34.7 4.2 7.4 11.5 11.6 22.1 12.7V467.2zM907.6 316.3l-11.6 1.2v76.2c0 23.1-5.1 40.7-15.3 53.1 -10.2 12.3-25.2 19.2-44.8 20.5v-27.6c10.7-1.2 18.1-5.5 22.3-12.8 4.2-7.3 6.3-18.9 6.3-34.8v-74.5l-12.3-1.2V292h55.5V316.3zM968.2 464.5h-54.8v-25.1l11.6-1.2 39-120.7 -12.1-1.2V292h50.8l-41.3 140.9 0.5 0.2 -1.9 5.8 8.1 0.7V464.5zM1077.1 464.5h-55.7v-24.8l8.6-0.7 -7.2-23.4h-40.4l7.7-26.5h26.7l-13.7-44.6 15.6-52.5h0.7l45.7 146.5 12.1 0.9V464.5z"/>
</svg>
