<svg version="1.1" id="Layer_1" xmlns="http://www.w3.org/2000/svg" xmlns:xlink="http://www.w3.org/1999/xlink" x="0px" y="0px" viewBox="0 0 1480 880" style="enable-background:new 0 0 1480 880;">
  <style type="text/css">
  .st0{fill:#252322;}
  </style>
  <path class="st0" d="M0 0v880h1480V0H0zM473.3 464.5h-56.2v-25.1l12.1-1.2V317.5l-12.1-1.2V292h44.3v146.3l11.8 1.2V464.5zM518.6 388.3h-41.6v-26h41.6V388.3zM539 331.4h-21.4l-2.3-12.8h-38.3V292h62V331.4zM616.6 316.3l-11.4 1.2v147h-44.8v-25.1l12.1-1.2V317.5l-12.1-1.2V292h56.2V316.3zM677.9 464.5h-57.6v-27.9h33.9l2.3-14.6h21.4V464.5zM759.6 316.8c-10.1 1.4-17.7 6.1-23 14.2 -5.3 8.1-7.9 20.4-7.9 36.9v20.2c0 31.1 10.3 48.1 30.9 50.8v28.3c-20.1-1.4-35.8-8.6-46.9-21.6 -11.1-13-16.7-32.2-16.7-57.6v-20.2c0-25.5 5.6-44.8 16.7-57.8s26.8-20.2 46.9-21.6V316.8zM838.3 388.1c0 25.4-5.5 44.6-16.4 57.6 -10.9 13-26.6 20.2-47 21.6v-28.3c10.1-1.4 17.7-6.1 22.9-14.2 5.2-8 7.8-20.3 7.8-36.7v-20.2c0-16.4-2.6-28.6-7.8-36.7 -5.2-8-12.8-12.8-22.9-14.4v-28.3c20.1 1.4 35.7 8.6 46.8 21.6 11.1 13 16.6 32.3 16.6 57.8V388.1zM929.6 464.5h-42.5l-26-146.7 -11.8-1.2v-24.1h53.9v24.1l-9.5 0.9 13.2 78.5c1.1 6.8 2.2 13.5 3.4 20.1 1.2 6.6 2 11 2.4 13.4 1.7-12.8 3.7-23.4 6-31.6l19.5-71.3h25.8L929.6 464.5zM1064.2 316.6l-11.4 1.2 -25.8 146.7h-42.3l-20-77.3 13.2-54.3 17.9 65.5 7.2 27.9c1.7-12.7 3.2-22.8 4.4-30.2l13-78.5 -9.8-0.9v-24.1h53.4V316.6z"/>
</svg>
