<svg version="1.1" id="Layer_1" xmlns="http://www.w3.org/2000/svg" xmlns:xlink="http://www.w3.org/1999/xlink" x="0px" y="0px" viewBox="0 0 1480 880" style="enable-background:new 0 0 1480 880;">
  <style type="text/css">
    .st0{fill:#252322;}
  </style>
  <path class="st0" d="M0 0v880h1480V0H0zM944.1 362.3h42v26h-42V362.3zM527.8 464.5h-55.7v-24.6l12.1-1.2V318l-12.1-1.2v-24.6c17.6-0.6 32.2-1 43.6-1.2v147.7l12.1 1.2V464.5zM621.1 464.5h-36.2l-36.7-63.4c-2.6 0.2-6.9 0.2-12.8 0.2h-4.6v-26.2h4.6c15.3 0 26.3-2 33-6.2 6.7-4.1 10-11.5 10-22.2v-1.4c0-7.4-1.5-13.1-4.6-16.9 -3.1-3.9-7.7-6.5-13.8-8 -6.1-1.5-14.4-2.2-25-2.2h-4.2V291h3.5c15.6 0 28.9 1.4 39.8 4.3 10.9 2.9 19.7 8.2 26.2 16.1 6.6 7.9 9.9 19 9.9 33.4v1.6c0 12.4-2.5 22.4-7.5 30 -5 7.6-12.3 13.4-21.9 17.4l27.9 45 12.5 0.9V464.5zM697.5 316.6l-11.6 1.2v121l11.6 1.2v24.6h-56v-24.6l11.8-1.2v-121l-11.8-1.2V292h56V316.6zM763.7 465.6c-15.2-0.3-29.6-0.8-43.2-1.4v-24.4l11.8-1.9V318.4l-11.8-1.9v-24.4c17.8-0.6 32.2-1 43.2-1.2V465.6zM866.1 389c0 25.9-6.3 45.1-18.9 57.8 -12.6 12.7-33 19-61.2 19h-7.4V438h7c11.3 0 20.4-1.5 27.4-4.5 7-3 12.1-8.1 15.4-15.2 3.3-7.1 5-16.9 5-29.3v-21.8c0-12.4-1.7-22.1-5-29.3 -3.3-7.1-8.4-12.1-15.3-15.1 -6.9-2.9-16.1-4.4-27.5-4.4h-7v-27.6h7.4c27.5 0 47.8 6.3 60.7 19 12.9 12.7 19.4 31.8 19.4 57.3V389zM1006.5 464.5H884.9v-25.1l11.6-1.2V317.5l-11.6-1.2V292H929v145.1h53.4l2.3-13.2h21.8V464.5zM1006.5 331h-21.8l-2.1-12.3h-38.5V292h62.5V331z"/>
</svg>
