<?xml version="1.0" encoding="utf-8"?>
<!-- Generator: Adobe Illustrator 19.2.0, SVG Export Plug-In . SVG Version: 6.00 Build 0)  -->
<svg version="1.1" id="Layer_1" xmlns="http://www.w3.org/2000/svg" xmlns:xlink="http://www.w3.org/1999/xlink" x="0px" y="0px"
	 viewBox="0 0 1179 1220.9" style="enable-background:new 0 0 1179 1220.9;" xml:space="preserve">
<style type="text/css">
	.st0{fill:#252322;}
</style>
<path class="st0" d="M0,0v1220.9h1179V0H0z M167.5,502.2c-10.4,1-18.2,4.7-23.5,11c-5.3,6.4-8,17.4-8,33.1v22
	c0,15.7,2.6,26.8,7.7,33.4c5.1,6.6,13.1,10.3,23.8,11.1v25.4c-18.6-0.7-33.3-6.3-44.1-16.7c-10.8-10.4-16.2-28.2-16.2-53.2v-22
	c0-25.8,5.6-43.7,16.7-53.9c11.1-10.1,25.7-15.5,43.6-16.1V502.2z M223.6,633.7c-13.7,2.5-27.8,4.1-42.2,4.6v-25.4
	c4.5,0,9.2-0.1,14.3-0.4v-38.9l-19.7-1.7v-20.2h47.7V633.7z M223.6,515.8h-19.7l-2.3-13.2c-5.2-0.4-11.9-0.6-20.2-0.6v-25.6
	c9,0.4,17.5,1.2,25.5,2.2c8,1,13.6,2,16.7,2.8V515.8z M297.3,635.3h-50.4v-22.3l10.9-1V502.8l-10.9-1v-22.3c16-0.6,29.1-0.9,39.5-1
	V612l10.9,1V635.3z M381.7,635.3h-32.8L315.8,578c-2.4,0.1-6.2,0.2-11.5,0.2H300v-23.7h4.2c13.9,0,23.8-1.9,29.8-5.6
	c6-3.7,9-10.4,9-20.1v-1.3c0-6.7-1.4-11.8-4.2-15.3c-2.8-3.5-7-5.9-12.5-7.2c-5.5-1.3-13.1-2-22.6-2H300v-24.6h3.1
	c14.1,0,26.1,1.3,36,3.9c9.9,2.6,17.8,7.5,23.7,14.6c5.9,7.1,8.9,17.2,8.9,30.2v1.5c0,11.2-2.3,20.2-6.8,27.1
	c-4.6,6.9-11.2,12.1-19.8,15.8l25.2,40.7l11.3,0.8V635.3z M451.8,501.8c-9.1,1.3-16,5.5-20.8,12.8c-4.8,7.3-7.1,18.4-7.1,33.4v18.3
	c0,28.1,9.3,43.5,27.9,46v25.6c-18.2-1.3-32.3-7.8-42.4-19.5s-15.1-29.1-15.1-52.1V548c0-23.1,5-40.5,15.1-52.3
	c10.1-11.8,24.2-18.3,42.4-19.5V501.8z M523,566.2c0,23-4.9,40.3-14.8,52.1c-9.9,11.8-24,18.3-42.5,19.5v-25.6
	c9.1-1.3,16-5.5,20.7-12.8c4.7-7.3,7-18.3,7-33.2V548c0-14.8-2.3-25.9-7-33.2c-4.7-7.3-11.6-11.6-20.7-13v-25.6
	c18.2,1.3,32.3,7.8,42.3,19.5c10,11.8,15,29.2,15,52.3V566.2z M605.6,635.3h-38.4l-23.5-132.7l-10.7-1v-21.8h48.7v21.8l-8.6,0.8
	l12,71c1,6.2,2,12.2,3,18.2c1,6,1.8,10,2.2,12.1c1.5-11.6,3.4-21.1,5.5-28.6l17.6-64.5h23.3L605.6,635.3z M727.4,501.6l-10.3,1
	l-23.3,132.7h-38.2l-18.1-69.9l12-49.1l16.2,59.2l6.5,25.2c1.5-11.5,2.9-20.6,4-27.3l11.8-71l-8.8-0.8v-21.8h48.3V501.6z
	 M852.5,637.9c-17.6-1.3-31.1-7.5-40.4-18.7c-9.3-11.2-14-27.2-14-47.9v-68.9l-10.5-1.1v-22H838v22l-11.1,1.1v67.4
	c0,14.3,1.9,24.7,5.7,31.4c3.8,6.7,10.4,10.5,20,11.4V637.9z M931.1,501.4l-10.5,1.1v68.9c0,20.9-4.6,36.9-13.9,48
	c-9.2,11.1-22.8,17.3-40.5,18.6v-25c9.7-1.1,16.4-5,20.2-11.5c3.8-6.6,5.7-17.1,5.7-31.5v-67.4l-11.1-1.1v-22h50.2V501.4z
	 M1001.6,635.3h-50.2v-22.5l10.7-0.8V502.8l-10.7-1v-22.3c13-0.7,26.1-1.1,39.3-1.3V612l10.9,1V635.3z M1076,529.5
	c0,13.3-2.8,23.6-8.5,30.8c-5.7,7.2-13.3,12.1-22.9,14.7c-9.6,2.6-21.2,3.9-34.8,3.9h-5.5v-24.6h4.4c9.1,0,16.4-0.7,21.8-2
	c5.5-1.3,9.6-3.8,12.4-7.5c2.8-3.6,4.2-8.7,4.2-15.3v-2.3c0-6.7-1.3-11.8-4-15.3c-2.7-3.5-6.7-5.8-12-7c-5.3-1.2-12.6-1.8-21.8-1.8
	h-5v-24.8h2.9c14.3,0,26.4,1.3,36.2,3.8c9.9,2.5,17.7,7.4,23.6,14.6c5.9,7.2,8.8,17.4,8.8,30.6V529.5z"/>
</svg>
