<svg version="1.1" id="Layer_1" xmlns="http://www.w3.org/2000/svg" xmlns:xlink="http://www.w3.org/1999/xlink" x="0px" y="0px" viewBox="0 0 1480 880" style="enable-background:new 0 0 1480 880;">
  <style type="text/css">
    .st0{fill:#252322;}
  </style>
  <path class="st0" d="M0 0v880h1480V0H0zM1090.2 288.7c9.3 0.2 18.2 0.8 26.7 2 8.5 1.2 15 2.4 19.5 3.6v36.2h-20.9l-3-15.1c-6.2-0.3-11.1-0.5-14.6-0.5l-7.7-0.2V288.7zM935.6 362.3h42v26h-42V362.3zM392.5 361.1c-2.5-4.2-5.4-9.8-8.8-16.9 -0.5-1.1-1.9-4.1-4.4-9.1h-0.5c0.6 9.9 0.9 21.1 0.9 33.4v69.7l11.8 1.2v25.1h-54.6v-25.1l11.4-1.2V317.5l-11.4-1.2V292h46.7l36.5 63.6L405.5 383 392.5 361.1zM521.9 316.3l-11.6 1.2v120.7l11.6 1.2v25.1h-54.6v-25.1l11.1-1.2v-69.7c0-5.6 0.1-10.4 0.2-14.6 0.2-4.2 0.3-7.7 0.5-10.4 0.3-3.7 0.5-6.5 0.5-8.4h-0.5c-5.7 12.1-10.1 20.7-13.2 26L442 401.1h-27.4L475 292h46.9V316.3zM605 316.8c-10.1 1.4-17.7 6.1-23 14.2 -5.3 8.1-7.9 20.4-7.9 36.9v20.2c0 31.1 10.3 48.1 30.9 50.8v28.3c-20.1-1.4-35.8-8.6-46.9-21.6 -11.1-13-16.7-32.2-16.7-57.6v-20.2c0-25.5 5.6-44.8 16.7-57.8s26.8-20.2 46.9-21.6V316.8zM683.7 388.1c0 25.4-5.5 44.6-16.4 57.6 -10.9 13-26.6 20.2-47 21.6v-28.3c10.1-1.4 17.7-6.1 22.9-14.2 5.2-8 7.8-20.3 7.8-36.7v-20.2c0-16.4-2.6-28.6-7.8-36.7 -5.2-8-12.8-12.8-22.9-14.4v-28.3c20.1 1.4 35.7 8.6 46.8 21.6 11.1 13 16.6 32.3 16.6 57.8V388.1zM751.3 464.2l-45.5-146.5 -11.6-1.2v-24.4h55.5v24.4l-9.3 0.9 42.7 146.7H751.3zM856 316.6l-11.8 1.4 -45 146.5 -16-54.8 27.2-92.2 -9.5-0.9v-24.4H856V316.6zM998.1 464.5H876.4v-25.1l11.6-1.2V317.5l-11.6-1.2V292h44.1v145.1h53.4l2.3-13.2h21.8V464.5zM998.1 331h-21.8l-2.1-12.3h-38.5V292h62.5V331zM1075.2 467.7c-9.1-0.2-18.3-0.8-27.5-1.9 -9.2-1.1-16.2-2.2-21-3.2v-38.5h22.3l2.1 16.3 4.6 0.2c6 0.5 12.5 0.7 19.5 0.7V467.7zM1090.2 467.5v-26.7c6.7-0.9 11.6-3.1 15-6.6 3.3-3.5 5-8.4 5-14.7 0-5.6-1.5-10.1-4.6-13.6 -3.1-3.5-8.8-7.2-17.2-11l-27.2-12.1c-8.7-3.9-15.7-7.9-21.1-12 -5.4-4.1-9.6-9.1-12.5-15 -2.9-5.9-4.4-13.2-4.4-21.8 0-14.4 4.3-25.2 13-32.5 8.7-7.3 21.7-11.5 39-12.5v26.5c-6.7 0.8-11.7 2.6-15.1 5.3 -3.4 2.8-5.1 6.9-5.1 12.3 0 5.3 1.6 9.6 4.8 12.9 3.2 3.3 8.9 6.8 17.3 10.3l26.9 11.8c13.6 6 23.5 12.7 29.5 20 6 7.3 9.1 17.2 9.1 29.7C1142.5 448.6 1125.1 465.2 1090.2 467.5z"/>
</svg>
